<?xml version="1.0" standalone="no"?><!DOCTYPE svg PUBLIC "-//W3C//DTD SVG 1.1//EN" "http://www.w3.org/Graphics/SVG/1.1/DTD/svg11.dtd" ><svg version="1.1" xmlns="http://www.w3.org/2000/svg"><defs><font horiz-adv-x="0" id="font"><font-face ascent="700" bbox="-69 -281 1233 964" cap-height="750" descent="-300" font-family="Copyright House Industries" font-stretch="normal" font-style="normal" font-weight="800" units-per-em="1000" x-height="520" /><missing-glyph horiz-adv-x="260" /><glyph d="M15 10Q37 97 64 204Q87 296 118.5 421.5Q150 547 186 698Q243 700 295 701Q347 702 388 702H477Q500 602 528 486Q552 386 584 256.5Q616 127 652 -18Q621 -17 588 -17Q559 -17 523 -17.5Q487 -18 451 -19Q448 -5 444 14Q441 31 436 54.5Q431 78 425 110Q394 111 344.5 111.5Q295 112 226 112L207 8Q179 8 147 9Q120 10 85 10Q50 10 15 10ZM325 598Q314 547 295 455.5Q276 364 253 251Q278 250 313.5 249.5Q349 249 397 250Q383 322 365 409Q347 496 325 598Z" glyph-name="A" horiz-adv-x="667" unicode="A" /><glyph d="M817 271Q790 271 755 272Q725 272 681 272.5Q637 273 582 272L604 149H668Q700 149 746 150Q792 151 853 153Q852 136 852 112Q852 92 851.5 63Q851 34 852 -4Q809 -4 748 -5Q696 -6 618 -8Q540 -10 436 -13Q435 1 432 19Q430 35 426.5 58Q423 81 419 110Q391 111 344 111.5Q297 112 233 112L213 15Q186 16 153 16H15Q39 100 68 206Q93 297 125.5 421.5Q158 546 196 699Q365 697 488.5 697.5Q612 698 693 699Q788 700 853 702Q852 684 852 659Q852 638 852.5 608Q853 578 855 541Q817 542 769 542Q727 542 669.5 542Q612 542 542 541Q543 527 546 508Q548 491 551.5 467.5Q555 444 560 414Q571 413 635.5 412.5Q700 412 816 415V375Q816 356 816 329.5Q816 303 817 271ZM341 610Q331 569 311.5 480.5Q292 392 262 251Q288 250 322.5 250Q357 250 399 250Q388 325 373.5 415.5Q359 506 341 610Z" glyph-name="AE" horiz-adv-x="890" unicode="&#198;" /><glyph d="M15 10Q37 97 64 204Q87 296 118.5 421.5Q150 547 186 698Q243 700 295 701Q347 702 388 702H477Q500 602 528 486Q552 386 584 256.5Q616 127 652 -18Q621 -17 588 -17Q559 -17 523 -17.5Q487 -18 451 -19Q448 -5 444 14Q441 31 436 54.5Q431 78 425 110Q394 111 344.5 111.5Q295 112 226 112L207 8Q179 8 147 9Q120 10 85 10Q50 10 15 10ZM325 598Q314 547 295 455.5Q276 364 253 251Q278 250 313.5 249.5Q349 249 397 250Q383 322 365 409Q347 496 325 598ZM340 732Q318 748 302.5 758.5Q287 769 277 777Q265 785 257 791Q289 833 313 864Q337 895 353 916Q371 941 384 958Q409 939 428.5 925Q448 911 462 902Q478 891 489 883Q447 842 419.5 813.5Q392 785 374 767Q353 746 340 732Z" glyph-name="Aacute" horiz-adv-x="667" unicode="&#193;" /><glyph d="M15 10Q37 97 64 204Q87 296 118.5 421.5Q150 547 186 698Q243 700 295 701Q347 702 388 702H477Q500 602 528 486Q552 386 584 256.5Q616 127 652 -18Q621 -17 588 -17Q559 -17 523 -17.5Q487 -18 451 -19Q448 -5 444 14Q441 31 436 54.5Q431 78 425 110Q394 111 344.5 111.5Q295 112 226 112L207 8Q179 8 147 9Q120 10 85 10Q50 10 15 10ZM325 598Q314 547 295 455.5Q276 364 253 251Q278 250 313.5 249.5Q349 249 397 250Q383 322 365 409Q347 496 325 598ZM331 747Q246 747 203 788.5Q160 830 164 898Q176 898 193 899Q207 900 228.5 900.5Q250 901 277 903Q276 870 290.5 853Q305 836 332 836Q358 836 373.5 855.5Q389 875 384 913H412Q426 913 448 913Q470 913 500 914Q503 870 492 838.5Q481 807 458.5 787Q436 767 403 757Q370 747 331 747Z" glyph-name="Abreve" horiz-adv-x="667" unicode="&#258;" /><glyph d="M15 10Q37 97 64 204Q87 296 118.5 421.5Q150 547 186 698Q243 700 295 701Q347 702 388 702H477Q500 602 528 486Q552 386 584 256.5Q616 127 652 -18Q621 -17 588 -17Q559 -17 523 -17.5Q487 -18 451 -19Q448 -5 444 14Q441 31 436 54.5Q431 78 425 110Q394 111 344.5 111.5Q295 112 226 112L207 8Q179 8 147 9Q120 10 85 10Q50 10 15 10ZM325 598Q314 547 295 455.5Q276 364 253 251Q278 250 313.5 249.5Q349 249 397 250Q383 322 365 409Q347 496 325 598ZM222 730Q216 736 206 747Q198 755 185 768.5Q172 782 155 799Q172 816 192 835Q209 852 233 874.5Q257 897 286 925Q293 924 305 924Q316 924 334.5 924Q353 924 382 926Q396 911 415 893Q432 877 456 855Q480 833 512 804Q506 798 496 787Q488 778 475 764.5Q462 751 445 731Q433 743 416 758Q402 771 380.5 789Q359 807 332 830Q319 818 302 803Q288 790 267.5 771.5Q247 753 222 730Z" glyph-name="Acircumflex" horiz-adv-x="667" unicode="&#194;" /><glyph d="M15 10Q37 97 64 204Q87 296 118.5 421.5Q150 547 186 698Q243 700 295 701Q347 702 388 702H477Q500 602 528 486Q552 386 584 256.5Q616 127 652 -18Q621 -17 588 -17Q559 -17 523 -17.5Q487 -18 451 -19Q448 -5 444 14Q441 31 436 54.5Q431 78 425 110Q394 111 344.5 111.5Q295 112 226 112L207 8Q179 8 147 9Q120 10 85 10Q50 10 15 10ZM325 598Q314 547 295 455.5Q276 364 253 251Q278 250 313.5 249.5Q349 249 397 250Q383 322 365 409Q347 496 325 598ZM225 753Q183 753 164 776Q145 799 145 829Q145 861 168.5 881Q192 901 226 901Q264 901 284.5 880.5Q305 860 305 828Q305 808 298.5 793.5Q292 779 280.5 770Q269 761 254.5 757Q240 753 225 753ZM444 755Q409 755 388 776Q367 797 367 832Q367 861 387.5 881.5Q408 902 446 902Q484 902 502.5 880.5Q521 859 521 829Q521 792 498.5 773.5Q476 755 444 755Z" glyph-name="Adieresis" horiz-adv-x="667" unicode="&#196;" /><glyph d="M15 10Q37 97 64 204Q87 296 118.5 421.5Q150 547 186 698Q243 700 295 701Q347 702 388 702H477Q500 602 528 486Q552 386 584 256.5Q616 127 652 -18Q621 -17 588 -17Q559 -17 523 -17.5Q487 -18 451 -19Q448 -5 444 14Q441 31 436 54.5Q431 78 425 110Q394 111 344.5 111.5Q295 112 226 112L207 8Q179 8 147 9Q120 10 85 10Q50 10 15 10ZM325 598Q314 547 295 455.5Q276 364 253 251Q278 250 313.5 249.5Q349 249 397 250Q383 322 365 409Q347 496 325 598ZM326 732Q312 746 292 767Q274 785 246.5 813.5Q219 842 178 883Q180 884 205.5 903Q231 922 280 961Q293 943 311 918Q327 897 351 866Q375 835 408 793Q398 786 386 777Q375 769 360 758Q345 747 326 732Z" glyph-name="Agrave" horiz-adv-x="667" unicode="&#192;" /><glyph d="M15 10Q37 97 64 204Q87 296 118.5 421.5Q150 547 186 698Q243 700 295 701Q347 702 388 702H477Q500 602 528 486Q552 386 584 256.5Q616 127 652 -18Q621 -17 588 -17Q559 -17 523 -17.5Q487 -18 451 -19Q448 -5 444 14Q441 31 436 54.5Q431 78 425 110Q394 111 344.5 111.5Q295 112 226 112L207 8Q179 8 147 9Q120 10 85 10Q50 10 15 10ZM325 598Q314 547 295 455.5Q276 364 253 251Q278 250 313.5 249.5Q349 249 397 250Q383 322 365 409Q347 496 325 598ZM186 800Q186 813 186 832.5Q186 852 185 880Q210 879 251 879Q286 879 342 879.5Q398 880 482 882Q481 873 481 858Q480 845 480 825.5Q480 806 480 778H412Q377 778 321 778Q265 778 186 776Z" glyph-name="Amacron" horiz-adv-x="667" unicode="&#256;" /><glyph d="M549 -229Q525 -232 503 -232Q433 -232 393.5 -204Q354 -176 354 -127Q354 -92 376 -60.5Q398 -29 449 -7Q443 18 425 110Q394 111 344.5 111.5Q295 112 226 112L207 8Q179 8 147 9Q120 10 85 10Q50 10 15 10Q37 97 64 204Q87 296 118.5 421.5Q150 547 186 698Q243 700 295 701Q347 702 388 702H477Q500 602 528 486Q552 386 584 256.5Q616 127 652 -18Q633 -17 611 -17H516Q488 -34 475 -53.5Q462 -73 462 -89Q462 -113 487 -123Q512 -133 557 -131L554 -155Q552 -167 551 -185.5Q550 -204 549 -229ZM325 598Q314 547 295 455.5Q276 364 253 251Q278 250 313.5 249.5Q349 249 397 250Q383 322 365 409Q347 496 325 598Z" glyph-name="Aogonek" horiz-adv-x="667" unicode="&#260;" /><glyph d="M15 10Q37 97 64 204Q87 296 118.5 421.5Q150 547 186 698Q243 700 295 701Q347 702 388 702H477Q500 602 528 486Q552 386 584 256.5Q616 127 652 -18Q621 -17 588 -17Q559 -17 523 -17.5Q487 -18 451 -19Q448 -5 444 14Q441 31 436 54.5Q431 78 425 110Q394 111 344.5 111.5Q295 112 226 112L207 8Q179 8 147 9Q120 10 85 10Q50 10 15 10ZM325 598Q314 547 295 455.5Q276 364 253 251Q278 250 313.5 249.5Q349 249 397 250Q383 322 365 409Q347 496 325 598ZM332 740Q271 740 235.5 769.5Q200 799 200 853Q200 904 237.5 934Q275 964 332 964Q365 964 390.5 955Q416 946 432.5 930.5Q449 915 457.5 895Q466 875 466 853Q466 795 428 767.5Q390 740 332 740ZM335 797Q359 797 374.5 813Q390 829 390 853Q390 874 375.5 892Q361 910 335 910Q310 910 294 895Q278 880 278 854Q278 831 293 814Q308 797 335 797Z" glyph-name="Aring" horiz-adv-x="667" unicode="&#197;" /><glyph d="M15 10Q37 97 64 204Q87 296 118.5 421.5Q150 547 186 698Q243 700 295 701Q347 702 388 702H477Q500 602 528 486Q552 386 584 256.5Q616 127 652 -18Q621 -17 588 -17Q559 -17 523 -17.5Q487 -18 451 -19Q448 -5 444 14Q441 31 436 54.5Q431 78 425 110Q394 111 344.5 111.5Q295 112 226 112L207 8Q179 8 147 9Q120 10 85 10Q50 10 15 10ZM325 598Q314 547 295 455.5Q276 364 253 251Q278 250 313.5 249.5Q349 249 397 250Q383 322 365 409Q347 496 325 598ZM221 748Q198 748 150 745Q147 781 153 811.5Q159 842 172.5 864.5Q186 887 207 900Q228 913 257 913Q281 913 300.5 904Q320 895 336.5 883.5Q353 872 367.5 863Q382 854 396 854Q411 854 419 867Q427 880 424 908Q433 908 445 909Q456 910 472.5 911.5Q489 913 513 915Q524 834 499.5 790.5Q475 747 418 747Q392 747 372 755.5Q352 764 335 774.5Q318 785 303.5 793.5Q289 802 276 802Q259 802 250.5 787Q242 772 244 748Z" glyph-name="Atilde" horiz-adv-x="667" unicode="&#195;" /><glyph d="M59 0Q58 97 57 209Q56 305 54 429.5Q52 554 50 692Q118 703 175.5 708.5Q233 714 284 714Q446 715 522 663Q598 611 598 514Q598 454 564.5 412.5Q531 371 471 355Q553 341 593.5 299Q634 257 634 190Q634 80 545 30Q456 -20 285 -18Q185 -17 59 0ZM243 119Q255 117 271 116Q287 115 301 115Q358 115 390.5 134Q423 153 423 199Q423 238 393 260Q363 282 294 282Q282 282 268.5 281Q255 280 240 278Q241 209 242 169Q243 129 243 119ZM239 412Q250 411 260.5 411Q271 411 280 411Q341 411 373.5 430.5Q406 450 406 497Q406 544 365.5 566.5Q325 589 239 575Z" glyph-name="B" horiz-adv-x="656" unicode="B" /><glyph d="M348 -17Q275 -17 217 5.5Q159 28 118.5 73Q78 118 56.5 186Q35 254 35 346Q35 522 116 616Q197 710 348 710Q414 710 465 690.5Q516 671 552.5 636.5Q589 602 611.5 553.5Q634 505 643 448Q588 443 548 438.5Q508 434 482 431Q451 427 431 424Q426 486 405 521.5Q384 557 343 557Q294 557 269 506.5Q244 456 245 347Q245 246 269.5 192.5Q294 139 346 139Q387 139 410.5 172.5Q434 206 439 288Q484 284 523 281Q562 278 591 276Q625 273 654 271Q648 197 623.5 143Q599 89 559.5 53.5Q520 18 466 0.5Q412 -17 348 -17Z" glyph-name="C" horiz-adv-x="679" unicode="C" /><glyph d="M348 -17Q275 -17 217 5.5Q159 28 118.5 73Q78 118 56.5 186Q35 254 35 346Q35 522 116 616Q197 710 348 710Q414 710 465 690.5Q516 671 552.5 636.5Q589 602 611.5 553.5Q634 505 643 448Q588 443 548 438.5Q508 434 482 431Q451 427 431 424Q426 486 405 521.5Q384 557 343 557Q294 557 269 506.5Q244 456 245 347Q245 246 269.5 192.5Q294 139 346 139Q387 139 410.5 172.5Q434 206 439 288Q484 284 523 281Q562 278 591 276Q625 273 654 271Q648 197 623.5 143Q599 89 559.5 53.5Q520 18 466 0.5Q412 -17 348 -17ZM351 732Q329 748 313.5 758.5Q298 769 288 777Q276 785 268 791Q300 833 324 864Q348 895 364 916Q382 941 395 958Q420 939 439.5 925Q459 911 473 902Q489 891 500 883Q458 842 430.5 813.5Q403 785 385 767Q364 746 351 732Z" glyph-name="Cacute" horiz-adv-x="679" unicode="&#262;" /><glyph d="M348 -17Q275 -17 217 5.5Q159 28 118.5 73Q78 118 56.5 186Q35 254 35 346Q35 522 116 616Q197 710 348 710Q414 710 465 690.5Q516 671 552.5 636.5Q589 602 611.5 553.5Q634 505 643 448Q588 443 548 438.5Q508 434 482 431Q451 427 431 424Q426 486 405 521.5Q384 557 343 557Q294 557 269 506.5Q244 456 245 347Q245 246 269.5 192.5Q294 139 346 139Q387 139 410.5 172.5Q434 206 439 288Q484 284 523 281Q562 278 591 276Q625 273 654 271Q648 197 623.5 143Q599 89 559.5 53.5Q520 18 466 0.5Q412 -17 348 -17ZM233 938Q258 915 278.5 896.5Q299 878 313 865Q330 850 343 838Q370 861 391.5 879Q413 897 427 910Q444 925 456 937Q473 917 486 903.5Q499 890 507 881Q517 870 523 864Q491 835 467 812.5Q443 790 426 774Q407 756 393 742Q364 744 345.5 744Q327 744 316 744Q304 744 297 743Q268 770 244 793Q220 816 203 833Q183 852 166 869Q183 886 196 899Q209 912 217 921Q227 931 233 938Z" glyph-name="Ccaron" horiz-adv-x="679" unicode="&#268;" /><glyph d="M654 271Q643 136 573 66Q503 -4 393 -15Q392 -30 393 -56Q452 -57 481 -78.5Q510 -100 510 -135Q510 -177 469 -203Q428 -229 350 -229Q326 -229 297.5 -224Q269 -219 244 -208Q246 -200 248 -189Q250 -180 252 -167.5Q254 -155 256 -140Q299 -160 340 -160Q362 -160 374.5 -153Q387 -146 387 -131Q387 -116 365 -107Q343 -98 292 -102Q294 -92 297 -79Q299 -68 302 -52Q305 -36 309 -15Q180 -4 107.5 86Q35 176 35 346Q35 522 116 616Q197 710 348 710Q414 710 465 690.5Q516 671 552.5 636.5Q589 602 611.5 553.5Q634 505 643 448Q588 443 548 438.5Q508 434 482 431Q451 427 431 424Q426 486 405 521.5Q384 557 343 557Q294 557 269 506.5Q244 456 245 347Q245 246 269.5 192.5Q294 139 346 139Q387 139 410.5 172.5Q434 206 439 288Q484 284 523 281Q562 278 591 276Q625 273 654 271Z" glyph-name="Ccedilla" horiz-adv-x="679" unicode="&#199;" /><glyph d="M348 -17Q275 -17 217 5.5Q159 28 118.5 73Q78 118 56.5 186Q35 254 35 346Q35 522 116 616Q197 710 348 710Q414 710 465 690.5Q516 671 552.5 636.5Q589 602 611.5 553.5Q634 505 643 448Q588 443 548 438.5Q508 434 482 431Q451 427 431 424Q426 486 405 521.5Q384 557 343 557Q294 557 269 506.5Q244 456 245 347Q245 246 269.5 192.5Q294 139 346 139Q387 139 410.5 172.5Q434 206 439 288Q484 284 523 281Q562 278 591 276Q625 273 654 271Q648 197 623.5 143Q599 89 559.5 53.5Q520 18 466 0.5Q412 -17 348 -17ZM233 730Q227 736 217 747Q209 755 196 768.5Q183 782 166 799Q183 816 203 835Q220 852 244 874.5Q268 897 297 925Q304 924 316 924Q327 924 345.5 924Q364 924 393 926Q407 911 426 893Q443 877 467 855Q491 833 523 804Q517 798 507 787Q499 778 486 764.5Q473 751 456 731Q444 743 427 758Q413 771 391.5 789Q370 807 343 830Q330 818 313 803Q299 790 278.5 771.5Q258 753 233 730Z" glyph-name="Ccircumflex" horiz-adv-x="679" unicode="&#264;" /><glyph d="M247 137Q250 136 254 136H271Q307 136 335.5 145.5Q364 155 384 178.5Q404 202 414.5 242.5Q425 283 425 345Q425 448 390 499.5Q355 551 274 551Q267 551 261.5 550.5Q256 550 251 550Q246 549 241 549Q241 458 242 383Q243 308 244 253Q245 189 247 137ZM50 -3Q51 153 51 279.5Q51 406 51 497Q51 603 50 687Q101 695 147 699.5Q193 704 235 704Q441 705 537.5 613Q634 521 634 341Q634 156 533 71.5Q432 -13 228 -14Q187 -14 143 -11.5Q99 -9 50 -3Z" glyph-name="D" horiz-adv-x="669" unicode="D" /><glyph d="M247 137Q250 136 254 136H271Q307 136 335.5 145.5Q364 155 384 178.5Q404 202 414.5 242.5Q425 283 425 345Q425 448 390 499.5Q355 551 274 551Q267 551 261.5 550.5Q256 550 251 550Q246 549 241 549Q241 458 242 383Q243 308 244 253Q245 189 247 137ZM50 -3Q51 153 51 279.5Q51 406 51 497Q51 603 50 687Q101 695 147 699.5Q193 704 235 704Q441 705 537.5 613Q634 521 634 341Q634 156 533 71.5Q432 -13 228 -14Q187 -14 143 -11.5Q99 -9 50 -3ZM191 938Q216 915 236.5 896.5Q257 878 271 865Q288 850 301 838Q328 861 349.5 879Q371 897 385 910Q402 925 414 937Q431 917 444 903.5Q457 890 465 881Q475 870 481 864Q449 835 425 812.5Q401 790 384 774Q365 756 351 742Q322 744 303.5 744Q285 744 274 744Q262 744 255 743Q226 770 202 793Q178 816 161 833Q141 852 124 869Q141 886 154 899Q167 912 175 921Q185 931 191 938Z" glyph-name="Dcaron" horiz-adv-x="669" unicode="&#270;" /><glyph d="M15 268Q16 282 17 303Q18 339 17 417Q25 417 36 416Q53 415 88 413Q88 477 87.5 528Q87 579 87 614V687Q138 695 184 699.5Q230 704 272 704Q478 705 574.5 613Q671 521 671 341Q671 156 570 71.5Q469 -13 265 -14Q224 -14 180 -11.5Q136 -9 87 -3L88 270Q71 269 52.5 268.5Q34 268 15 268ZM284 137Q326 134 359 141.5Q392 149 415 172Q438 195 450 236.5Q462 278 462 345Q462 456 419.5 508.5Q377 561 278 549Q278 511 278 476Q278 441 279 409Q299 408 319.5 408.5Q340 409 363 409Q362 397 362 379Q362 363 362 337.5Q362 312 364 275H342Q331 275 316 274.5Q301 274 281 274Q281 242 281.5 216Q282 190 283 173Q284 152 284 137Z" glyph-name="Dcroat" horiz-adv-x="706" unicode="&#272;" /><glyph d="M58 4Q58 90 57 197Q56 289 54 415Q52 541 50 693Q105 694 177 695Q239 696 327 697Q415 698 527 700V661Q527 641 527.5 612Q528 583 529 545Q494 545 450 544Q412 543 359.5 542.5Q307 542 243 540V505Q243 488 243 464.5Q243 441 244 411Q266 411 322 411Q378 411 480 413V377Q480 359 480 331.5Q480 304 481 267Q455 267 420 268Q390 268 346.5 268.5Q303 269 247 268Q248 241 248 212.5Q248 184 250 154Q282 153 324 152Q360 151 412.5 150Q465 149 533 148Q532 133 532 110Q531 90 531 61Q531 32 531 -6Q466 -4 389 -2Q323 0 238 1.5Q153 3 58 4Z" glyph-name="E" horiz-adv-x="568" unicode="E" /><glyph d="M58 4Q58 90 57 197Q56 289 54 415Q52 541 50 693Q105 694 177 695Q239 696 327 697Q415 698 527 700V661Q527 641 527.5 612Q528 583 529 545Q494 545 450 544Q412 543 359.5 542.5Q307 542 243 540V505Q243 488 243 464.5Q243 441 244 411Q266 411 322 411Q378 411 480 413V377Q480 359 480 331.5Q480 304 481 267Q455 267 420 268Q390 268 346.5 268.5Q303 269 247 268Q248 241 248 212.5Q248 184 250 154Q282 153 324 152Q360 151 412.5 150Q465 149 533 148Q532 133 532 110Q531 90 531 61Q531 32 531 -6Q466 -4 389 -2Q323 0 238 1.5Q153 3 58 4ZM308 732Q286 748 270.5 758.5Q255 769 245 777Q233 785 225 791Q257 833 281 864Q305 895 321 916Q339 941 352 958Q377 939 396.5 925Q416 911 430 902Q446 891 457 883Q415 842 387.5 813.5Q360 785 342 767Q321 746 308 732Z" glyph-name="Eacute" horiz-adv-x="568" unicode="&#201;" /><glyph d="M58 4Q58 90 57 197Q56 289 54 415Q52 541 50 693Q105 694 177 695Q239 696 327 697Q415 698 527 700V661Q527 641 527.5 612Q528 583 529 545Q494 545 450 544Q412 543 359.5 542.5Q307 542 243 540V505Q243 488 243 464.5Q243 441 244 411Q266 411 322 411Q378 411 480 413V377Q480 359 480 331.5Q480 304 481 267Q455 267 420 268Q390 268 346.5 268.5Q303 269 247 268Q248 241 248 212.5Q248 184 250 154Q282 153 324 152Q360 151 412.5 150Q465 149 533 148Q532 133 532 110Q531 90 531 61Q531 32 531 -6Q466 -4 389 -2Q323 0 238 1.5Q153 3 58 4ZM190 938Q215 915 235.5 896.5Q256 878 270 865Q287 850 300 838Q327 861 348.5 879Q370 897 384 910Q401 925 413 937Q430 917 443 903.5Q456 890 464 881Q474 870 480 864Q448 835 424 812.5Q400 790 383 774Q364 756 350 742Q321 744 302.5 744Q284 744 273 744Q261 744 254 743Q225 770 201 793Q177 816 160 833Q140 852 123 869Q140 886 153 899Q166 912 174 921Q184 931 190 938Z" glyph-name="Ecaron" horiz-adv-x="568" unicode="&#282;" /><glyph d="M58 4Q58 90 57 197Q56 289 54 415Q52 541 50 693Q105 694 177 695Q239 696 327 697Q415 698 527 700V661Q527 641 527.5 612Q528 583 529 545Q494 545 450 544Q412 543 359.5 542.5Q307 542 243 540V505Q243 488 243 464.5Q243 441 244 411Q266 411 322 411Q378 411 480 413V377Q480 359 480 331.5Q480 304 481 267Q455 267 420 268Q390 268 346.5 268.5Q303 269 247 268Q248 241 248 212.5Q248 184 250 154Q282 153 324 152Q360 151 412.5 150Q465 149 533 148Q532 133 532 110Q531 90 531 61Q531 32 531 -6Q466 -4 389 -2Q323 0 238 1.5Q153 3 58 4ZM190 730Q184 736 174 747Q166 755 153 768.5Q140 782 123 799Q140 816 160 835Q177 852 201 874.5Q225 897 254 925Q261 924 273 924Q284 924 302.5 924Q321 924 350 926Q364 911 383 893Q400 877 424 855Q448 833 480 804Q474 798 464 787Q456 778 443 764.5Q430 751 413 731Q401 743 384 758Q370 771 348.5 789Q327 807 300 830Q287 818 270 803Q256 790 235.5 771.5Q215 753 190 730Z" glyph-name="Ecircumflex" horiz-adv-x="568" unicode="&#202;" /><glyph d="M58 4Q58 90 57 197Q56 289 54 415Q52 541 50 693Q105 694 177 695Q239 696 327 697Q415 698 527 700V661Q527 641 527.5 612Q528 583 529 545Q494 545 450 544Q412 543 359.5 542.5Q307 542 243 540V505Q243 488 243 464.5Q243 441 244 411Q266 411 322 411Q378 411 480 413V377Q480 359 480 331.5Q480 304 481 267Q455 267 420 268Q390 268 346.5 268.5Q303 269 247 268Q248 241 248 212.5Q248 184 250 154Q282 153 324 152Q360 151 412.5 150Q465 149 533 148Q532 133 532 110Q531 90 531 61Q531 32 531 -6Q466 -4 389 -2Q323 0 238 1.5Q153 3 58 4ZM193 753Q151 753 132 776Q113 799 113 829Q113 861 136.5 881Q160 901 194 901Q232 901 252.5 880.5Q273 860 273 828Q273 808 266.5 793.5Q260 779 248.5 770Q237 761 222.5 757Q208 753 193 753ZM412 755Q377 755 356 776Q335 797 335 832Q335 861 355.5 881.5Q376 902 414 902Q452 902 470.5 880.5Q489 859 489 829Q489 792 466.5 773.5Q444 755 412 755Z" glyph-name="Edieresis" horiz-adv-x="568" unicode="&#203;" /><glyph d="M58 4Q58 90 57 197Q56 289 54 415Q52 541 50 693Q105 694 177 695Q239 696 327 697Q415 698 527 700V661Q527 641 527.5 612Q528 583 529 545Q494 545 450 544Q412 543 359.5 542.5Q307 542 243 540V505Q243 488 243 464.5Q243 441 244 411Q266 411 322 411Q378 411 480 413V377Q480 359 480 331.5Q480 304 481 267Q455 267 420 268Q390 268 346.5 268.5Q303 269 247 268Q248 241 248 212.5Q248 184 250 154Q282 153 324 152Q360 151 412.5 150Q465 149 533 148Q532 133 532 110Q531 90 531 61Q531 32 531 -6Q466 -4 389 -2Q323 0 238 1.5Q153 3 58 4ZM301 750Q254 750 230.5 776.5Q207 803 207 838Q207 872 231.5 896.5Q256 921 301 921Q325 921 342.5 913.5Q360 906 372 894Q384 882 389.5 866.5Q395 851 395 836Q395 794 368.5 772Q342 750 301 750Z" glyph-name="Edotaccent" horiz-adv-x="568" unicode="&#278;" /><glyph d="M58 4Q58 90 57 197Q56 289 54 415Q52 541 50 693Q105 694 177 695Q239 696 327 697Q415 698 527 700V661Q527 641 527.5 612Q528 583 529 545Q494 545 450 544Q412 543 359.5 542.5Q307 542 243 540V505Q243 488 243 464.5Q243 441 244 411Q266 411 322 411Q378 411 480 413V377Q480 359 480 331.5Q480 304 481 267Q455 267 420 268Q390 268 346.5 268.5Q303 269 247 268Q248 241 248 212.5Q248 184 250 154Q282 153 324 152Q360 151 412.5 150Q465 149 533 148Q532 133 532 110Q531 90 531 61Q531 32 531 -6Q466 -4 389 -2Q323 0 238 1.5Q153 3 58 4ZM294 732Q280 746 260 767Q242 785 214.5 813.5Q187 842 146 883Q148 884 173.5 903Q199 922 248 961Q261 943 279 918Q295 897 319 866Q343 835 376 793Q366 786 354 777Q343 769 328 758Q313 747 294 732Z" glyph-name="Egrave" horiz-adv-x="568" unicode="&#200;" /><glyph d="M58 4Q58 90 57 197Q56 289 54 415Q52 541 50 693Q105 694 177 695Q239 696 327 697Q415 698 527 700V661Q527 641 527.5 612Q528 583 529 545Q494 545 450 544Q412 543 359.5 542.5Q307 542 243 540V505Q243 488 243 464.5Q243 441 244 411Q266 411 322 411Q378 411 480 413V377Q480 359 480 331.5Q480 304 481 267Q455 267 420 268Q390 268 346.5 268.5Q303 269 247 268Q248 241 248 212.5Q248 184 250 154Q282 153 324 152Q360 151 412.5 150Q465 149 533 148Q532 133 532 110Q531 90 531 61Q531 32 531 -6Q466 -4 389 -2Q323 0 238 1.5Q153 3 58 4ZM154 800Q154 813 154 832.5Q154 852 153 880Q178 879 219 879Q254 879 310 879.5Q366 880 450 882Q449 873 449 858Q448 845 448 825.5Q448 806 448 778H380Q345 778 289 778Q233 778 154 776Z" glyph-name="Emacron" horiz-adv-x="568" unicode="&#274;" /><glyph d="M528 -219Q504 -222 482 -222Q411 -222 372 -194Q333 -166 333 -117Q333 -85 352.5 -54.5Q372 -24 416 -2Q350 0 257 1.5Q164 3 58 4Q58 90 57 197Q56 289 54 415Q52 541 50 693Q105 694 177 695Q239 696 327 697Q415 698 527 700V661Q527 641 527.5 612Q528 583 529 545Q494 545 450 544Q412 543 359.5 542.5Q307 542 243 540V505Q243 488 243 464.5Q243 441 244 411Q266 411 322 411Q378 411 480 413V377Q480 359 480 331.5Q480 304 481 267Q455 267 420 268Q390 268 346.5 268.5Q303 269 247 268Q248 241 248 212.5Q248 184 250 154Q282 153 324 152Q360 151 412.5 150Q465 149 533 148Q532 136 532 117Q531 100 531 73.5Q531 47 531 9Q483 -8 462 -33.5Q441 -59 441 -79Q441 -103 466 -113Q491 -123 536 -121L533 -145Q531 -157 530 -175.5Q529 -194 528 -219Z" glyph-name="Eogonek" horiz-adv-x="568" unicode="&#280;" /><glyph d="M15 268Q16 282 17 303Q18 339 17 417Q25 417 36 416Q53 415 88 413Q88 477 87.5 528Q87 579 87 614V687Q138 695 184 699.5Q230 704 272 704Q478 705 574.5 613Q671 521 671 341Q671 156 570 71.5Q469 -13 265 -14Q224 -14 180 -11.5Q136 -9 87 -3L88 270Q71 269 52.5 268.5Q34 268 15 268ZM284 137Q326 134 359 141.5Q392 149 415 172Q438 195 450 236.5Q462 278 462 345Q462 456 419.5 508.5Q377 561 278 549Q278 511 278 476Q278 441 279 409Q299 408 319.5 408.5Q340 409 363 409Q362 397 362 379Q362 363 362 337.5Q362 312 364 275H342Q331 275 316 274.5Q301 274 281 274Q281 242 281.5 216Q282 190 283 173Q284 152 284 137Z" glyph-name="Eth" horiz-adv-x="706" unicode="&#208;" /><glyph d="M15 354V411H35Q45 411 58.5 410.5Q72 410 91 411Q101 473 125.5 522Q150 571 187.5 605.5Q225 640 274.5 658Q324 676 384 676Q444 676 490 661.5Q536 647 570 621.5Q604 596 625.5 562Q647 528 656 489Q618 482 582 476Q546 470 519 465Q486 460 459 455Q450 493 432.5 511Q415 529 385 529Q347 529 323 501.5Q299 474 290 413L547 418Q546 411 546 400Q546 391 545.5 377.5Q545 364 546 346H477Q443 346 395 345.5Q347 345 285 344Q284 339 284 333Q284 328 284 320Q284 312 285 304L555 308Q554 302 554 292Q554 284 554 270.5Q554 257 555 238H486Q452 238 402.5 237.5Q353 237 289 236Q297 174 320 146Q343 118 383 118Q417 118 435 136Q453 154 464 196Q506 186 542 178.5Q578 171 605 166Q636 160 662 155Q652 108 624.5 73.5Q597 39 559 16.5Q521 -6 474.5 -17Q428 -28 380 -27Q258 -27 184 38Q110 103 90 232L17 231V245Q17 253 17.5 267Q18 281 18 304Q25 303 35 303H84Q83 307 83 313Q83 318 83 325Q83 332 84 341L15 340Z" glyph-name="Euro" horiz-adv-x="687" unicode="&#8364;" /><glyph d="M15 380V436H35Q45 436 59.5 435.5Q74 435 94 436Q115 571 198.5 644.5Q282 718 412 718Q467 718 512.5 702.5Q558 687 594 659.5Q630 632 656 594Q682 556 698 511Q650 505 610.5 500Q571 495 543 491Q510 487 484 482Q470 525 451.5 544Q433 563 404 563Q362 563 337.5 533.5Q313 504 304 438Q417 439 575 444Q575 438 574 428Q573 420 572.5 406Q572 392 573 373H501Q466 373 415 372.5Q364 372 299 371Q298 363 298 354Q298 346 298 336Q298 326 299 314L583 319Q582 314 582 305Q582 297 582 283.5Q582 270 583 250H510Q475 250 423 249.5Q371 249 305 248Q314 187 337 159Q360 131 402 131Q438 131 459 150.5Q480 170 492 205Q538 196 576 190Q614 184 642 179Q675 174 700 170Q665 75 589 25.5Q513 -24 399 -22Q272 -22 194 44.5Q116 111 94 244L17 243V255Q17 263 17.5 276.5Q18 290 18 314Q25 313 36 313H88Q87 321 86.5 333Q86 345 87 368L15 367Z" glyph-name="Euro.cap" horiz-adv-x="725" /><glyph d="M13 380V436H29Q37 436 47 435.5Q57 435 71 436Q81 503 106 555.5Q131 608 168.5 644Q206 680 255 699Q304 718 362 718Q419 718 461.5 701Q504 684 536 655.5Q568 627 589.5 589.5Q611 552 626 511Q578 505 539 500Q500 495 473 491Q441 487 417 482Q406 520 390.5 541.5Q375 563 352 563Q322 563 302.5 534.5Q283 506 276 439L508 444Q508 438 507 428Q506 420 505.5 406Q505 392 506 373H449Q420 373 376 372.5Q332 372 272 371Q271 365 271 356Q271 348 271 338Q271 328 272 315L516 319Q515 314 515 305Q515 297 515 283.5Q515 270 516 250H459Q430 250 384.5 249.5Q339 249 276 248Q279 214 286 191.5Q293 169 302.5 155.5Q312 142 324.5 136.5Q337 131 352 131Q375 131 394 150.5Q413 170 425 205Q471 196 509 190Q547 184 573 179Q604 174 628 171Q593 76 526 26Q459 -24 349 -22Q298 -22 253 -6.5Q208 9 171.5 42Q135 75 109 125Q83 175 72 244Q57 243 44 243Q31 243 15 243V255Q15 263 15.5 276.5Q16 290 16 314Q21 313 28 313H66Q65 321 64 333Q63 345 65 368Q51 367 39 367Q27 367 13 367Z" glyph-name="Euro.captab" horiz-adv-x="650" /><glyph d="M19 354V411H84Q93 472 115 521Q137 570 171 604.5Q205 639 251 657.5Q297 676 353 676Q407 676 447.5 660Q488 644 517 617.5Q546 591 563.5 557.5Q581 524 590 489Q552 482 516 476Q480 470 453 465Q420 460 393 455Q389 488 376.5 508.5Q364 529 342 529Q316 529 301 503Q286 477 281 414L471 418Q470 411 470 400Q470 391 469.5 377.5Q469 364 470 346H424Q401 346 364.5 345.5Q328 345 279 345V333Q279 328 278.5 320.5Q278 313 279 305Q321 305 370 305.5Q419 306 479 308Q478 302 478 292Q478 284 478 270.5Q478 257 479 238H432Q408 238 370.5 237.5Q333 237 281 236Q286 168 300.5 143Q315 118 343 118Q362 118 375.5 135.5Q389 153 398 196Q440 186 476 178.5Q512 171 539 166Q570 160 596 155Q585 113 562 79Q539 45 507 21Q475 -3 435 -15.5Q395 -28 349 -27Q234 -27 167 40Q100 107 83 232L21 231V245Q21 253 21.5 267Q22 281 22 304Q28 303 37 303H78V314Q78 319 77.5 326Q77 333 78 341L19 340Z" glyph-name="Euro.tab" horiz-adv-x="615" /><glyph d="M58 2Q58 89 57 197Q56 290 54 416Q52 542 50 694Q117 694 193 695Q258 696 341 696.5Q424 697 515 699V655Q515 633 515.5 602Q516 571 517 531Q475 530 430 530Q391 529 343 529Q295 529 245 528V489Q245 469 245 439Q245 409 246 367Q259 367 276.5 367Q294 367 320 367Q346 367 382.5 367.5Q419 368 469 369V327Q469 306 469 275.5Q469 245 470 205Q443 206 409 206H248L252 3H114Q83 3 58 2Z" glyph-name="F" horiz-adv-x="544" unicode="F" /><glyph d="M352 -23Q282 -23 223.5 -1Q165 21 123 66.5Q81 112 58 182Q35 252 35 348Q35 434 56 502Q77 570 117 616.5Q157 663 216 687.5Q275 712 352 712Q416 712 466 695Q516 678 552 646.5Q588 615 610.5 570Q633 525 644 469Q617 468 585 464Q558 461 521.5 456.5Q485 452 443 447Q437 496 414 528.5Q391 561 349 561Q239 561 239 348Q239 287 248 244.5Q257 202 274.5 175Q292 148 316.5 135.5Q341 123 373 123Q417 123 444.5 148.5Q472 174 479 237Q459 239 420 241Q381 243 329 243Q330 257 330 277Q330 294 329.5 320.5Q329 347 328 383Q368 382 419 382Q463 381 522.5 381Q582 381 655 381Q672 178 591.5 77.5Q511 -23 352 -23Z" glyph-name="G" horiz-adv-x="696" unicode="G" /><glyph d="M352 -23Q282 -23 223.5 -1Q165 21 123 66.5Q81 112 58 182Q35 252 35 348Q35 434 56 502Q77 570 117 616.5Q157 663 216 687.5Q275 712 352 712Q416 712 466 695Q516 678 552 646.5Q588 615 610.5 570Q633 525 644 469Q617 468 585 464Q558 461 521.5 456.5Q485 452 443 447Q437 496 414 528.5Q391 561 349 561Q239 561 239 348Q239 287 248 244.5Q257 202 274.5 175Q292 148 316.5 135.5Q341 123 373 123Q417 123 444.5 148.5Q472 174 479 237Q459 239 420 241Q381 243 329 243Q330 257 330 277Q330 294 329.5 320.5Q329 347 328 383Q368 382 419 382Q463 381 522.5 381Q582 381 655 381Q672 178 591.5 77.5Q511 -23 352 -23ZM334 747Q249 747 206 788.5Q163 830 167 898Q179 898 196 899Q210 900 231.5 900.5Q253 901 280 903Q279 870 293.5 853Q308 836 335 836Q361 836 376.5 855.5Q392 875 387 913H415Q429 913 451 913Q473 913 503 914Q506 870 495 838.5Q484 807 461.5 787Q439 767 406 757Q373 747 334 747Z" glyph-name="Gbreve" horiz-adv-x="696" unicode="&#286;" /><glyph d="M352 -23Q282 -23 223.5 -1Q165 21 123 66.5Q81 112 58 182Q35 252 35 348Q35 434 56 502Q77 570 117 616.5Q157 663 216 687.5Q275 712 352 712Q416 712 466 695Q516 678 552 646.5Q588 615 610.5 570Q633 525 644 469Q617 468 585 464Q558 461 521.5 456.5Q485 452 443 447Q437 496 414 528.5Q391 561 349 561Q239 561 239 348Q239 287 248 244.5Q257 202 274.5 175Q292 148 316.5 135.5Q341 123 373 123Q417 123 444.5 148.5Q472 174 479 237Q459 239 420 241Q381 243 329 243Q330 257 330 277Q330 294 329.5 320.5Q329 347 328 383Q368 382 419 382Q463 381 522.5 381Q582 381 655 381Q672 178 591.5 77.5Q511 -23 352 -23ZM225 730Q219 736 209 747Q201 755 188 768.5Q175 782 158 799Q175 816 195 835Q212 852 236 874.5Q260 897 289 925Q296 924 308 924Q319 924 337.5 924Q356 924 385 926Q399 911 418 893Q435 877 459 855Q483 833 515 804Q509 798 499 787Q491 778 478 764.5Q465 751 448 731Q436 743 419 758Q405 771 383.5 789Q362 807 335 830Q322 818 305 803Q291 790 270.5 771.5Q250 753 225 730Z" glyph-name="Gcircumflex" horiz-adv-x="696" unicode="&#284;" /><glyph d="M352 -23Q282 -23 223.5 -1Q165 21 123 66.5Q81 112 58 182Q35 252 35 348Q35 434 56 502Q77 570 117 616.5Q157 663 216 687.5Q275 712 352 712Q416 712 466 695Q516 678 552 646.5Q588 615 610.5 570Q633 525 644 469Q617 468 585 464Q558 461 521.5 456.5Q485 452 443 447Q437 496 414 528.5Q391 561 349 561Q239 561 239 348Q239 287 248 244.5Q257 202 274.5 175Q292 148 316.5 135.5Q341 123 373 123Q417 123 444.5 148.5Q472 174 479 237Q459 239 420 241Q381 243 329 243Q330 257 330 277Q330 294 329.5 320.5Q329 347 328 383Q368 382 419 382Q463 381 522.5 381Q582 381 655 381Q672 178 591.5 77.5Q511 -23 352 -23ZM420 -118Q420 -139 410 -160.5Q400 -182 383 -202.5Q366 -223 343 -242.5Q320 -262 293 -278Q282 -266 274.5 -257.5Q267 -249 262 -244L253 -235Q275 -220 292 -201.5Q309 -183 318 -171Q295 -166 282 -149.5Q269 -133 269 -111Q269 -83 289.5 -64Q310 -45 345 -45Q380 -45 400 -65Q420 -85 420 -118Z" glyph-name="Gcommaaccent" horiz-adv-x="696" unicode="&#290;" /><glyph d="M401 209Q393 209 381.5 209Q370 209 352 209Q334 209 308 209Q282 209 246 208L249 17Q222 18 190 18Q163 18 127.5 17.5Q92 17 54 16V199Q54 287 53 408Q52 529 50 678H104Q130 678 164.5 678Q199 678 242 679V594Q242 553 242.5 496.5Q243 440 244 371Q258 371 296 370Q334 369 400 370L397 712H453Q479 712 514.5 712Q550 712 592 713V500Q592 400 592.5 267.5Q593 135 595 -19Q570 -19 539 -18Q513 -17 478 -17Q443 -17 401 -17Z" glyph-name="H" horiz-adv-x="645" unicode="H" /><glyph d="M401 209Q393 209 381.5 209Q370 209 352 209Q334 209 308 209Q282 209 246 208L249 17Q222 18 190 18Q163 18 127.5 17.5Q92 17 54 16V199Q54 287 53 408Q52 529 50 678H104Q130 678 164.5 678Q199 678 242 679V594Q242 553 242.5 496.5Q243 440 244 371Q258 371 296 370Q334 369 400 370L397 712H453Q479 712 514.5 712Q550 712 592 713V500Q592 400 592.5 267.5Q593 135 595 -19Q570 -19 539 -18Q513 -17 478 -17Q443 -17 401 -17ZM211 730Q205 736 195 747Q187 755 174 768.5Q161 782 144 799Q161 816 181 835Q198 852 222 874.5Q246 897 275 925Q282 924 294 924Q305 924 323.5 924Q342 924 371 926Q385 911 404 893Q421 877 445 855Q469 833 501 804Q495 798 485 787Q477 778 464 764.5Q451 751 434 731Q422 743 405 758Q391 771 369.5 789Q348 807 321 830Q308 818 291 803Q277 790 256.5 771.5Q236 753 211 730Z" glyph-name="Hcircumflex" horiz-adv-x="645" unicode="&#292;" /><glyph d="M64 201Q64 295 63 421Q62 547 60 694H111Q136 694 172 694Q208 694 256 695Q256 597 257 483Q258 386 258.5 261Q259 136 261 -1H204H64Z" glyph-name="I" horiz-adv-x="321" unicode="I" /><glyph d="M64 201Q64 295 63 421Q62 547 60 694H111Q136 694 172 694Q208 694 256 695Q256 597 257 483Q258 386 258.5 261Q259 136 261 -1H204H64ZM167 732Q145 748 129.5 758.5Q114 769 104 777Q92 785 84 791Q116 833 140 864Q164 895 180 916Q198 941 211 958Q236 939 255.5 925Q275 911 289 902Q305 891 316 883Q274 842 246.5 813.5Q219 785 201 767Q180 746 167 732Z" glyph-name="Iacute" horiz-adv-x="321" unicode="&#205;" /><glyph d="M64 201Q64 295 63 421Q62 547 60 694H111Q136 694 172 694Q208 694 256 695Q256 597 257 483Q258 386 258.5 261Q259 136 261 -1H204H64ZM49 730Q43 736 33 747Q25 755 12 768.5Q-1 782 -18 799Q-1 816 19 835Q36 852 60 874.5Q84 897 113 925Q120 924 132 924Q143 924 161.5 924Q180 924 209 926Q223 911 242 893Q259 877 283 855Q307 833 339 804Q333 798 323 787Q315 778 302 764.5Q289 751 272 731Q260 743 243 758Q229 771 207.5 789Q186 807 159 830Q146 818 129 803Q115 790 94.5 771.5Q74 753 49 730Z" glyph-name="Icircumflex" horiz-adv-x="321" unicode="&#206;" /><glyph d="M64 201Q64 295 63 421Q62 547 60 694H111Q136 694 172 694Q208 694 256 695Q256 597 257 483Q258 386 258.5 261Q259 136 261 -1H204H64ZM52 753Q10 753 -9 776Q-28 799 -28 829Q-28 861 -4.5 881Q19 901 53 901Q91 901 111.5 880.5Q132 860 132 828Q132 808 125.5 793.5Q119 779 107.5 770Q96 761 81.5 757Q67 753 52 753ZM271 755Q236 755 215 776Q194 797 194 832Q194 861 214.5 881.5Q235 902 273 902Q311 902 329.5 880.5Q348 859 348 829Q348 792 325.5 773.5Q303 755 271 755Z" glyph-name="Idieresis" horiz-adv-x="321" unicode="&#207;" /><glyph d="M64 201Q64 295 63 421Q62 547 60 694H111Q136 694 172 694Q208 694 256 695Q256 597 257 483Q258 386 258.5 261Q259 136 261 -1H204H64ZM160 750Q113 750 89.5 776.5Q66 803 66 838Q66 872 90.5 896.5Q115 921 160 921Q184 921 201.5 913.5Q219 906 231 894Q243 882 248.5 866.5Q254 851 254 836Q254 794 227.5 772Q201 750 160 750Z" glyph-name="Idotaccent" horiz-adv-x="321" unicode="&#304;" /><glyph d="M64 201Q64 295 63 421Q62 547 60 694H111Q136 694 172 694Q208 694 256 695Q256 597 257 483Q258 386 258.5 261Q259 136 261 -1H204H64ZM153 732Q139 746 119 767Q101 785 73.5 813.5Q46 842 5 883Q7 884 32.5 903Q58 922 107 961Q120 943 138 918Q154 897 178 866Q202 835 235 793Q225 786 213 777Q202 769 187 758Q172 747 153 732Z" glyph-name="Igrave" horiz-adv-x="321" unicode="&#204;" /><glyph d="M64 201Q64 295 63 421Q62 547 60 694H111Q136 694 172 694Q208 694 256 695Q256 597 257 483Q258 386 258.5 261Q259 136 261 -1H204H64ZM13 800Q13 813 13 832.5Q13 852 12 880Q37 879 78 879Q113 879 169 879.5Q225 880 309 882Q308 873 308 858Q307 845 307 825.5Q307 806 307 778H239Q204 778 148 778Q92 778 13 776Z" glyph-name="Imacron" horiz-adv-x="321" unicode="&#298;" /><glyph d="M228 -221Q204 -224 182 -224Q112 -224 72.5 -196Q33 -168 33 -119Q33 -85 54.5 -53.5Q76 -22 125 0L64 -1V201Q64 295 63 421Q62 547 60 694H111Q136 694 172 694Q208 694 256 695Q256 597 257 483Q258 386 258.5 261Q259 136 261 -1H247Q240 -1 231.5 -0.5Q223 0 213 0Q175 -17 158 -39.5Q141 -62 141 -81Q141 -105 166 -115Q191 -125 236 -123L233 -147Q231 -159 230 -177.5Q229 -196 228 -221Z" glyph-name="Iogonek" horiz-adv-x="321" unicode="&#302;" /><glyph d="M302 -12Q165 -12 98 60.5Q31 133 31 294Q31 308 31.5 323.5Q32 339 33 355Q56 354 86 352Q112 350 148.5 349Q185 348 232 347Q229 315 229 289Q229 250 234 223.5Q239 197 247.5 181.5Q256 166 268.5 159.5Q281 153 296 153Q311 153 322 160.5Q333 168 341 185.5Q349 203 353 233Q357 263 357 308Q357 393 355.5 464Q354 535 352 588Q350 650 348 700Q372 700 405 701Q432 702 471 703Q510 704 559 706Q558 665 557 608Q556 559 556 487.5Q556 416 556 322Q556 232 539 168.5Q522 105 489 65Q456 25 409 6.5Q362 -12 302 -12Z" glyph-name="J" horiz-adv-x="604" unicode="J" /><glyph d="M302 -12Q165 -12 98 60.5Q31 133 31 294Q31 308 31.5 323.5Q32 339 33 355Q56 354 86 352Q112 350 148.5 349Q185 348 232 347Q229 315 229 289Q229 250 234 223.5Q239 197 247.5 181.5Q256 166 268.5 159.5Q281 153 296 153Q311 153 322 160.5Q333 168 341 185.5Q349 203 353 233Q357 263 357 308Q357 393 355.5 464Q354 535 352 588Q350 650 348 700Q372 700 405 701Q432 702 471 703Q510 704 559 706Q558 665 557 608Q556 559 556 487.5Q556 416 556 322Q556 232 539 168.5Q522 105 489 65Q456 25 409 6.5Q362 -12 302 -12ZM337 730Q331 736 321 747Q313 755 300 768.5Q287 782 270 799Q287 816 307 835Q324 852 348 874.5Q372 897 401 925Q408 924 420 924Q431 924 449.5 924Q468 924 497 926Q511 911 530 893Q547 877 571 855Q595 833 627 804Q621 798 611 787Q603 778 590 764.5Q577 751 560 731Q548 743 531 758Q517 771 495.5 789Q474 807 447 830Q434 818 417 803Q403 790 382.5 771.5Q362 753 337 730Z" glyph-name="Jcircumflex" horiz-adv-x="604" unicode="&#308;" /><glyph d="M424 -24Q385 70 357.5 132.5Q330 195 313 235L242 124Q242 96 242.5 75.5Q243 55 243 41Q243 24 244 12H102Q72 12 50 11V496V682Q92 681 127.5 681Q163 681 189 681H243Q242 584 241.5 505Q241 426 241 356Q286 443 320 509.5Q354 576 377 621L423 713Q475 710 515 708Q555 706 582 705Q614 704 637 704Q568 586 522 503Q476 420 454 378Q494 287 527.5 215Q561 143 585 92Q613 32 636 -14Q532 -17 479 -20Q447 -22 424 -24Z" glyph-name="K" horiz-adv-x="652" unicode="K" /><glyph d="M424 -24Q385 70 357.5 132.5Q330 195 313 235L242 124Q242 96 242.5 75.5Q243 55 243 41Q243 24 244 12H102Q72 12 50 11V496V682Q92 681 127.5 681Q163 681 189 681H243Q242 584 241.5 505Q241 426 241 356Q286 443 320 509.5Q354 576 377 621L423 713Q475 710 515 708Q555 706 582 705Q614 704 637 704Q568 586 522 503Q476 420 454 378Q494 287 527.5 215Q561 143 585 92Q613 32 636 -14Q532 -17 479 -20Q447 -22 424 -24ZM405 -118Q405 -139 395 -160.5Q385 -182 368 -202.5Q351 -223 328 -242.5Q305 -262 278 -278Q267 -266 259.5 -257.5Q252 -249 247 -244L238 -235Q260 -220 277 -201.5Q294 -183 303 -171Q280 -166 267 -149.5Q254 -133 254 -111Q254 -83 274.5 -64Q295 -45 330 -45Q365 -45 385 -65Q405 -85 405 -118Z" glyph-name="Kcommaaccent" horiz-adv-x="652" unicode="&#310;" /><glyph d="M56 3Q56 102 55 215Q54 312 53 434.5Q52 557 50 689Q69 688 97 688Q121 688 157 688Q193 688 244 689V583Q244 524 245 424.5Q246 325 248 172Q369 169 436 169H503Q502 130 502 99Q502 68 502 45V-1Q413 1 333 1Q253 1 191 2Q119 2 56 3Z" glyph-name="L" horiz-adv-x="523" unicode="L" /><glyph d="M56 3Q56 102 55 215Q54 312 53 434.5Q52 557 50 689Q69 688 97 688Q121 688 157 688Q193 688 244 689V583Q244 524 245 424.5Q246 325 248 172Q369 169 436 169H503Q502 130 502 99Q502 68 502 45V-1Q413 1 333 1Q253 1 191 2Q119 2 56 3ZM181 732Q159 748 143.5 758.5Q128 769 118 777Q106 785 98 791Q130 833 154 864Q178 895 194 916Q212 941 225 958Q250 939 269.5 925Q289 911 303 902Q319 891 330 883Q288 842 260.5 813.5Q233 785 215 767Q194 746 181 732Z" glyph-name="Lacute" horiz-adv-x="523" unicode="&#313;" /><glyph d="M56 3Q56 102 55 215Q54 312 53 434.5Q52 557 50 689Q69 688 97 688Q121 688 157 688Q193 688 244 689V583Q244 524 245 424.5Q246 325 248 172Q369 169 436 169H503Q502 130 502 99Q502 68 502 45V-1Q413 1 333 1Q253 1 191 2Q119 2 56 3ZM472 676Q472 655 462 633.5Q452 612 435 591.5Q418 571 395 551.5Q372 532 345 516Q334 528 326.5 536.5Q319 545 314 550L305 559Q327 574 344 592.5Q361 611 370 623Q347 628 334 644.5Q321 661 321 683Q321 711 341.5 730Q362 749 397 749Q432 749 452 729Q472 709 472 676Z" glyph-name="Lcaron" horiz-adv-x="523" unicode="&#317;" /><glyph d="M56 3Q56 102 55 215Q54 312 53 434.5Q52 557 50 689Q69 688 97 688Q121 688 157 688Q193 688 244 689V583Q244 524 245 424.5Q246 325 248 172Q369 169 436 169H503Q502 130 502 99Q502 68 502 45V-1Q413 1 333 1Q253 1 191 2Q119 2 56 3ZM360 -118Q360 -139 350 -160.5Q340 -182 323 -202.5Q306 -223 283 -242.5Q260 -262 233 -278Q222 -266 214.5 -257.5Q207 -249 202 -244L193 -235Q215 -220 232 -201.5Q249 -183 258 -171Q235 -166 222 -149.5Q209 -133 209 -111Q209 -83 229.5 -64Q250 -45 285 -45Q320 -45 340 -65Q360 -85 360 -118Z" glyph-name="Lcommaaccent" horiz-adv-x="523" unicode="&#315;" /><glyph d="M15 256Q16 271 17 293Q18 330 17 410Q24 411 34 414Q42 416 53.5 418.5Q65 421 81 425L78 689Q97 688 125 688Q149 688 185 688Q221 688 272 689V639Q272 613 271.5 572Q271 531 272 472L370 498Q369 484 369 463Q369 445 369 418Q369 391 371 353Q360 350 345 346Q319 340 273 328L276 167Q397 164 463 164H529Q528 125 528 94.5Q528 64 528 43V-1Q439 1 358.5 1Q278 1 217 2Q145 2 84 3Q83 37 83 79Q83 115 82.5 165Q82 215 82 275L15 256Z" glyph-name="Lslash" horiz-adv-x="549" unicode="&#321;" /><glyph d="M45 16Q50 100 55 204Q60 293 64 413.5Q68 534 73 677H160Q199 677 248.5 677.5Q298 678 350 680Q366 620 385 548Q402 486 424.5 403Q447 320 476 223Q484 254 497 303.5Q510 353 525 416Q540 479 557.5 554.5Q575 630 592 714Q633 713 680 712Q720 711 770 709.5Q820 708 874 706Q877 620 881 509Q885 414 891.5 282Q898 150 907 -14L710 -20V152Q710 233 709 340Q708 447 705 573Q693 531 675.5 466Q658 401 638 327Q618 253 599 176Q580 99 565 34H507Q481 34 446.5 33.5Q412 33 375 31Q359 90 336 168Q316 235 288 332Q260 429 223 554Q223 515 223 456.5Q223 398 223 326.5Q223 255 223.5 174.5Q224 94 226 13Q200 13 171 14Q146 15 113 15Q80 15 45 16Z" glyph-name="M" horiz-adv-x="952" unicode="M" /><glyph d="M53 17Q54 93 54 192Q54 277 53 398Q52 519 50 672Q81 674 116 676Q145 678 182.5 679Q220 680 258 681Q283 619 315 548Q342 487 378.5 406.5Q415 326 460 235Q458 292 452 416Q446 540 437 713Q460 712 487 712H611Q611 629 613 520Q615 426 617.5 294Q620 162 625 -6Q599 -8 567 -10Q540 -12 504 -14.5Q468 -17 428 -19Q400 42 367 115Q338 178 298.5 260Q259 342 211 436L228 15Q205 15 178 16Q155 16 122.5 16.5Q90 17 53 17Z" glyph-name="N" horiz-adv-x="675" unicode="N" /><glyph glyph-name="NULL" horiz-adv-x="0" /><glyph d="M53 17Q54 93 54 192Q54 277 53 398Q52 519 50 672Q81 674 116 676Q145 678 182.5 679Q220 680 258 681Q283 619 315 548Q342 487 378.5 406.5Q415 326 460 235Q458 292 452 416Q446 540 437 713Q460 712 487 712H611Q611 629 613 520Q615 426 617.5 294Q620 162 625 -6Q599 -8 567 -10Q540 -12 504 -14.5Q468 -17 428 -19Q400 42 367 115Q338 178 298.5 260Q259 342 211 436L228 15Q205 15 178 16Q155 16 122.5 16.5Q90 17 53 17ZM344 732Q322 748 306.5 758.5Q291 769 281 777Q269 785 261 791Q293 833 317 864Q341 895 357 916Q375 941 388 958Q413 939 432.5 925Q452 911 466 902Q482 891 493 883Q451 842 423.5 813.5Q396 785 378 767Q357 746 344 732Z" glyph-name="Nacute" horiz-adv-x="675" unicode="&#323;" /><glyph d="M53 17Q54 93 54 192Q54 277 53 398Q52 519 50 672Q81 674 116 676Q145 678 182.5 679Q220 680 258 681Q283 619 315 548Q342 487 378.5 406.5Q415 326 460 235Q458 292 452 416Q446 540 437 713Q460 712 487 712H611Q611 629 613 520Q615 426 617.5 294Q620 162 625 -6Q599 -8 567 -10Q540 -12 504 -14.5Q468 -17 428 -19Q400 42 367 115Q338 178 298.5 260Q259 342 211 436L228 15Q205 15 178 16Q155 16 122.5 16.5Q90 17 53 17ZM226 938Q251 915 271.5 896.5Q292 878 306 865Q323 850 336 838Q363 861 384.5 879Q406 897 420 910Q437 925 449 937Q466 917 479 903.5Q492 890 500 881Q510 870 516 864Q484 835 460 812.5Q436 790 419 774Q400 756 386 742Q357 744 338.5 744Q320 744 309 744Q297 744 290 743Q261 770 237 793Q213 816 196 833Q176 852 159 869Q176 886 189 899Q202 912 210 921Q220 931 226 938Z" glyph-name="Ncaron" horiz-adv-x="675" unicode="&#327;" /><glyph d="M53 17Q54 93 54 192Q54 277 53 398Q52 519 50 672Q81 674 116 676Q145 678 182.5 679Q220 680 258 681Q283 619 315 548Q342 487 378.5 406.5Q415 326 460 235Q458 292 452 416Q446 540 437 713Q460 712 487 712H611Q611 629 613 520Q615 426 617.5 294Q620 162 625 -6Q599 -8 567 -10Q540 -12 504 -14.5Q468 -17 428 -19Q400 42 367 115Q338 178 298.5 260Q259 342 211 436L228 15Q205 15 178 16Q155 16 122.5 16.5Q90 17 53 17ZM421 -118Q421 -139 411 -160.5Q401 -182 384 -202.5Q367 -223 344 -242.5Q321 -262 294 -278Q283 -266 275.5 -257.5Q268 -249 263 -244L254 -235Q276 -220 293 -201.5Q310 -183 319 -171Q296 -166 283 -149.5Q270 -133 270 -111Q270 -83 290.5 -64Q311 -45 346 -45Q381 -45 401 -65Q421 -85 421 -118Z" glyph-name="Ncommaaccent" horiz-adv-x="675" unicode="&#325;" /><glyph d="M53 17Q54 93 54 192Q54 277 53 398Q52 519 50 672Q81 674 116 676Q145 678 182.5 679Q220 680 258 681Q283 619 315 548Q342 487 378.5 406.5Q415 326 460 235Q458 292 452 416Q446 540 437 713Q460 712 487 712H611Q611 629 613 520Q615 426 617.5 294Q620 162 625 -6Q599 -8 567 -10Q540 -12 504 -14.5Q468 -17 428 -19Q400 42 367 115Q338 178 298.5 260Q259 342 211 436L228 15Q205 15 178 16Q155 16 122.5 16.5Q90 17 53 17ZM225 748Q202 748 154 745Q151 781 157 811.5Q163 842 176.5 864.5Q190 887 211 900Q232 913 261 913Q285 913 304.5 904Q324 895 340.5 883.5Q357 872 371.5 863Q386 854 400 854Q415 854 423 867Q431 880 428 908Q437 908 449 909Q460 910 476.5 911.5Q493 913 517 915Q528 834 503.5 790.5Q479 747 422 747Q396 747 376 755.5Q356 764 339 774.5Q322 785 307.5 793.5Q293 802 280 802Q263 802 254.5 787Q246 772 248 748Z" glyph-name="Ntilde" horiz-adv-x="675" unicode="&#209;" /><glyph d="M352 -19Q202 -18 119.5 74Q37 166 36 343Q35 427 56 495Q77 563 117.5 611Q158 659 217.5 684.5Q277 710 352 710Q431 710 490.5 685Q550 660 589.5 612.5Q629 565 649 497Q669 429 669 344Q669 249 645.5 180.5Q622 112 580 67.5Q538 23 480 2Q422 -19 352 -19ZM353 131Q377 131 396 142Q415 153 429 178Q443 203 450.5 244Q458 285 458 345Q458 459 430.5 509Q403 559 352 559Q301 559 273.5 508Q246 457 246 344Q245 233 272.5 182Q300 131 353 131Z" glyph-name="O" horiz-adv-x="704" unicode="O" /><glyph d="M881 269Q849 269 812 270Q780 271 738.5 271Q697 271 650 271L653 160Q687 158 730 157Q767 155 819 154.5Q871 154 934 154Q933 134 932 108Q931 86 931 57Q931 28 931 -7Q880 -5 810 -2Q691 2 458 7Q432 -8 398.5 -17.5Q365 -27 330 -27Q255 -27 200 0Q145 27 108 76Q71 125 53 193Q35 261 35 343Q35 427 55.5 496.5Q76 566 114 615Q152 664 206.5 691Q261 718 329 718Q405 718 461 683Q508 684 621.5 687Q735 690 927 698Q926 677 927 651Q927 629 928 600Q929 571 931 539H848Q810 539 759 538Q708 537 651 535Q650 520 650 502Q649 486 649 463Q649 440 649 411Q679 411 737 411Q795 411 880 413V372Q880 352 880 326Q880 300 881 269ZM353 123Q407 123 432 177.5Q457 232 457 347Q457 459 432 513Q407 567 350 567Q296 567 270.5 512Q245 457 245 345Q245 123 353 123Z" glyph-name="OE" horiz-adv-x="969" unicode="&#338;" /><glyph d="M352 -19Q202 -18 119.5 74Q37 166 36 343Q35 427 56 495Q77 563 117.5 611Q158 659 217.5 684.5Q277 710 352 710Q431 710 490.5 685Q550 660 589.5 612.5Q629 565 649 497Q669 429 669 344Q669 249 645.5 180.5Q622 112 580 67.5Q538 23 480 2Q422 -19 352 -19ZM353 131Q377 131 396 142Q415 153 429 178Q443 203 450.5 244Q458 285 458 345Q458 459 430.5 509Q403 559 352 559Q301 559 273.5 508Q246 457 246 344Q245 233 272.5 182Q300 131 353 131ZM359 732Q337 748 321.5 758.5Q306 769 296 777Q284 785 276 791Q308 833 332 864Q356 895 372 916Q390 941 403 958Q428 939 447.5 925Q467 911 481 902Q497 891 508 883Q466 842 438.5 813.5Q411 785 393 767Q372 746 359 732Z" glyph-name="Oacute" horiz-adv-x="704" unicode="&#211;" /><glyph d="M352 -19Q202 -18 119.5 74Q37 166 36 343Q35 427 56 495Q77 563 117.5 611Q158 659 217.5 684.5Q277 710 352 710Q431 710 490.5 685Q550 660 589.5 612.5Q629 565 649 497Q669 429 669 344Q669 249 645.5 180.5Q622 112 580 67.5Q538 23 480 2Q422 -19 352 -19ZM353 131Q377 131 396 142Q415 153 429 178Q443 203 450.5 244Q458 285 458 345Q458 459 430.5 509Q403 559 352 559Q301 559 273.5 508Q246 457 246 344Q245 233 272.5 182Q300 131 353 131ZM241 730Q235 736 225 747Q217 755 204 768.5Q191 782 174 799Q191 816 211 835Q228 852 252 874.5Q276 897 305 925Q312 924 324 924Q335 924 353.5 924Q372 924 401 926Q415 911 434 893Q451 877 475 855Q499 833 531 804Q525 798 515 787Q507 778 494 764.5Q481 751 464 731Q452 743 435 758Q421 771 399.5 789Q378 807 351 830Q338 818 321 803Q307 790 286.5 771.5Q266 753 241 730Z" glyph-name="Ocircumflex" horiz-adv-x="704" unicode="&#212;" /><glyph d="M352 -19Q202 -18 119.5 74Q37 166 36 343Q35 427 56 495Q77 563 117.5 611Q158 659 217.5 684.5Q277 710 352 710Q431 710 490.5 685Q550 660 589.5 612.5Q629 565 649 497Q669 429 669 344Q669 249 645.5 180.5Q622 112 580 67.5Q538 23 480 2Q422 -19 352 -19ZM353 131Q377 131 396 142Q415 153 429 178Q443 203 450.5 244Q458 285 458 345Q458 459 430.5 509Q403 559 352 559Q301 559 273.5 508Q246 457 246 344Q245 233 272.5 182Q300 131 353 131ZM244 753Q202 753 183 776Q164 799 164 829Q164 861 187.5 881Q211 901 245 901Q283 901 303.5 880.5Q324 860 324 828Q324 808 317.5 793.5Q311 779 299.5 770Q288 761 273.5 757Q259 753 244 753ZM463 755Q428 755 407 776Q386 797 386 832Q386 861 406.5 881.5Q427 902 465 902Q503 902 521.5 880.5Q540 859 540 829Q540 792 517.5 773.5Q495 755 463 755Z" glyph-name="Odieresis" horiz-adv-x="704" unicode="&#214;" /><glyph d="M352 -19Q202 -18 119.5 74Q37 166 36 343Q35 427 56 495Q77 563 117.5 611Q158 659 217.5 684.5Q277 710 352 710Q431 710 490.5 685Q550 660 589.5 612.5Q629 565 649 497Q669 429 669 344Q669 249 645.5 180.5Q622 112 580 67.5Q538 23 480 2Q422 -19 352 -19ZM353 131Q377 131 396 142Q415 153 429 178Q443 203 450.5 244Q458 285 458 345Q458 459 430.5 509Q403 559 352 559Q301 559 273.5 508Q246 457 246 344Q245 233 272.5 182Q300 131 353 131ZM345 732Q331 746 311 767Q293 785 265.5 813.5Q238 842 197 883Q199 884 224.5 903Q250 922 299 961Q312 943 330 918Q346 897 370 866Q394 835 427 793Q417 786 405 777Q394 769 379 758Q364 747 345 732Z" glyph-name="Ograve" horiz-adv-x="704" unicode="&#210;" /><glyph d="M352 -19Q202 -18 119.5 74Q37 166 36 343Q35 427 56 495Q77 563 117.5 611Q158 659 217.5 684.5Q277 710 352 710Q431 710 490.5 685Q550 660 589.5 612.5Q629 565 649 497Q669 429 669 344Q669 249 645.5 180.5Q622 112 580 67.5Q538 23 480 2Q422 -19 352 -19ZM353 131Q377 131 396 142Q415 153 429 178Q443 203 450.5 244Q458 285 458 345Q458 459 430.5 509Q403 559 352 559Q301 559 273.5 508Q246 457 246 344Q245 233 272.5 182Q300 131 353 131ZM450 734Q427 747 411.5 756.5Q396 766 385 771L365 781Q394 824 415.5 856.5Q437 889 451 911Q468 937 479 955Q505 939 525 928.5Q545 918 558 911Q573 903 584 898Q547 853 522 822.5Q497 792 481 772Q463 749 450 734ZM265 740Q242 753 226.5 762Q211 771 200 776Q188 782 180 785Q208 830 228.5 862.5Q249 895 263 917Q279 943 290 961Q316 946 335 935Q354 924 368 917Q384 908 395 903Q359 858 334.5 828Q310 798 294 778Q276 755 265 740Z" glyph-name="Ohungarumlaut" horiz-adv-x="704" unicode="&#336;" /><glyph d="M352 -19Q202 -18 119.5 74Q37 166 36 343Q35 427 56 495Q77 563 117.5 611Q158 659 217.5 684.5Q277 710 352 710Q431 710 490.5 685Q550 660 589.5 612.5Q629 565 649 497Q669 429 669 344Q669 249 645.5 180.5Q622 112 580 67.5Q538 23 480 2Q422 -19 352 -19ZM353 131Q377 131 396 142Q415 153 429 178Q443 203 450.5 244Q458 285 458 345Q458 459 430.5 509Q403 559 352 559Q301 559 273.5 508Q246 457 246 344Q245 233 272.5 182Q300 131 353 131ZM205 800Q205 813 205 832.5Q205 852 204 880Q229 879 270 879Q305 879 361 879.5Q417 880 501 882Q500 873 500 858Q499 845 499 825.5Q499 806 499 778H431Q396 778 340 778Q284 778 205 776Z" glyph-name="Omacron" horiz-adv-x="704" unicode="&#332;" /><glyph d="M217 -132Q198 -120 173 -107Q152 -96 122.5 -80.5Q93 -65 58 -48Q68 -37 79 -22Q89 -9 103 9.5Q117 28 135 53Q84 101 58 174.5Q32 248 32 345Q32 519 115.5 612Q199 705 348 705Q399 705 440 695Q448 714 458.5 741Q469 768 483 807Q502 797 528 784Q550 773 581 757.5Q612 742 652 725Q642 714 631 698Q621 684 607 665Q593 646 576 622Q666 532 666 346Q666 259 646 190.5Q626 122 586 74.5Q546 27 486 1.5Q426 -24 347 -24Q307 -24 269 -16Q260 -36 247 -64Q234 -92 217 -132ZM347 128Q372 128 392 140Q412 152 426 178.5Q440 205 447 247.5Q454 290 454 351Q454 451 428 503.5Q402 556 348 556Q292 556 266.5 503.5Q241 451 241 345Q241 233 268.5 180.5Q296 128 347 128Z" glyph-name="Oslash" horiz-adv-x="703" unicode="&#216;" /><glyph d="M352 -19Q202 -18 119.5 74Q37 166 36 343Q35 427 56 495Q77 563 117.5 611Q158 659 217.5 684.5Q277 710 352 710Q431 710 490.5 685Q550 660 589.5 612.5Q629 565 649 497Q669 429 669 344Q669 249 645.5 180.5Q622 112 580 67.5Q538 23 480 2Q422 -19 352 -19ZM353 131Q377 131 396 142Q415 153 429 178Q443 203 450.5 244Q458 285 458 345Q458 459 430.5 509Q403 559 352 559Q301 559 273.5 508Q246 457 246 344Q245 233 272.5 182Q300 131 353 131ZM240 748Q217 748 169 745Q166 781 172 811.5Q178 842 191.5 864.5Q205 887 226 900Q247 913 276 913Q300 913 319.5 904Q339 895 355.5 883.5Q372 872 386.5 863Q401 854 415 854Q430 854 438 867Q446 880 443 908Q452 908 464 909Q475 910 491.5 911.5Q508 913 532 915Q543 834 518.5 790.5Q494 747 437 747Q411 747 391 755.5Q371 764 354 774.5Q337 785 322.5 793.5Q308 802 295 802Q278 802 269.5 787Q261 772 263 748Z" glyph-name="Otilde" horiz-adv-x="704" unicode="&#213;" /><glyph d="M50 4Q51 81 52 184Q53 272 53 397Q53 522 52 680Q100 687 144 690Q188 693 229 693Q311 693 377.5 678Q444 663 491 632.5Q538 602 563.5 554.5Q589 507 589 443Q589 373 565.5 322Q542 271 497.5 238Q453 205 389.5 190Q326 175 245 177L249 5H184Q155 5 119.5 5Q84 5 50 4ZM242 542Q242 523 242 503Q242 483 242 457Q242 431 242 398Q242 365 243 321Q317 319 357.5 347Q398 375 398 441Q398 488 367.5 516Q337 544 276 544Q268 544 259.5 543.5Q251 543 242 542Z" glyph-name="P" horiz-adv-x="609" unicode="P" /><glyph d="M398 669Q473 669 536.5 643.5Q600 618 645.5 571.5Q691 525 716.5 459.5Q742 394 742 314Q742 231 713 168.5Q684 106 634.5 63Q585 20 519.5 -1.5Q454 -23 381 -23Q304 -23 240.5 2Q177 27 131 72Q85 117 60 180Q35 243 35 319Q35 397 60 461.5Q85 526 132 572Q179 618 246 643.5Q313 669 398 669ZM392 611Q318 611 263 587Q208 563 171.5 522.5Q135 482 117 430Q99 378 99 321Q99 260 119 208Q139 156 176 117.5Q213 79 265.5 57.5Q318 36 384 36Q441 36 494.5 53.5Q548 71 588.5 106.5Q629 142 653.5 195.5Q678 249 678 322Q678 384 657.5 437Q637 490 599.5 528.5Q562 567 509 589Q456 611 392 611ZM231 134Q232 167 232 219Q232 264 232 332.5Q232 401 231 500Q269 505 302 507.5Q335 510 364 510Q479 510 533.5 473Q588 436 588 370Q588 334 571 306.5Q554 279 524.5 261Q495 243 455 234Q415 225 368 227Q368 206 368.5 184.5Q369 163 370 135H321Q300 135 275.5 135Q251 135 231 134ZM366 397Q366 385 365.5 363.5Q365 342 366 308Q414 309 434.5 323.5Q455 338 455 366Q455 388 435 403.5Q415 419 366 418Z" glyph-name="Pcircle" horiz-adv-x="777" unicode="&#9439;" /><glyph d="M408 709Q490 709 555.5 683.5Q621 658 667 609.5Q713 561 737.5 491.5Q762 422 762 334Q762 249 735.5 182.5Q709 116 660.5 70.5Q612 25 543.5 1Q475 -23 391 -23Q312 -23 246.5 1Q181 25 134 71Q87 117 61 184.5Q35 252 35 339Q35 419 58.5 487Q82 555 128.5 604.5Q175 654 245 681.5Q315 709 408 709ZM402 651Q325 651 268.5 628Q212 605 174 564Q136 523 117.5 466Q99 409 99 341Q99 270 118 213.5Q137 157 174.5 117.5Q212 78 267 57Q322 36 394 36Q467 36 524 57.5Q581 79 619.5 118.5Q658 158 678 214.5Q698 271 698 342Q698 419 677 477Q656 535 617 573.5Q578 612 523.5 631.5Q469 651 402 651ZM241 139Q242 183 242 244Q242 296 242 371Q242 446 241 545Q280 550 312 552.5Q344 555 373 555Q434 555 477 543.5Q520 532 547 511.5Q574 491 586 462Q598 433 598 398Q598 361 582 332Q566 303 537 283Q508 263 467.5 253Q427 243 377 244L380 140H331Q310 140 285.5 140Q261 140 241 139ZM376 431Q376 415 375.5 390.5Q375 366 376 330Q421 331 443 346.5Q465 362 465 397Q465 426 444.5 444Q424 462 376 460Z" glyph-name="Pcircle.cap" horiz-adv-x="797" /><glyph d="M495 -169Q469 -116 448 -77Q427 -38 413 -13Q397 -15 381.5 -16.5Q366 -18 349 -18Q280 -18 222 4.5Q164 27 122.5 71.5Q81 116 58 183Q35 250 35 339Q35 432 58 501.5Q81 571 123 617Q165 663 223 685.5Q281 708 350 708Q512 708 590 615.5Q668 523 668 334Q668 236 640 167.5Q612 99 564 56Q586 32 605 11Q624 -10 639 -25Q656 -43 671 -58Q626 -85 593 -106Q560 -127 538 -141Q512 -158 495 -169ZM352 128Q375 128 394.5 138Q414 148 428 172Q442 196 450 236.5Q458 277 458 339Q458 459 430.5 509Q403 559 351 559Q297 559 271 505.5Q245 452 245 339Q245 226 273.5 177Q302 128 352 128Z" glyph-name="Q" horiz-adv-x="703" unicode="Q" /><glyph d="M434 -26Q420 4 402 44Q386 78 363 126.5Q340 175 311 235Q294 233 276 233Q258 233 238 233L242 9Q212 10 179 10Q151 10 117 9.5Q83 9 50 8Q50 86 51 189Q51 277 51.5 402Q52 527 51 686Q109 698 161.5 704Q214 710 261 711Q429 713 518 649Q607 585 607 468Q607 393 575 345.5Q543 298 484 272Q503 234 538 167Q573 100 628 0Q605 -3 575 -7Q549 -11 514 -16Q479 -21 434 -26ZM238 368Q247 367 258 366.5Q269 366 279 366Q342 366 378.5 388.5Q415 411 415 462Q415 504 386.5 532.5Q358 561 292 561Q275 561 262 559.5Q249 558 235 556Z" glyph-name="R" horiz-adv-x="635" unicode="R" /><glyph d="M434 -26Q420 4 402 44Q386 78 363 126.5Q340 175 311 235Q294 233 276 233Q258 233 238 233L242 9Q212 10 179 10Q151 10 117 9.5Q83 9 50 8Q50 86 51 189Q51 277 51.5 402Q52 527 51 686Q109 698 161.5 704Q214 710 261 711Q429 713 518 649Q607 585 607 468Q607 393 575 345.5Q543 298 484 272Q503 234 538 167Q573 100 628 0Q605 -3 575 -7Q549 -11 514 -16Q479 -21 434 -26ZM238 368Q247 367 258 366.5Q269 366 279 366Q342 366 378.5 388.5Q415 411 415 462Q415 504 386.5 532.5Q358 561 292 561Q275 561 262 559.5Q249 558 235 556ZM313 732Q291 748 275.5 758.5Q260 769 250 777Q238 785 230 791Q262 833 286 864Q310 895 326 916Q344 941 357 958Q382 939 401.5 925Q421 911 435 902Q451 891 462 883Q420 842 392.5 813.5Q365 785 347 767Q326 746 313 732Z" glyph-name="Racute" horiz-adv-x="635" unicode="&#340;" /><glyph d="M434 -26Q420 4 402 44Q386 78 363 126.5Q340 175 311 235Q294 233 276 233Q258 233 238 233L242 9Q212 10 179 10Q151 10 117 9.5Q83 9 50 8Q50 86 51 189Q51 277 51.5 402Q52 527 51 686Q109 698 161.5 704Q214 710 261 711Q429 713 518 649Q607 585 607 468Q607 393 575 345.5Q543 298 484 272Q503 234 538 167Q573 100 628 0Q605 -3 575 -7Q549 -11 514 -16Q479 -21 434 -26ZM238 368Q247 367 258 366.5Q269 366 279 366Q342 366 378.5 388.5Q415 411 415 462Q415 504 386.5 532.5Q358 561 292 561Q275 561 262 559.5Q249 558 235 556ZM195 938Q220 915 240.5 896.5Q261 878 275 865Q292 850 305 838Q332 861 353.5 879Q375 897 389 910Q406 925 418 937Q435 917 448 903.5Q461 890 469 881Q479 870 485 864Q453 835 429 812.5Q405 790 388 774Q369 756 355 742Q326 744 307.5 744Q289 744 278 744Q266 744 259 743Q230 770 206 793Q182 816 165 833Q145 852 128 869Q145 886 158 899Q171 912 179 921Q189 931 195 938Z" glyph-name="Rcaron" horiz-adv-x="635" unicode="&#344;" /><glyph d="M434 -26Q420 4 402 44Q386 78 363 126.5Q340 175 311 235Q294 233 276 233Q258 233 238 233L242 9Q212 10 179 10Q151 10 117 9.5Q83 9 50 8Q50 86 51 189Q51 277 51.5 402Q52 527 51 686Q109 698 161.5 704Q214 710 261 711Q429 713 518 649Q607 585 607 468Q607 393 575 345.5Q543 298 484 272Q503 234 538 167Q573 100 628 0Q605 -3 575 -7Q549 -11 514 -16Q479 -21 434 -26ZM238 368Q247 367 258 366.5Q269 366 279 366Q342 366 378.5 388.5Q415 411 415 462Q415 504 386.5 532.5Q358 561 292 561Q275 561 262 559.5Q249 558 235 556ZM390 -118Q390 -139 380 -160.5Q370 -182 353 -202.5Q336 -223 313 -242.5Q290 -262 263 -278Q252 -266 244.5 -257.5Q237 -249 232 -244L223 -235Q245 -220 262 -201.5Q279 -183 288 -171Q265 -166 252 -149.5Q239 -133 239 -111Q239 -83 259.5 -64Q280 -45 315 -45Q350 -45 370 -65Q390 -85 390 -118Z" glyph-name="Rcommaaccent" horiz-adv-x="635" unicode="&#342;" /><glyph d="M315 -19Q255 -19 203.5 -4.5Q152 10 113 40Q74 70 49.5 116.5Q25 163 18 227Q41 227 73 229Q100 231 139 234Q178 237 230 243Q231 183 254.5 152Q278 121 324 121Q357 121 378 135.5Q399 150 399 181Q399 196 393 208.5Q387 221 371 232.5Q355 244 327 255.5Q299 267 254 279Q196 295 156 315.5Q116 336 91 363Q66 390 54.5 423.5Q43 457 43 498Q43 546 62.5 586Q82 626 117.5 654Q153 682 203.5 697.5Q254 713 316 713Q446 713 520 649Q594 585 604 464Q578 463 546 462Q519 461 483.5 459Q448 457 407 454Q411 510 388.5 541Q366 572 321 572Q286 572 266.5 554.5Q247 537 247 511Q247 493 253.5 478.5Q260 464 277 452Q294 440 323 429Q352 418 397 406Q461 389 502 368.5Q543 348 566.5 322.5Q590 297 599 266.5Q608 236 608 200Q608 93 531 37Q454 -19 315 -19Z" glyph-name="S" horiz-adv-x="640" unicode="S" /><glyph d="M315 -19Q255 -19 203.5 -4.5Q152 10 113 40Q74 70 49.5 116.5Q25 163 18 227Q41 227 73 229Q100 231 139 234Q178 237 230 243Q231 183 254.5 152Q278 121 324 121Q357 121 378 135.5Q399 150 399 181Q399 196 393 208.5Q387 221 371 232.5Q355 244 327 255.5Q299 267 254 279Q196 295 156 315.5Q116 336 91 363Q66 390 54.5 423.5Q43 457 43 498Q43 546 62.5 586Q82 626 117.5 654Q153 682 203.5 697.5Q254 713 316 713Q446 713 520 649Q594 585 604 464Q578 463 546 462Q519 461 483.5 459Q448 457 407 454Q411 510 388.5 541Q366 572 321 572Q286 572 266.5 554.5Q247 537 247 511Q247 493 253.5 478.5Q260 464 277 452Q294 440 323 429Q352 418 397 406Q461 389 502 368.5Q543 348 566.5 322.5Q590 297 599 266.5Q608 236 608 200Q608 93 531 37Q454 -19 315 -19ZM320 732Q298 748 282.5 758.5Q267 769 257 777Q245 785 237 791Q269 833 293 864Q317 895 333 916Q351 941 364 958Q389 939 408.5 925Q428 911 442 902Q458 891 469 883Q427 842 399.5 813.5Q372 785 354 767Q333 746 320 732Z" glyph-name="Sacute" horiz-adv-x="640" unicode="&#346;" /><glyph d="M315 -19Q255 -19 203.5 -4.5Q152 10 113 40Q74 70 49.5 116.5Q25 163 18 227Q41 227 73 229Q100 231 139 234Q178 237 230 243Q231 183 254.5 152Q278 121 324 121Q357 121 378 135.5Q399 150 399 181Q399 196 393 208.5Q387 221 371 232.5Q355 244 327 255.5Q299 267 254 279Q196 295 156 315.5Q116 336 91 363Q66 390 54.5 423.5Q43 457 43 498Q43 546 62.5 586Q82 626 117.5 654Q153 682 203.5 697.5Q254 713 316 713Q446 713 520 649Q594 585 604 464Q578 463 546 462Q519 461 483.5 459Q448 457 407 454Q411 510 388.5 541Q366 572 321 572Q286 572 266.5 554.5Q247 537 247 511Q247 493 253.5 478.5Q260 464 277 452Q294 440 323 429Q352 418 397 406Q461 389 502 368.5Q543 348 566.5 322.5Q590 297 599 266.5Q608 236 608 200Q608 93 531 37Q454 -19 315 -19ZM202 938Q227 915 247.5 896.5Q268 878 282 865Q299 850 312 838Q339 861 360.5 879Q382 897 396 910Q413 925 425 937Q442 917 455 903.5Q468 890 476 881Q486 870 492 864Q460 835 436 812.5Q412 790 395 774Q376 756 362 742Q333 744 314.5 744Q296 744 285 744Q273 744 266 743Q237 770 213 793Q189 816 172 833Q152 852 135 869Q152 886 165 899Q178 912 186 921Q196 931 202 938Z" glyph-name="Scaron" horiz-adv-x="640" unicode="&#352;" /><glyph d="M608 200Q608 101 542 46Q476 -9 357 -17Q356 -32 357 -58Q416 -59 445 -80.5Q474 -102 474 -137Q474 -179 433 -205Q392 -231 314 -231Q290 -231 261.5 -226Q233 -221 208 -210Q210 -202 212 -191Q214 -182 216 -169.5Q218 -157 220 -142Q263 -162 304 -162Q326 -162 338.5 -155Q351 -148 351 -133Q351 -118 329 -109Q307 -100 256 -104Q258 -94 261 -81Q263 -70 266 -53.5Q269 -37 273 -17Q221 -12 177 4.5Q133 21 100 51Q67 81 45.5 124.5Q24 168 18 227Q41 227 73 229Q100 231 139 234Q178 237 230 243Q231 183 254.5 152Q278 121 324 121Q357 121 378 135.5Q399 150 399 181Q399 196 393 208.5Q387 221 371 232.5Q355 244 327 255.5Q299 267 254 279Q196 295 156 315.5Q116 336 91 363Q66 390 54.5 423.5Q43 457 43 498Q43 546 62.5 586Q82 626 117.5 654Q153 682 203.5 697.5Q254 713 316 713Q446 713 520 649Q594 585 604 464Q578 463 546 462Q519 461 483.5 459Q448 457 407 454Q411 510 388.5 541Q366 572 321 572Q286 572 266.5 554.5Q247 537 247 511Q247 493 253.5 478.5Q260 464 277 452Q294 440 323 429Q352 418 397 406Q461 389 502 368.5Q543 348 566.5 322.5Q590 297 599 266.5Q608 236 608 200Z" glyph-name="Scedilla" horiz-adv-x="640" unicode="&#350;" /><glyph d="M315 -19Q255 -19 203.5 -4.5Q152 10 113 40Q74 70 49.5 116.5Q25 163 18 227Q41 227 73 229Q100 231 139 234Q178 237 230 243Q231 183 254.5 152Q278 121 324 121Q357 121 378 135.5Q399 150 399 181Q399 196 393 208.5Q387 221 371 232.5Q355 244 327 255.5Q299 267 254 279Q196 295 156 315.5Q116 336 91 363Q66 390 54.5 423.5Q43 457 43 498Q43 546 62.5 586Q82 626 117.5 654Q153 682 203.5 697.5Q254 713 316 713Q446 713 520 649Q594 585 604 464Q578 463 546 462Q519 461 483.5 459Q448 457 407 454Q411 510 388.5 541Q366 572 321 572Q286 572 266.5 554.5Q247 537 247 511Q247 493 253.5 478.5Q260 464 277 452Q294 440 323 429Q352 418 397 406Q461 389 502 368.5Q543 348 566.5 322.5Q590 297 599 266.5Q608 236 608 200Q608 93 531 37Q454 -19 315 -19ZM202 730Q196 736 186 747Q178 755 165 768.5Q152 782 135 799Q152 816 172 835Q189 852 213 874.5Q237 897 266 925Q273 924 285 924Q296 924 314.5 924Q333 924 362 926Q376 911 395 893Q412 877 436 855Q460 833 492 804Q486 798 476 787Q468 778 455 764.5Q442 751 425 731Q413 743 396 758Q382 771 360.5 789Q339 807 312 830Q299 818 282 803Q268 790 247.5 771.5Q227 753 202 730Z" glyph-name="Scircumflex" horiz-adv-x="640" unicode="&#348;" /><glyph d="M315 -19Q255 -19 203.5 -4.5Q152 10 113 40Q74 70 49.5 116.5Q25 163 18 227Q41 227 73 229Q100 231 139 234Q178 237 230 243Q231 183 254.5 152Q278 121 324 121Q357 121 378 135.5Q399 150 399 181Q399 196 393 208.5Q387 221 371 232.5Q355 244 327 255.5Q299 267 254 279Q196 295 156 315.5Q116 336 91 363Q66 390 54.5 423.5Q43 457 43 498Q43 546 62.5 586Q82 626 117.5 654Q153 682 203.5 697.5Q254 713 316 713Q446 713 520 649Q594 585 604 464Q578 463 546 462Q519 461 483.5 459Q448 457 407 454Q411 510 388.5 541Q366 572 321 572Q286 572 266.5 554.5Q247 537 247 511Q247 493 253.5 478.5Q260 464 277 452Q294 440 323 429Q352 418 397 406Q461 389 502 368.5Q543 348 566.5 322.5Q590 297 599 266.5Q608 236 608 200Q608 93 531 37Q454 -19 315 -19ZM397 -118Q397 -139 387 -160.5Q377 -182 360 -202.5Q343 -223 320 -242.5Q297 -262 270 -278Q259 -266 251.5 -257.5Q244 -249 239 -244L230 -235Q252 -220 269 -201.5Q286 -183 295 -171Q272 -166 259 -149.5Q246 -133 246 -111Q246 -83 266.5 -64Q287 -45 322 -45Q357 -45 377 -65Q397 -85 397 -118Z" glyph-name="Scommaaccent" horiz-adv-x="640" unicode="&#536;" /><glyph d="M27 571Q27 593 26.5 624.5Q26 656 25 696H208Q247 696 291 696Q335 696 379.5 696Q424 696 468 696.5Q512 697 553 697Q553 673 552 646Q551 623 550.5 592Q550 561 551 526L387 527Q387 485 387 433Q387 381 387.5 316Q388 251 389 172Q390 93 391 -4H334Q308 -4 272 -4.5Q236 -5 194 -5V139Q194 208 193.5 306Q193 404 192 527L27 526Z" glyph-name="T" horiz-adv-x="578" unicode="T" /><glyph d="M27 571Q27 593 26.5 624.5Q26 656 25 696H208Q247 696 291 696Q335 696 379.5 696Q424 696 468 696.5Q512 697 553 697Q553 673 552 646Q551 623 550.5 592Q550 561 551 526L387 527Q387 485 387 433Q387 381 387.5 316Q388 251 389 172Q390 93 391 -4H334Q308 -4 272 -4.5Q236 -5 194 -5V139Q194 208 193.5 306Q193 404 192 527L27 526ZM178 938Q203 915 223.5 896.5Q244 878 258 865Q275 850 288 838Q315 861 336.5 879Q358 897 372 910Q389 925 401 937Q418 917 431 903.5Q444 890 452 881Q462 870 468 864Q436 835 412 812.5Q388 790 371 774Q352 756 338 742Q309 744 290.5 744Q272 744 261 744Q249 744 242 743Q213 770 189 793Q165 816 148 833Q128 852 111 869Q128 886 141 899Q154 912 162 921Q172 931 178 938Z" glyph-name="Tcaron" horiz-adv-x="578" unicode="&#356;" /><glyph d="M27 571Q27 593 26.5 624.5Q26 656 25 696H208Q247 696 291 696Q335 696 379.5 696Q424 696 468 696.5Q512 697 553 697Q553 673 552 646Q551 623 550.5 592Q550 561 551 526L387 527Q387 485 387 433Q387 381 387.5 316Q388 251 389 172Q390 93 391 -4H334Q308 -4 272 -4.5Q236 -5 194 -5V139Q194 208 193.5 306Q193 404 192 527L27 526ZM373 -118Q373 -139 363 -160.5Q353 -182 336 -202.5Q319 -223 296 -242.5Q273 -262 246 -278Q235 -266 227.5 -257.5Q220 -249 215 -244L206 -235Q228 -220 245 -201.5Q262 -183 271 -171Q248 -166 235 -149.5Q222 -133 222 -111Q222 -83 242.5 -64Q263 -45 298 -45Q333 -45 353 -65Q373 -85 373 -118Z" glyph-name="Tcommaaccent" horiz-adv-x="578" unicode="&#354;" /><glyph d="M50 -1Q51 85 52 193Q53 286 53.5 415Q54 544 52 702Q76 701 105 700Q130 699 164.5 699Q199 699 242 699Q241 683 241 665V593Q332 597 398 579.5Q464 562 507 529Q550 496 571 449.5Q592 403 592 351Q592 286 567 237.5Q542 189 497 157.5Q452 126 388 111.5Q324 97 246 100L249 0Q224 1 193 1Q167 1 130.5 1Q94 1 50 -1ZM241 454Q241 402 241.5 348Q242 294 243 229Q319 224 360 254.5Q401 285 401 349Q401 405 359.5 432Q318 459 241 454Z" glyph-name="Thorn" horiz-adv-x="617" unicode="&#222;" /><glyph d="M335 -14Q259 -14 204.5 7Q150 28 114.5 73Q79 118 62.5 189Q46 260 46 361Q46 430 45.5 486.5Q45 543 45 585V671Q66 669 96 667Q122 665 158.5 663.5Q195 662 244 661Q243 620 243 578Q242 542 242 499.5Q242 457 242 420Q242 341 247 289Q252 237 262.5 206.5Q273 176 289 163.5Q305 151 327 151Q348 151 364.5 160Q381 169 392.5 195Q404 221 409.5 268Q415 315 415 390Q415 444 413.5 498Q412 552 410 597Q408 649 406 697Q430 696 462 696Q489 696 528 696.5Q567 697 616 699Q615 650 615 595V369Q615 267 597.5 194Q580 121 544.5 75Q509 29 456.5 7.5Q404 -14 335 -14Z" glyph-name="U" horiz-adv-x="661" unicode="U" /><glyph d="M335 -14Q259 -14 204.5 7Q150 28 114.5 73Q79 118 62.5 189Q46 260 46 361Q46 430 45.5 486.5Q45 543 45 585V671Q66 669 96 667Q122 665 158.5 663.5Q195 662 244 661Q243 620 243 578Q242 542 242 499.5Q242 457 242 420Q242 341 247 289Q252 237 262.5 206.5Q273 176 289 163.5Q305 151 327 151Q348 151 364.5 160Q381 169 392.5 195Q404 221 409.5 268Q415 315 415 390Q415 444 413.5 498Q412 552 410 597Q408 649 406 697Q430 696 462 696Q489 696 528 696.5Q567 697 616 699Q615 650 615 595V369Q615 267 597.5 194Q580 121 544.5 75Q509 29 456.5 7.5Q404 -14 335 -14ZM337 732Q315 748 299.5 758.5Q284 769 274 777Q262 785 254 791Q286 833 310 864Q334 895 350 916Q368 941 381 958Q406 939 425.5 925Q445 911 459 902Q475 891 486 883Q444 842 416.5 813.5Q389 785 371 767Q350 746 337 732Z" glyph-name="Uacute" horiz-adv-x="661" unicode="&#218;" /><glyph d="M335 -14Q259 -14 204.5 7Q150 28 114.5 73Q79 118 62.5 189Q46 260 46 361Q46 430 45.5 486.5Q45 543 45 585V671Q66 669 96 667Q122 665 158.5 663.5Q195 662 244 661Q243 620 243 578Q242 542 242 499.5Q242 457 242 420Q242 341 247 289Q252 237 262.5 206.5Q273 176 289 163.5Q305 151 327 151Q348 151 364.5 160Q381 169 392.5 195Q404 221 409.5 268Q415 315 415 390Q415 444 413.5 498Q412 552 410 597Q408 649 406 697Q430 696 462 696Q489 696 528 696.5Q567 697 616 699Q615 650 615 595V369Q615 267 597.5 194Q580 121 544.5 75Q509 29 456.5 7.5Q404 -14 335 -14ZM328 747Q243 747 200 788.5Q157 830 161 898Q173 898 190 899Q204 900 225.5 900.5Q247 901 274 903Q273 870 287.5 853Q302 836 329 836Q355 836 370.5 855.5Q386 875 381 913H409Q423 913 445 913Q467 913 497 914Q500 870 489 838.5Q478 807 455.5 787Q433 767 400 757Q367 747 328 747Z" glyph-name="Ubreve" horiz-adv-x="661" unicode="&#364;" /><glyph d="M335 -14Q259 -14 204.5 7Q150 28 114.5 73Q79 118 62.5 189Q46 260 46 361Q46 430 45.5 486.5Q45 543 45 585V671Q66 669 96 667Q122 665 158.5 663.5Q195 662 244 661Q243 620 243 578Q242 542 242 499.5Q242 457 242 420Q242 341 247 289Q252 237 262.5 206.5Q273 176 289 163.5Q305 151 327 151Q348 151 364.5 160Q381 169 392.5 195Q404 221 409.5 268Q415 315 415 390Q415 444 413.5 498Q412 552 410 597Q408 649 406 697Q430 696 462 696Q489 696 528 696.5Q567 697 616 699Q615 650 615 595V369Q615 267 597.5 194Q580 121 544.5 75Q509 29 456.5 7.5Q404 -14 335 -14ZM219 730Q213 736 203 747Q195 755 182 768.5Q169 782 152 799Q169 816 189 835Q206 852 230 874.5Q254 897 283 925Q290 924 302 924Q313 924 331.5 924Q350 924 379 926Q393 911 412 893Q429 877 453 855Q477 833 509 804Q503 798 493 787Q485 778 472 764.5Q459 751 442 731Q430 743 413 758Q399 771 377.5 789Q356 807 329 830Q316 818 299 803Q285 790 264.5 771.5Q244 753 219 730Z" glyph-name="Ucircumflex" horiz-adv-x="661" unicode="&#219;" /><glyph d="M335 -14Q259 -14 204.5 7Q150 28 114.5 73Q79 118 62.5 189Q46 260 46 361Q46 430 45.5 486.5Q45 543 45 585V671Q66 669 96 667Q122 665 158.5 663.5Q195 662 244 661Q243 620 243 578Q242 542 242 499.5Q242 457 242 420Q242 341 247 289Q252 237 262.5 206.5Q273 176 289 163.5Q305 151 327 151Q348 151 364.5 160Q381 169 392.5 195Q404 221 409.5 268Q415 315 415 390Q415 444 413.5 498Q412 552 410 597Q408 649 406 697Q430 696 462 696Q489 696 528 696.5Q567 697 616 699Q615 650 615 595V369Q615 267 597.5 194Q580 121 544.5 75Q509 29 456.5 7.5Q404 -14 335 -14ZM222 753Q180 753 161 776Q142 799 142 829Q142 861 165.5 881Q189 901 223 901Q261 901 281.5 880.5Q302 860 302 828Q302 808 295.5 793.5Q289 779 277.5 770Q266 761 251.5 757Q237 753 222 753ZM441 755Q406 755 385 776Q364 797 364 832Q364 861 384.5 881.5Q405 902 443 902Q481 902 499.5 880.5Q518 859 518 829Q518 792 495.5 773.5Q473 755 441 755Z" glyph-name="Udieresis" horiz-adv-x="661" unicode="&#220;" /><glyph d="M335 -14Q259 -14 204.5 7Q150 28 114.5 73Q79 118 62.5 189Q46 260 46 361Q46 430 45.5 486.5Q45 543 45 585V671Q66 669 96 667Q122 665 158.5 663.5Q195 662 244 661Q243 620 243 578Q242 542 242 499.5Q242 457 242 420Q242 341 247 289Q252 237 262.5 206.5Q273 176 289 163.5Q305 151 327 151Q348 151 364.5 160Q381 169 392.5 195Q404 221 409.5 268Q415 315 415 390Q415 444 413.5 498Q412 552 410 597Q408 649 406 697Q430 696 462 696Q489 696 528 696.5Q567 697 616 699Q615 650 615 595V369Q615 267 597.5 194Q580 121 544.5 75Q509 29 456.5 7.5Q404 -14 335 -14ZM323 732Q309 746 289 767Q271 785 243.5 813.5Q216 842 175 883Q177 884 202.5 903Q228 922 277 961Q290 943 308 918Q324 897 348 866Q372 835 405 793Q395 786 383 777Q372 769 357 758Q342 747 323 732Z" glyph-name="Ugrave" horiz-adv-x="661" unicode="&#217;" /><glyph d="M335 -14Q259 -14 204.5 7Q150 28 114.5 73Q79 118 62.5 189Q46 260 46 361Q46 430 45.5 486.5Q45 543 45 585V671Q66 669 96 667Q122 665 158.5 663.5Q195 662 244 661Q243 620 243 578Q242 542 242 499.5Q242 457 242 420Q242 341 247 289Q252 237 262.5 206.5Q273 176 289 163.5Q305 151 327 151Q348 151 364.5 160Q381 169 392.5 195Q404 221 409.5 268Q415 315 415 390Q415 444 413.5 498Q412 552 410 597Q408 649 406 697Q430 696 462 696Q489 696 528 696.5Q567 697 616 699Q615 650 615 595V369Q615 267 597.5 194Q580 121 544.5 75Q509 29 456.5 7.5Q404 -14 335 -14ZM428 734Q405 747 389.5 756.5Q374 766 363 771L343 781Q372 824 393.5 856.5Q415 889 429 911Q446 937 457 955Q483 939 503 928.5Q523 918 536 911Q551 903 562 898Q525 853 500 822.5Q475 792 459 772Q441 749 428 734ZM243 740Q220 753 204.5 762Q189 771 178 776Q166 782 158 785Q186 830 206.5 862.5Q227 895 241 917Q257 943 268 961Q294 946 313 935Q332 924 346 917Q362 908 373 903Q337 858 312.5 828Q288 798 272 778Q254 755 243 740Z" glyph-name="Uhungarumlaut" horiz-adv-x="661" unicode="&#368;" /><glyph d="M335 -14Q259 -14 204.5 7Q150 28 114.5 73Q79 118 62.5 189Q46 260 46 361Q46 430 45.5 486.5Q45 543 45 585V671Q66 669 96 667Q122 665 158.5 663.5Q195 662 244 661Q243 620 243 578Q242 542 242 499.5Q242 457 242 420Q242 341 247 289Q252 237 262.5 206.5Q273 176 289 163.5Q305 151 327 151Q348 151 364.5 160Q381 169 392.5 195Q404 221 409.5 268Q415 315 415 390Q415 444 413.5 498Q412 552 410 597Q408 649 406 697Q430 696 462 696Q489 696 528 696.5Q567 697 616 699Q615 650 615 595V369Q615 267 597.5 194Q580 121 544.5 75Q509 29 456.5 7.5Q404 -14 335 -14ZM183 800Q183 813 183 832.5Q183 852 182 880Q207 879 248 879Q283 879 339 879.5Q395 880 479 882Q478 873 478 858Q477 845 477 825.5Q477 806 477 778H409Q374 778 318 778Q262 778 183 776Z" glyph-name="Umacron" horiz-adv-x="661" unicode="&#362;" /><glyph d="M392 -229Q368 -232 346 -232Q276 -232 236.5 -204Q197 -176 197 -127Q197 -94 217.5 -63.5Q238 -33 283 -11Q221 -5 176 19.5Q131 44 102 89.5Q73 135 59.5 202Q46 269 46 361Q46 430 45.5 486.5Q45 543 45 585V671Q66 669 96 667Q122 665 158.5 663.5Q195 662 244 661Q243 620 243 578Q242 542 242 499.5Q242 457 242 420Q242 341 247 289Q252 237 262.5 206.5Q273 176 289 163.5Q305 151 327 151Q348 151 364.5 160Q381 169 392.5 195Q404 221 409.5 268Q415 315 415 390Q415 444 413.5 498Q412 552 410 597Q408 649 406 697Q430 696 462 696Q489 696 528 696.5Q567 697 616 699Q615 650 615 595V369Q615 273 599.5 203.5Q584 134 553 87.5Q522 41 476 17Q430 -7 369 -12Q335 -29 320 -50.5Q305 -72 305 -89Q305 -113 330 -123Q355 -133 400 -131L397 -155Q395 -167 394 -185.5Q393 -204 392 -229Z" glyph-name="Uogonek" horiz-adv-x="661" unicode="&#370;" /><glyph d="M335 -14Q259 -14 204.5 7Q150 28 114.5 73Q79 118 62.5 189Q46 260 46 361Q46 430 45.5 486.5Q45 543 45 585V671Q66 669 96 667Q122 665 158.5 663.5Q195 662 244 661Q243 620 243 578Q242 542 242 499.5Q242 457 242 420Q242 341 247 289Q252 237 262.5 206.5Q273 176 289 163.5Q305 151 327 151Q348 151 364.5 160Q381 169 392.5 195Q404 221 409.5 268Q415 315 415 390Q415 444 413.5 498Q412 552 410 597Q408 649 406 697Q430 696 462 696Q489 696 528 696.5Q567 697 616 699Q615 650 615 595V369Q615 267 597.5 194Q580 121 544.5 75Q509 29 456.5 7.5Q404 -14 335 -14ZM329 740Q268 740 232.5 769.5Q197 799 197 853Q197 904 234.5 934Q272 964 329 964Q362 964 387.5 955Q413 946 429.5 930.5Q446 915 454.5 895Q463 875 463 853Q463 795 425 767.5Q387 740 329 740ZM332 797Q356 797 371.5 813Q387 829 387 853Q387 874 372.5 892Q358 910 332 910Q307 910 291 895Q275 880 275 854Q275 831 290 814Q305 797 332 797Z" glyph-name="Uring" horiz-adv-x="661" unicode="&#366;" /><glyph d="M174 -15Q141 137 112.5 262.5Q84 388 62 481Q36 588 15 676Q61 676 99 676Q137 676 164 677Q196 677 220 678Q234 587 249 502Q264 417 277.5 344.5Q291 272 302.5 215Q314 158 322 123Q348 257 367.5 363.5Q387 470 401 545Q417 633 429 700Q475 699 511 699Q547 699 573 699Q603 699 625 700Q587 527 557 394Q527 261 506 169Q481 61 463 -19Q422 -20 374 -19Q333 -19 281.5 -18Q230 -17 174 -15Z" glyph-name="V" horiz-adv-x="640" unicode="V" /><glyph d="M552 -16Q526 185 505 320Q484 455 471 530Q446 405 428 308.5Q410 212 398 143Q384 63 373 3Q295 6 242.5 7.5Q190 9 157 11Q118 12 95 13Q79 176 65.5 302Q52 428 42 516Q30 618 20 695Q58 695 90.5 695.5Q123 696 149 697Q178 698 204 698Q210 605 216 521Q222 437 228 365.5Q234 294 239 236.5Q244 179 248 138Q280 288 300 390.5Q320 493 333 557Q347 632 356 676Q418 675 461.5 675Q505 675 533 675Q566 675 586 674Q621 469 647.5 327.5Q674 186 688 115Q704 296 713.5 411.5Q723 527 728 594Q734 671 737 711Q791 709 825.5 708Q860 707 880 707H916Q893 506 877.5 370Q862 234 853 150Q842 51 837 -6Q768 -10 715 -11.5Q662 -13 626 -14Q583 -15 552 -16Z" glyph-name="W" horiz-adv-x="936" unicode="W" /><glyph d="M241 -3Q180 -1 137 0Q94 1 67 2Q35 3 15 3Q79 125 121 209.5Q163 294 184 337Q166 382 128 471.5Q90 561 33 691Q102 692 155.5 694Q209 696 246 698Q256 670 269 631Q280 598 297.5 549Q315 500 338 436Q364 504 382.5 556Q401 608 413 643Q427 684 436 714Q495 711 535.5 710Q576 709 602 708Q632 707 650 707Q591 573 552.5 484Q514 395 494 348Q578 162 621 76Q646 25 664 -9Q596 -11 553 -12Q510 -13 484 -15Q454 -17 439 -18Q407 72 381.5 140Q356 208 340 250Q317 196 299 149.5Q281 103 268 69Q253 29 241 -3Z" glyph-name="X" horiz-adv-x="679" unicode="X" /><glyph d="M217 -12Q217 -1 216.5 20Q216 41 216 68.5Q216 96 215 129.5Q214 163 212 198Q194 241 164 310Q138 369 98 460.5Q58 552 0 683Q17 683 47 684Q73 685 114 686.5Q155 688 215 691Q223 663 236 620Q258 547 313 389Q324 418 339 464Q352 502 371.5 562Q391 622 417 707Q435 706 464 705Q489 704 529 704Q569 704 626 704Q602 651 570 576Q542 512 502.5 418Q463 324 410 199Q409 177 409 146Q409 92 412 -10Q395 -11 368 -11Q345 -11 308 -11.5Q271 -12 217 -12Z" glyph-name="Y" horiz-adv-x="653" unicode="Y" /><glyph d="M217 -12Q217 -1 216.5 20Q216 41 216 68.5Q216 96 215 129.5Q214 163 212 198Q194 241 164 310Q138 369 98 460.5Q58 552 0 683Q17 683 47 684Q73 685 114 686.5Q155 688 215 691Q223 663 236 620Q258 547 313 389Q324 418 339 464Q352 502 371.5 562Q391 622 417 707Q435 706 464 705Q489 704 529 704Q569 704 626 704Q602 651 570 576Q542 512 502.5 418Q463 324 410 199Q409 177 409 146Q409 92 412 -10Q395 -11 368 -11Q345 -11 308 -11.5Q271 -12 217 -12ZM320 732Q298 748 282.5 758.5Q267 769 257 777Q245 785 237 791Q269 833 293 864Q317 895 333 916Q351 941 364 958Q389 939 408.5 925Q428 911 442 902Q458 891 469 883Q427 842 399.5 813.5Q372 785 354 767Q333 746 320 732Z" glyph-name="Yacute" horiz-adv-x="653" unicode="&#221;" /><glyph d="M217 -12Q217 -1 216.5 20Q216 41 216 68.5Q216 96 215 129.5Q214 163 212 198Q194 241 164 310Q138 369 98 460.5Q58 552 0 683Q17 683 47 684Q73 685 114 686.5Q155 688 215 691Q223 663 236 620Q258 547 313 389Q324 418 339 464Q352 502 371.5 562Q391 622 417 707Q435 706 464 705Q489 704 529 704Q569 704 626 704Q602 651 570 576Q542 512 502.5 418Q463 324 410 199Q409 177 409 146Q409 92 412 -10Q395 -11 368 -11Q345 -11 308 -11.5Q271 -12 217 -12ZM205 753Q163 753 144 776Q125 799 125 829Q125 861 148.5 881Q172 901 206 901Q244 901 264.5 880.5Q285 860 285 828Q285 808 278.5 793.5Q272 779 260.5 770Q249 761 234.5 757Q220 753 205 753ZM424 755Q389 755 368 776Q347 797 347 832Q347 861 367.5 881.5Q388 902 426 902Q464 902 482.5 880.5Q501 859 501 829Q501 792 478.5 773.5Q456 755 424 755Z" glyph-name="Ydieresis" horiz-adv-x="653" unicode="&#376;" /><glyph d="M538 -3Q424 -1 332 0Q240 1 174 2Q97 3 35 3Q35 42 35.5 72Q36 102 36 122V162Q130 286 198.5 376.5Q267 467 311 525Q248 524 199 523Q150 522 115 521Q75 520 43 519Q42 566 42 599Q42 632 42 653V694Q157 694 247.5 695Q338 696 402 697Q476 698 533 699Q534 660 535 629Q536 598 536 575V528Q442 408 373.5 318Q305 228 260 168Q320 166 371 166Q422 166 460 166Q504 166 540 167Q538 117 538 85Q538 53 538 33V-3Z" glyph-name="Z" horiz-adv-x="575" unicode="Z" /><glyph d="M538 -3Q424 -1 332 0Q240 1 174 2Q97 3 35 3Q35 42 35.5 72Q36 102 36 122V162Q130 286 198.5 376.5Q267 467 311 525Q248 524 199 523Q150 522 115 521Q75 520 43 519Q42 566 42 599Q42 632 42 653V694Q157 694 247.5 695Q338 696 402 697Q476 698 533 699Q534 660 535 629Q536 598 536 575V528Q442 408 373.5 318Q305 228 260 168Q320 166 371 166Q422 166 460 166Q504 166 540 167Q538 117 538 85Q538 53 538 33ZM294 732Q272 748 256.5 758.5Q241 769 231 777Q219 785 211 791Q243 833 267 864Q291 895 307 916Q325 941 338 958Q363 939 382.5 925Q402 911 416 902Q432 891 443 883Q401 842 373.5 813.5Q346 785 328 767Q307 746 294 732Z" glyph-name="Zacute" horiz-adv-x="575" unicode="&#377;" /><glyph d="M538 -3Q424 -1 332 0Q240 1 174 2Q97 3 35 3Q35 42 35.5 72Q36 102 36 122V162Q130 286 198.5 376.5Q267 467 311 525Q248 524 199 523Q150 522 115 521Q75 520 43 519Q42 566 42 599Q42 632 42 653V694Q157 694 247.5 695Q338 696 402 697Q476 698 533 699Q534 660 535 629Q536 598 536 575V528Q442 408 373.5 318Q305 228 260 168Q320 166 371 166Q422 166 460 166Q504 166 540 167Q538 117 538 85Q538 53 538 33ZM176 938Q201 915 221.5 896.5Q242 878 256 865Q273 850 286 838Q313 861 334.5 879Q356 897 370 910Q387 925 399 937Q416 917 429 903.5Q442 890 450 881Q460 870 466 864Q434 835 410 812.5Q386 790 369 774Q350 756 336 742Q307 744 288.5 744Q270 744 259 744Q247 744 240 743Q211 770 187 793Q163 816 146 833Q126 852 109 869Q126 886 139 899Q152 912 160 921Q170 931 176 938Z" glyph-name="Zcaron" horiz-adv-x="575" unicode="&#381;" /><glyph d="M538 -3Q424 -1 332 0Q240 1 174 2Q97 3 35 3Q35 42 35.5 72Q36 102 36 122V162Q130 286 198.5 376.5Q267 467 311 525Q248 524 199 523Q150 522 115 521Q75 520 43 519Q42 566 42 599Q42 632 42 653V694Q157 694 247.5 695Q338 696 402 697Q476 698 533 699Q534 660 535 629Q536 598 536 575V528Q442 408 373.5 318Q305 228 260 168Q320 166 371 166Q422 166 460 166Q504 166 540 167Q538 117 538 85Q538 53 538 33ZM287 750Q240 750 216.5 776.5Q193 803 193 838Q193 872 217.5 896.5Q242 921 287 921Q311 921 328.5 913.5Q346 906 358 894Q370 882 375.5 866.5Q381 851 381 836Q381 794 354.5 772Q328 750 287 750Z" glyph-name="Zdotaccent" horiz-adv-x="575" unicode="&#379;" /><glyph d="M206 -17Q167 -17 134 -7Q101 3 77 21.5Q53 40 39 67Q25 94 25 128Q25 174 44 207.5Q63 241 101 264Q139 287 197.5 300.5Q256 314 334 319Q331 364 316.5 383Q302 402 274 402Q248 402 232 385.5Q216 369 211 335Q188 341 161 346Q138 351 107.5 356.5Q77 362 43 367Q72 444 130 481.5Q188 519 281 519Q345 519 390.5 504Q436 489 465 460Q494 431 507.5 389Q521 347 523 292Q525 233 525 178Q525 123 525 80Q525 30 524 -14H482Q462 -14 433 -14.5Q404 -15 369 -16Q370 -6 371 7Q372 18 372 34Q372 50 373 70Q350 23 304 3Q258 -17 206 -17ZM342 230Q212 221 212 155Q212 99 267 97Q282 97 296 102.5Q310 108 320 121.5Q330 135 336 157.5Q342 180 342 215Z" glyph-name="a" horiz-adv-x="566" unicode="a" /><glyph d="M206 -17Q167 -17 134 -7Q101 3 77 21.5Q53 40 39 67Q25 94 25 128Q25 174 44 207.5Q63 241 101 264Q139 287 197.5 300.5Q256 314 334 319Q331 364 316.5 383Q302 402 274 402Q248 402 232 385.5Q216 369 211 335Q188 341 161 346Q138 351 107.5 356.5Q77 362 43 367Q72 444 130 481.5Q188 519 281 519Q345 519 390.5 504Q436 489 465 460Q494 431 507.5 389Q521 347 523 292Q525 233 525 178Q525 123 525 80Q525 30 524 -14H482Q462 -14 433 -14.5Q404 -15 369 -16Q370 -6 371 7Q372 18 372 34Q372 50 373 70Q350 23 304 3Q258 -17 206 -17ZM342 230Q212 221 212 155Q212 99 267 97Q282 97 296 102.5Q310 108 320 121.5Q330 135 336 157.5Q342 180 342 215ZM292 537Q270 553 254.5 563.5Q239 574 229 582Q217 590 209 596Q241 638 265 669Q289 700 305 721Q323 746 336 763Q361 744 380.5 730Q400 716 414 707Q430 696 441 688Q399 647 371.5 618.5Q344 590 326 572Q305 551 292 537Z" glyph-name="aacute" horiz-adv-x="566" unicode="&#225;" /><glyph d="M206 -17Q167 -17 134 -7Q101 3 77 21.5Q53 40 39 67Q25 94 25 128Q25 174 44 207.5Q63 241 101 264Q139 287 197.5 300.5Q256 314 334 319Q331 364 316.5 383Q302 402 274 402Q248 402 232 385.5Q216 369 211 335Q188 341 161 346Q138 351 107.5 356.5Q77 362 43 367Q72 444 130 481.5Q188 519 281 519Q345 519 390.5 504Q436 489 465 460Q494 431 507.5 389Q521 347 523 292Q525 233 525 178Q525 123 525 80Q525 30 524 -14H482Q462 -14 433 -14.5Q404 -15 369 -16Q370 -6 371 7Q372 18 372 34Q372 50 373 70Q350 23 304 3Q258 -17 206 -17ZM342 230Q212 221 212 155Q212 99 267 97Q282 97 296 102.5Q310 108 320 121.5Q330 135 336 157.5Q342 180 342 215ZM284 552Q199 552 156 593.5Q113 635 117 703Q129 703 146 704Q160 705 181.5 705.5Q203 706 230 708Q229 675 243.5 658Q258 641 285 641Q311 641 326.5 660.5Q342 680 337 718H365Q379 718 401 718Q423 718 453 719Q456 675 445 643.5Q434 612 411.5 592Q389 572 356 562Q323 552 284 552Z" glyph-name="abreve" horiz-adv-x="566" unicode="&#259;" /><glyph d="M206 -17Q167 -17 134 -7Q101 3 77 21.5Q53 40 39 67Q25 94 25 128Q25 174 44 207.5Q63 241 101 264Q139 287 197.5 300.5Q256 314 334 319Q331 364 316.5 383Q302 402 274 402Q248 402 232 385.5Q216 369 211 335Q188 341 161 346Q138 351 107.5 356.5Q77 362 43 367Q72 444 130 481.5Q188 519 281 519Q345 519 390.5 504Q436 489 465 460Q494 431 507.5 389Q521 347 523 292Q525 233 525 178Q525 123 525 80Q525 30 524 -14H482Q462 -14 433 -14.5Q404 -15 369 -16Q370 -6 371 7Q372 18 372 34Q372 50 373 70Q350 23 304 3Q258 -17 206 -17ZM342 230Q212 221 212 155Q212 99 267 97Q282 97 296 102.5Q310 108 320 121.5Q330 135 336 157.5Q342 180 342 215ZM174 535Q168 541 158 552Q150 560 137 573.5Q124 587 107 604Q124 621 144 640Q161 657 185 679.5Q209 702 238 730Q245 729 257 729Q268 729 286.5 729Q305 729 334 731Q348 716 367 698Q384 682 408 660Q432 638 464 609Q458 603 448 592Q440 583 427 569.5Q414 556 397 536Q385 548 368 563Q354 576 332.5 594Q311 612 284 635Q271 623 254 608Q240 595 219.5 576.5Q199 558 174 535Z" glyph-name="acircumflex" horiz-adv-x="566" unicode="&#226;" /><glyph d="M308 537Q286 553 270.5 563.5Q255 574 245 582Q233 590 225 596Q257 638 281 669Q305 700 321 721Q339 746 352 763Q377 744 396.5 730Q416 716 430 707Q446 696 457 688Q415 647 387.5 618.5Q360 590 342 572Q321 551 308 537Z" glyph-name="acute" horiz-adv-x="606" unicode="&#180;" /><glyph d="M206 -17Q167 -17 134 -7Q101 3 77 21.5Q53 40 39 67Q25 94 25 128Q25 174 44 207.5Q63 241 101 264Q139 287 197.5 300.5Q256 314 334 319Q331 364 316.5 383Q302 402 274 402Q248 402 232 385.5Q216 369 211 335Q188 341 161 346Q138 351 107.5 356.5Q77 362 43 367Q72 444 130 481.5Q188 519 281 519Q345 519 390.5 504Q436 489 465 460Q494 431 507.5 389Q521 347 523 292Q525 233 525 178Q525 123 525 80Q525 30 524 -14H482Q462 -14 433 -14.5Q404 -15 369 -16Q370 -6 371 7Q372 18 372 34Q372 50 373 70Q350 23 304 3Q258 -17 206 -17ZM342 230Q212 221 212 155Q212 99 267 97Q282 97 296 102.5Q310 108 320 121.5Q330 135 336 157.5Q342 180 342 215ZM177 558Q135 558 116 581Q97 604 97 634Q97 666 120.5 686Q144 706 178 706Q216 706 236.5 685.5Q257 665 257 633Q257 613 250.5 598.5Q244 584 232.5 575Q221 566 206.5 562Q192 558 177 558ZM396 560Q361 560 340 581Q319 602 319 637Q319 666 339.5 686.5Q360 707 398 707Q436 707 454.5 685.5Q473 664 473 634Q473 597 450.5 578.5Q428 560 396 560Z" glyph-name="adieresis" horiz-adv-x="566" unicode="&#228;" /><glyph d="M619 -20Q475 -20 417 79Q403 57 382 39Q361 21 336 8Q311 -5 282.5 -12Q254 -19 225 -19Q132 -19 78.5 20.5Q25 60 25 134Q25 213 97.5 258.5Q170 304 334 307V312Q332 354 319 378Q306 402 277 402Q249 402 232.5 386Q216 370 207 336Q191 340 167 345Q147 350 116 355.5Q85 361 43 367Q54 400 72.5 427.5Q91 455 119 475Q147 495 186 506.5Q225 518 277 518Q334 518 376 496.5Q418 475 443 437Q498 518 630 518Q694 518 741 491.5Q788 465 816 422.5Q844 380 853 325.5Q862 271 852 214H777Q738 214 677 213Q616 212 529 210Q541 107 613 107Q637 107 659 122.5Q681 138 697 176Q720 168 746 159Q792 144 865 125Q844 89 816 62Q788 35 756 16.5Q724 -2 689 -11Q654 -20 619 -20ZM606 414Q541 414 529 304L673 308Q672 354 658 384Q644 414 606 414ZM266 96Q300 96 321 121Q342 146 342 209V216Q271 217 241.5 198.5Q212 180 212 147Q212 124 225.5 110Q239 96 266 96Z" glyph-name="ae" horiz-adv-x="898" unicode="&#230;" /><glyph d="M15 10Q37 97 64 204Q87 296 118.5 421.5Q150 547 186 698Q243 700 295 701Q347 702 388 702H477Q500 602 528 486Q552 386 584 256.5Q616 127 652 -18Q621 -17 588 -17Q559 -17 523 -17.5Q487 -18 451 -19Q448 -5 444 14Q441 31 436 54.5Q431 78 425 110Q394 111 344.5 111.5Q295 112 226 112L207 8Q179 8 147 9Q120 10 85 10Q50 10 15 10ZM325 598Q314 547 295 455.5Q276 364 253 251Q278 250 313.5 249.5Q349 249 397 250Q383 322 365 409Q347 496 325 598Z" glyph-name="afii10017" horiz-adv-x="667" unicode="&#1040;" /><glyph d="M59 0Q59 79 56.5 251Q54 423 50 694Q131 694 219 695Q294 696 386 696.5Q478 697 568 699V659Q568 639 568.5 609Q569 579 570 539Q511 538 453 538Q402 537 345 537Q288 537 239 536V436Q253 438 272.5 439.5Q292 441 304 441Q379 441 440 428.5Q501 416 544 388.5Q587 361 610.5 317.5Q634 274 634 212Q634 150 611.5 106Q589 62 544.5 34.5Q500 7 435 -5.5Q370 -18 285 -18Q234 -18 178 -13Q122 -8 59 0ZM243 130Q255 128 271 127Q287 126 301 126Q365 126 394 150.5Q423 175 423 213Q423 252 393 274.5Q363 297 294 297Q268 297 240 292Q241 223 242 181.5Q243 140 243 130Z" glyph-name="afii10018" horiz-adv-x="656" unicode="&#1041;" /><glyph d="M59 0Q58 97 57 209Q56 305 54 429.5Q52 554 50 692Q118 703 175.5 708.5Q233 714 284 714Q446 715 522 663Q598 611 598 514Q598 454 564.5 412.5Q531 371 471 355Q553 341 593.5 299Q634 257 634 190Q634 80 545 30Q456 -20 285 -18Q185 -17 59 0ZM243 119Q255 117 271 116Q287 115 301 115Q358 115 390.5 134Q423 153 423 199Q423 238 393 260Q363 282 294 282Q282 282 268.5 281Q255 280 240 278Q241 209 242 169Q243 129 243 119ZM239 412Q250 411 260.5 411Q271 411 280 411Q341 411 373.5 430.5Q406 450 406 497Q406 544 365.5 566.5Q325 589 239 575Z" glyph-name="afii10019" horiz-adv-x="656" unicode="&#1042;" /><glyph d="M58 2Q58 89 57 197Q56 290 54 416Q52 542 50 694Q112 694 184 695Q246 696 326.5 696.5Q407 697 498 699V655Q498 633 498.5 602Q499 571 500 531Q463 530 422 530Q387 529 341 529Q295 529 245 528Q245 456 245.5 396.5Q246 337 246.5 278Q247 219 248.5 153.5Q250 88 252 3Q211 3 175.5 2.5Q140 2 114 2H58Z" glyph-name="afii10020" horiz-adv-x="516" unicode="&#1043;" /><glyph d="M86 169Q108 203 121.5 259Q135 315 142 378Q146 420 149 458Q152 496 153 533.5Q154 571 154.5 610Q155 649 155 692Q236 692 296.5 692.5Q357 693 411 693.5Q465 694 519 695Q573 696 641 697V552Q641 483 641.5 385.5Q642 288 643 167Q656 166 671 166H733V15Q733 -15 733 -47Q733 -79 733 -108.5Q733 -138 733.5 -163Q734 -188 734 -206Q710 -206 680 -205Q654 -205 619.5 -204.5Q585 -204 543 -204V2Q505 3 459 3.5Q413 4 367 4Q321 4 278.5 4Q236 4 206 4Q206 -47 206 -82.5Q206 -118 207 -150H153Q127 -150 92.5 -149.5Q58 -149 16 -149V169ZM325 352Q324 332 321 307.5Q318 283 313.5 258Q309 233 303.5 209Q298 185 291 167Q329 167 371 166.5Q413 166 450 166Q450 258 449 348.5Q448 439 448 533Q433 533 404.5 532.5Q376 532 333 532Q331 482 329.5 441.5Q328 401 325 352Z" glyph-name="afii10021" horiz-adv-x="750" unicode="&#1044;" /><glyph d="M58 4Q58 90 57 197Q56 289 54 415Q52 541 50 693Q105 694 177 695Q239 696 327 697Q415 698 527 700V661Q527 641 527.5 612Q528 583 529 545Q494 545 450 544Q412 543 359.5 542.5Q307 542 243 540V505Q243 488 243 464.5Q243 441 244 411Q266 411 322 411Q378 411 480 413V377Q480 359 480 331.5Q480 304 481 267Q455 267 420 268Q390 268 346.5 268.5Q303 269 247 268Q248 241 248 212.5Q248 184 250 154Q282 153 324 152Q360 151 412.5 150Q465 149 533 148Q532 133 532 110Q531 90 531 61Q531 32 531 -6Q466 -4 389 -2Q323 0 238 1.5Q153 3 58 4Z" glyph-name="afii10022" horiz-adv-x="568" unicode="&#1045;" /><glyph d="M58 4Q58 90 57 197Q56 289 54 415Q52 541 50 693Q105 694 177 695Q239 696 327 697Q415 698 527 700V661Q527 641 527.5 612Q528 583 529 545Q494 545 450 544Q412 543 359.5 542.5Q307 542 243 540V505Q243 488 243 464.5Q243 441 244 411Q266 411 322 411Q378 411 480 413V377Q480 359 480 331.5Q480 304 481 267Q455 267 420 268Q390 268 346.5 268.5Q303 269 247 268Q248 241 248 212.5Q248 184 250 154Q282 153 324 152Q360 151 412.5 150Q465 149 533 148Q532 133 532 110Q531 90 531 61Q531 32 531 -6Q466 -4 389 -2Q323 0 238 1.5Q153 3 58 4ZM177 788Q135 788 116 811Q97 834 97 864Q97 896 120.5 916Q144 936 178 936Q216 936 236.5 915.5Q257 895 257 863Q257 843 250.5 828.5Q244 814 232.5 805Q221 796 206.5 792Q192 788 177 788ZM396 790Q361 790 340 811Q319 832 319 867Q319 896 339.5 916.5Q360 937 398 937Q436 937 454.5 915.5Q473 894 473 864Q473 827 450.5 808.5Q428 790 396 790Z" glyph-name="afii10023" horiz-adv-x="568" unicode="&#1025;" /><glyph d="M779 -18Q759 20 737.5 61.5Q716 103 695.5 142.5Q675 182 657 216Q639 250 627 274H589Q590 238 590 172Q590 106 590 11Q573 11 557 12Q543 12 527.5 12.5Q512 13 501 13Q461 13 436.5 12.5Q412 12 397 12Q398 67 398 116Q398 158 398 202Q398 246 399 274H361Q349 250 331 216Q313 182 292.5 142.5Q272 103 250 61.5Q228 20 209 -18Q171 -12 120.5 -6Q70 0 -6 10Q19 56 52 111Q80 159 118 224Q156 289 203 368Q175 418 133 503Q91 588 21 713Q47 715 80 719Q108 722 145.5 725.5Q183 729 228 734Q262 655 296 578Q330 501 367 425Q378 424 385 424Q392 424 400 424Q400 527 399.5 603.5Q399 680 399 722Q426 721 449.5 721Q473 721 494 721Q515 721 541.5 721Q568 721 590 722Q590 705 589.5 673.5Q589 642 589 601.5Q589 561 588.5 515Q588 469 588 424Q596 424 603 424Q610 424 621 425Q658 501 692 578Q726 655 760 734Q805 729 842.5 725.5Q880 722 908 719Q941 715 967 713Q896 588 854.5 503Q813 418 785 368Q832 289 870 224Q908 159 936 111Q969 56 994 10Q918 0 867.5 -6Q817 -12 779 -18Z" glyph-name="afii10024" horiz-adv-x="988" unicode="&#1046;" /><glyph d="M323 -20Q262 -20 210.5 -6Q159 8 120 37Q81 66 56 109.5Q31 153 22 212Q45 213 78 217Q105 220 145 224.5Q185 229 236 236Q241 120 326 120Q368 120 389 141.5Q410 163 410 201Q410 245 384.5 263.5Q359 282 314 282Q301 282 282 282Q263 282 249 281Q248 301 248 324Q247 344 247 369Q247 394 246 423Q266 422 281 422Q296 422 306 422Q354 422 376 441Q398 460 398 501Q398 538 379 556Q360 574 327 574Q285 574 264 543.5Q243 513 239 463Q192 470 156 475Q120 480 95 483Q66 487 45 489Q65 595 135.5 653.5Q206 712 332 712Q456 712 523 660.5Q590 609 590 515Q590 458 561.5 416.5Q533 375 467 356Q546 342 583 294.5Q620 247 620 184Q620 136 598 98Q576 60 537 33.5Q498 7 443.5 -6.5Q389 -20 323 -20Z" glyph-name="afii10025" horiz-adv-x="642" unicode="&#1047;" /><glyph d="M427 381Q403 333 378 282.5Q353 232 329.5 184Q306 136 285.5 93Q265 50 249 17H228Q218 17 204.5 17.5Q191 18 174 18Q148 18 114 17.5Q80 17 54 16Q53 97 53 199Q52 287 52 408Q52 529 50 678H99Q123 678 156.5 678Q190 678 233 679V576Q233 528 233.5 466Q234 404 235 335Q254 374 277.5 423.5Q301 473 325 524Q349 575 372 624Q395 673 413 712H469Q495 712 530 712Q565 712 607 713V500Q607 400 607.5 267.5Q608 135 610 -19Q588 -19 560 -18Q536 -18 502.5 -17.5Q469 -17 427 -17Z" glyph-name="afii10026" horiz-adv-x="660" unicode="&#1048;" /><glyph d="M427 381Q403 333 378 282.5Q353 232 329.5 184Q306 136 285.5 93Q265 50 249 17H228Q218 17 204.5 17.5Q191 18 174 18Q148 18 114 17.5Q80 17 54 16Q53 97 53 199Q52 287 52 408Q52 529 50 678H99Q123 678 156.5 678Q190 678 233 679V576Q233 528 233.5 466Q234 404 235 335Q254 374 277.5 423.5Q301 473 325 524Q349 575 372 624Q395 673 413 712H469Q495 712 530 712Q565 712 607 713V500Q607 400 607.5 267.5Q608 135 610 -19Q588 -19 560 -18Q536 -18 502.5 -17.5Q469 -17 427 -17ZM327 746Q286 746 250.5 757Q215 768 189 786.5Q163 805 148.5 831Q134 857 134 887Q134 889 134.5 892Q135 895 135 897L184 904Q205 907 229 911Q253 915 273 918Q275 886 288.5 868.5Q302 851 328 851Q350 851 365.5 869Q381 887 381 913Q381 923 380 928Q397 927 419 925Q438 923 463.5 922Q489 921 519 919Q520 914 520 909.5Q520 905 520 900Q520 861 504 832Q488 803 461 784Q434 765 399 755.5Q364 746 327 746Z" glyph-name="afii10027" horiz-adv-x="660" unicode="&#1049;" /><glyph d="M440 -38Q420 1 398 45.5Q376 90 355 132.5Q334 175 315 211.5Q296 248 284 272H242Q242 244 242.5 200.5Q243 157 243 115Q243 66 244 12Q199 12 163.5 11.5Q128 11 102 11H50V682Q92 681 127.5 681Q163 681 189 681H243Q243 633 242.5 599.5Q242 566 241.5 538Q241 510 241 483.5Q241 457 241 422Q249 422 259.5 422Q270 422 281 423L425 733Q473 726 512 721Q551 716 578 713Q610 709 634 707Q563 581 514.5 493Q466 405 438 354Q485 275 525 209Q565 143 594 94Q628 37 657 -10Q581 -20 529.5 -26.5Q478 -33 440 -38Z" glyph-name="afii10028" horiz-adv-x="647" unicode="&#1050;" /><glyph d="M33 -10Q25 -10 18.5 -9.5Q12 -9 4 -8L14 158Q19 156 20.5 156Q22 156 27 156Q53 156 70 169Q87 182 98 206Q109 230 115 263.5Q121 297 126 338Q130 380 133 426Q136 472 137.5 518Q139 564 140 608.5Q141 653 141 692Q222 692 282.5 692.5Q343 693 396.5 693.5Q450 694 503.5 695Q557 696 625 697V477Q625 374 625.5 239Q626 104 628 -50H434Q434 17 434 91.5Q434 166 434 241.5Q434 317 433.5 391.5Q433 466 432 533Q417 533 390 532.5Q363 532 320 532Q319 507 318 477Q317 447 315 416.5Q313 386 311 356.5Q309 327 307 302Q299 212 279 152Q259 92 225.5 56Q192 20 144.5 5Q97 -10 33 -10Z" glyph-name="afii10029" horiz-adv-x="678" unicode="&#1051;" /><glyph d="M45 16Q50 100 55 204Q60 293 64 413.5Q68 534 73 677H160Q199 677 248.5 677.5Q298 678 350 680Q366 620 385 548Q402 486 424.5 403Q447 320 476 223Q484 254 497 303.5Q510 353 525 416Q540 479 557.5 554.5Q575 630 592 714Q633 713 680 712Q720 711 770 709.5Q820 708 874 706Q877 620 881 509Q885 414 891.5 282Q898 150 907 -14L710 -20V152Q710 233 709 340Q708 447 705 573Q693 531 675.5 466Q658 401 638 327Q618 253 599 176Q580 99 565 34H507Q481 34 446.5 33.5Q412 33 375 31Q359 90 336 168Q316 235 288 332Q260 429 223 554Q223 515 223 456.5Q223 398 223 326.5Q223 255 223.5 174.5Q224 94 226 13Q200 13 171 14Q146 15 113 15Q80 15 45 16Z" glyph-name="afii10030" horiz-adv-x="952" unicode="&#1052;" /><glyph d="M401 209Q393 209 381.5 209Q370 209 352 209Q334 209 308 209Q282 209 246 208L249 17Q222 18 190 18Q163 18 127.5 17.5Q92 17 54 16V199Q54 287 53 408Q52 529 50 678H104Q130 678 164.5 678Q199 678 242 679V594Q242 553 242.5 496.5Q243 440 244 371Q258 371 296 370Q334 369 400 370L397 712H453Q479 712 514.5 712Q550 712 592 713V500Q592 400 592.5 267.5Q593 135 595 -19Q570 -19 539 -18Q513 -17 478 -17Q443 -17 401 -17Z" glyph-name="afii10031" horiz-adv-x="645" unicode="&#1053;" /><glyph d="M352 -19Q202 -18 119.5 74Q37 166 36 343Q35 427 56 495Q77 563 117.5 611Q158 659 217.5 684.5Q277 710 352 710Q431 710 490.5 685Q550 660 589.5 612.5Q629 565 649 497Q669 429 669 344Q669 249 645.5 180.5Q622 112 580 67.5Q538 23 480 2Q422 -19 352 -19ZM353 131Q377 131 396 142Q415 153 429 178Q443 203 450.5 244Q458 285 458 345Q458 459 430.5 509Q403 559 352 559Q301 559 273.5 508Q246 457 246 344Q245 233 272.5 182Q300 131 353 131Z" glyph-name="afii10032" horiz-adv-x="704" unicode="&#1054;" /><glyph d="M391 -17Q391 117 391 258Q391 399 389 533Q381 533 365.5 533Q350 533 330 532.5Q310 532 287 532Q264 532 243 532Q243 516 243 485.5Q243 455 243.5 416Q244 377 244.5 332Q245 287 245 243Q246 139 247 17H227Q217 17 204 17.5Q191 18 174 18Q148 18 114 17.5Q80 17 54 16Q53 100 53 206Q52 297 52 420Q52 543 50 692Q131 692 199 692.5Q267 693 329.5 693.5Q392 694 453 695Q514 696 582 697V492Q582 395 582.5 265Q583 135 585 -19Q560 -19 529 -18Q503 -18 468 -17.5Q433 -17 391 -17Z" glyph-name="afii10033" horiz-adv-x="635" unicode="&#1055;" /><glyph d="M50 4Q51 81 52 184Q53 272 53 397Q53 522 52 680Q100 687 144 690Q188 693 229 693Q311 693 377.5 678Q444 663 491 632.5Q538 602 563.5 554.5Q589 507 589 443Q589 373 565.5 322Q542 271 497.5 238Q453 205 389.5 190Q326 175 245 177L249 5H184Q155 5 119.5 5Q84 5 50 4ZM242 542Q242 523 242 503Q242 483 242 457Q242 431 242 398Q242 365 243 321Q317 319 357.5 347Q398 375 398 441Q398 488 367.5 516Q337 544 276 544Q268 544 259.5 543.5Q251 543 242 542Z" glyph-name="afii10034" horiz-adv-x="609" unicode="&#1056;" /><glyph d="M348 -17Q275 -17 217 5.5Q159 28 118.5 73Q78 118 56.5 186Q35 254 35 346Q35 522 116 616Q197 710 348 710Q414 710 465 690.5Q516 671 552.5 636.5Q589 602 611.5 553.5Q634 505 643 448Q588 443 548 438.5Q508 434 482 431Q451 427 431 424Q426 486 405 521.5Q384 557 343 557Q294 557 269 506.5Q244 456 245 347Q245 246 269.5 192.5Q294 139 346 139Q387 139 410.5 172.5Q434 206 439 288Q484 284 523 281Q562 278 591 276Q625 273 654 271Q648 197 623.5 143Q599 89 559.5 53.5Q520 18 466 0.5Q412 -17 348 -17Z" glyph-name="afii10035" horiz-adv-x="679" unicode="&#1057;" /><glyph d="M27 571Q27 593 26.5 624.5Q26 656 25 696H208Q247 696 291 696Q335 696 379.5 696Q424 696 468 696.5Q512 697 553 697Q553 673 552 646Q551 623 550.5 592Q550 561 551 526L387 527Q387 485 387 433Q387 381 387.5 316Q388 251 389 172Q390 93 391 -4H334Q308 -4 272 -4.5Q236 -5 194 -5V139Q194 208 193.5 306Q193 404 192 527L27 526Z" glyph-name="afii10036" horiz-adv-x="578" unicode="&#1058;" /><glyph d="M159 -12Q171 13 182.5 37Q194 61 204.5 85.5Q215 110 226 136.5Q237 163 249 194Q221 250 183 323Q151 386 104.5 474Q58 562 0 673Q38 678 77 683Q110 688 147.5 692Q185 696 215 701Q230 666 249 621Q266 583 288.5 530Q311 477 339 411Q355 451 374 500Q391 542 412 600Q433 658 459 727Q478 725 507 721Q532 718 570 713.5Q608 709 662 704Q621 612 578.5 514.5Q536 417 494 320Q452 223 412 129Q372 35 336 -50Q300 -42 267 -34Q238 -28 208 -21.5Q178 -15 159 -12Z" glyph-name="afii10037" horiz-adv-x="662" unicode="&#1059;" /><glyph d="M351 -42Q351 -28 351.5 -7Q352 14 352 40Q277 44 217.5 65.5Q158 87 116.5 124.5Q75 162 52.5 215.5Q30 269 30 337Q30 478 113 553.5Q196 629 351 633V657Q351 669 350.5 687Q350 705 349 731H411Q439 731 473 731Q507 731 542 732Q541 722 541 708V633Q615 631 675 610.5Q735 590 777.5 553Q820 516 843 463.5Q866 411 866 344Q866 203 781.5 127.5Q697 52 542 45V12Q542 -4 542.5 -25Q543 -46 544 -71H482Q454 -71 419.5 -71.5Q385 -72 351 -72ZM540 191Q573 192 597 205Q621 218 636.5 238.5Q652 259 659 286.5Q666 314 666 346Q666 409 634.5 446.5Q603 484 540 487ZM230 339Q230 308 236.5 281.5Q243 255 257.5 235.5Q272 216 295.5 204Q319 192 352 191Q352 215 352 253Q352 291 352.5 332.5Q353 374 353 415Q353 456 353 487Q286 484 258 443Q230 402 230 339Z" glyph-name="afii10038" horiz-adv-x="896" unicode="&#1060;" /><glyph d="M241 -3Q180 -1 137 0Q94 1 67 2Q35 3 15 3Q79 125 121 209.5Q163 294 184 337Q166 382 128 471.5Q90 561 33 691Q102 692 155.5 694Q209 696 246 698Q256 670 269 631Q280 598 297.5 549Q315 500 338 436Q364 504 382.5 556Q401 608 413 643Q427 684 436 714Q495 711 535.5 710Q576 709 602 708Q632 707 650 707Q591 573 552.5 484Q514 395 494 348Q578 162 621 76Q646 25 664 -9Q596 -11 553 -12Q510 -13 484 -15Q454 -17 439 -18Q407 72 381.5 140Q356 208 340 250Q317 196 299 149.5Q281 103 268 69Q253 29 241 -3Z" glyph-name="afii10039" horiz-adv-x="679" unicode="&#1061;" /><glyph d="M489 2Q451 3 407 3.5Q363 4 320.5 4.5Q278 5 239.5 5Q201 5 174 5Q148 5 114 5Q80 5 54 4Q53 88 53 193Q52 283 52 406Q52 529 50 678H103Q129 678 163.5 678Q198 678 241 679Q242 584 243 492Q243 453 243.5 410Q244 367 244.5 324Q245 281 245.5 240.5Q246 200 246 166Q260 166 297 165.5Q334 165 400 165Q398 273 397 374Q397 417 396.5 463Q396 509 395.5 553.5Q395 598 394.5 639Q394 680 394 712H450Q476 712 511 712Q546 712 588 713V560Q588 487 588 386.5Q588 286 589 165Q607 165 633.5 165.5Q660 166 679 166V33Q679 6 679 -22.5Q679 -51 679 -78Q679 -105 679.5 -128.5Q680 -152 680 -170Q656 -170 626 -169Q600 -169 565.5 -168.5Q531 -168 489 -168Z" glyph-name="afii10040" horiz-adv-x="696" unicode="&#1062;" /><glyph d="M377 234Q332 219 261 219Q212 219 169 235Q126 251 94.5 285.5Q63 320 44.5 374.5Q26 429 26 505Q26 560 30.5 609Q35 658 39 680Q68 678 99 676Q125 674 157 672Q189 670 221 669Q218 649 216 624Q214 603 213 573.5Q212 544 212 510Q212 467 218 439Q224 411 235.5 394.5Q247 378 264 371Q281 364 304 364Q344 364 376 377Q375 435 375 496Q375 557 374 607Q373 665 373 720H429Q455 720 490 720Q525 720 567 721V514Q567 417 567.5 286Q568 155 570 1Q545 1 515 2Q489 2 454 2.5Q419 3 377 3Z" glyph-name="afii10041" horiz-adv-x="620" unicode="&#1063;" /><glyph d="M876 0Q718 1 571.5 3Q425 5 274 5Q261 5 230 5Q199 5 164 5Q129 5 98 4.5Q67 4 54 4Q53 89 53 195Q52 286 52 409.5Q52 533 50 682H103Q129 682 163.5 682Q198 682 241 683Q242 587 243 494Q243 454 243.5 411Q244 368 244.5 325Q245 282 245.5 241Q246 200 246 166Q253 166 267 166Q281 166 298 165.5Q315 165 334.5 165Q354 165 371 165Q371 181 370.5 215.5Q370 250 369.5 295.5Q369 341 368.5 393.5Q368 446 367.5 499Q367 552 366.5 601.5Q366 651 366 690H422Q448 690 483 690Q518 690 560 691Q560 623 560.5 558Q561 493 561.5 428.5Q562 364 562.5 299Q563 234 563 166Q592 166 622.5 166Q653 166 687 165Q687 275 686 379Q686 423 685.5 470Q685 517 684.5 562.5Q684 608 683.5 649Q683 690 683 722H738Q764 722 798.5 722Q833 722 875 723V544Q875 453 875 318Q875 183 876 0Z" glyph-name="afii10042" horiz-adv-x="926" unicode="&#1064;" /><glyph d="M779 1Q700 2 639.5 2.5Q579 3 523 3.5Q467 4 408 4.5Q349 5 274 5Q261 5 230 5Q199 5 164 5Q129 5 98 4.5Q67 4 54 4Q53 102 53 218Q52 318 52 448.5Q52 579 50 728H103Q129 728 163.5 728Q198 728 241 729Q242 621 243 517Q243 473 243.5 425.5Q244 378 244.5 332Q245 286 245.5 243Q246 200 246 166Q253 166 267 166Q281 166 298.5 165.5Q316 165 335.5 165Q355 165 372 165Q372 181 371.5 215Q371 249 370.5 293.5Q370 338 369.5 389.5Q369 441 368.5 493Q368 545 367.5 594Q367 643 367 682H423Q449 682 484 682Q519 682 561 683Q561 615 561.5 551Q562 487 562.5 424.5Q563 362 563.5 298Q564 234 564 166Q593 166 624.5 166Q656 166 690 165Q690 273 689 374Q689 417 688.5 463Q688 509 687.5 553.5Q687 598 686.5 639Q686 680 686 712H741Q767 712 801.5 712Q836 712 878 713V560Q878 487 878 386.5Q878 286 879 165Q897 165 923.5 165.5Q950 166 969 166V33Q969 6 969 -22.5Q969 -51 969 -78Q969 -105 969.5 -128.5Q970 -152 970 -170Q946 -170 916 -169Q890 -169 855.5 -168.5Q821 -168 779 -168Z" glyph-name="afii10043" horiz-adv-x="986" unicode="&#1065;" /><glyph d="M26 579Q26 601 25.5 632.5Q25 664 24 704Q121 704 182.5 704.5Q244 705 282.5 705.5Q321 706 342 706.5Q363 707 380 708Q380 669 380 636.5Q380 604 380.5 574.5Q381 545 381 516.5Q381 488 381 458Q395 460 409.5 460.5Q424 461 436 461Q506 461 563.5 447Q621 433 662 403.5Q703 374 725.5 329Q748 284 748 222Q748 160 726 114.5Q704 69 662.5 39.5Q621 10 561 -4Q501 -18 425 -18Q374 -18 317 -14.5Q260 -11 197 -6Q197 60 195 196.5Q193 333 190 535Q155 535 125 534.5Q95 534 73 534H26ZM385 128Q397 127 409 126.5Q421 126 433 126Q461 126 480.5 134Q500 142 512.5 155.5Q525 169 531 186.5Q537 204 537 223Q537 262 511 289.5Q485 317 426 317Q414 317 404.5 316.5Q395 316 382 314Q382 280 382.5 248.5Q383 217 383.5 192Q384 167 384.5 150Q385 133 385 128Z" glyph-name="afii10044" horiz-adv-x="770" unicode="&#1066;" /><glyph d="M59 -6Q59 73 56.5 253Q54 433 50 704Q83 704 116 705Q145 706 178.5 706Q212 706 242 708Q242 669 242 636.5Q242 604 242.5 574.5Q243 545 243 516.5Q243 488 243 458Q257 460 271.5 460.5Q286 461 298 461Q368 461 425 447Q482 433 522.5 403.5Q563 374 585.5 329Q608 284 608 222Q608 160 586 114.5Q564 69 523 39.5Q482 10 422.5 -4Q363 -18 287 -18Q236 -18 179 -14.5Q122 -11 59 -6ZM247 128Q259 126 271.5 126Q284 126 295 126Q323 126 342.5 134Q362 142 374.5 155.5Q387 169 393 186.5Q399 204 399 223Q399 262 373 289.5Q347 317 288 317Q276 317 266.5 316.5Q257 316 244 314Q244 280 244.5 248.5Q245 217 245.5 192Q246 167 246.5 150Q247 133 247 128ZM689 -15Q688 78 688 190Q687 286 687 412.5Q687 539 685 686H736Q761 686 797 686Q833 686 881 687Q881 586 882 472Q883 374 883.5 248Q884 122 886 -15Z" glyph-name="afii10045" horiz-adv-x="936" unicode="&#1067;" /><glyph d="M59 -6Q59 73 56.5 253Q54 433 50 704Q83 704 116 705Q145 706 178.5 706Q212 706 242 708Q242 669 242 636.5Q242 604 242.5 574.5Q243 545 243 516.5Q243 488 243 458Q257 460 272.5 460.5Q288 461 300 461Q370 461 427.5 447Q485 433 526.5 403.5Q568 374 591 329Q614 284 614 222Q614 160 591.5 114.5Q569 69 527 39.5Q485 10 425 -4Q365 -18 289 -18Q238 -18 180 -14.5Q122 -11 59 -6ZM247 128Q259 127 271 126.5Q283 126 297 126Q325 126 345 134Q365 142 378 155.5Q391 169 397 186.5Q403 204 403 223Q403 262 376.5 289.5Q350 317 290 317Q278 317 267.5 316.5Q257 316 244 314Q244 280 244.5 248.5Q245 217 245.5 192Q246 167 246.5 150Q247 133 247 128Z" glyph-name="afii10046" horiz-adv-x="636" unicode="&#1068;" /><glyph d="M328 -22Q267 -22 215.5 -9Q164 4 124 32.5Q84 61 58 105.5Q32 150 22 213Q51 217 85 222Q114 227 153 232Q192 237 237 244Q242 180 267 155Q292 130 330 130Q373 130 397.5 166.5Q422 203 428 282Q407 282 365.5 282Q324 282 271 280V314Q271 331 270.5 358Q270 385 270 423Q284 422 306 422H427Q420 500 396 531.5Q372 563 333 563Q292 563 266 532.5Q240 502 235 448Q213 452 183 456Q157 460 118.5 465.5Q80 471 29 478Q38 532 62.5 575Q87 618 125 648.5Q163 679 214 695.5Q265 712 328 712Q479 712 560 617Q641 522 641 346Q641 258 619.5 189.5Q598 121 557.5 74Q517 27 459 2.5Q401 -22 328 -22Z" glyph-name="afii10047" horiz-adv-x="676" unicode="&#1069;" /><glyph d="M636 -19Q518 -19 442.5 39Q367 97 338 209Q322 209 298.5 209Q275 209 246 208Q246 174 247 138Q248 107 248 70.5Q248 34 249 1H190Q163 1 127.5 0.5Q92 0 54 0Q53 99 53 216Q52 316 52 447.5Q52 579 50 728H104Q130 728 164.5 728Q199 728 242 729V619Q242 569 242.5 504.5Q243 440 244 371Q254 371 272.5 370.5Q291 370 324 370Q327 448 349 511Q371 574 411 618.5Q451 663 507.5 686.5Q564 710 636 710Q715 710 774 685Q833 660 872 612.5Q911 565 930 497Q949 429 949 344Q949 249 926 180.5Q903 112 862 67.5Q821 23 763.5 2Q706 -19 636 -19ZM637 131Q661 131 680 142Q699 153 712.5 178Q726 203 733 244Q740 285 740 345Q740 459 713.5 509Q687 559 636 559Q585 559 558.5 508Q532 457 532 344Q532 233 558 182Q584 131 637 131Z" glyph-name="afii10048" horiz-adv-x="985" unicode="&#1070;" /><glyph d="M213 0Q168 5 129.5 10Q91 15 62 19Q28 23 0 26Q55 104 97 165Q139 226 165 267Q102 293 68 343Q34 393 34 468Q34 526 57.5 571.5Q81 617 126 648Q171 679 236.5 695Q302 711 385 711Q429 711 483 704.5Q537 698 595 686V189Q595 86 596 8Q567 9 538 9.5Q509 10 483 10Q466 10 452 9.5Q438 9 427 9H404Q404 47 405 87Q406 121 406 160Q406 199 408 233Q388 233 373.5 233Q359 233 342 234Q313 181 289 138Q265 95 248 64Q228 28 213 0ZM411 556Q397 558 384 559.5Q371 561 354 561Q288 561 257 532.5Q226 504 226 462Q226 411 264 388.5Q302 366 365 366Q375 366 387 366.5Q399 367 408 368Z" glyph-name="afii10049" horiz-adv-x="646" unicode="&#1071;" /><glyph d="M499 814Q499 761 499 724Q499 687 499 656.5Q499 626 499.5 597Q500 568 500 531Q463 530 422 530Q387 529 341 529Q295 529 245 528Q245 456 245.5 396.5Q246 337 246.5 278Q247 219 248.5 153.5Q250 88 252 3Q211 3 175.5 2.5Q140 2 114 2H58Q58 89 57 197Q56 290 54 416Q52 542 50 694Q83 695 123 695Q158 695 205 695Q252 695 309 696Q309 731 308.5 757.5Q308 784 308 816Q332 815 362 815Q388 814 422.5 814Q457 814 499 814Z" glyph-name="afii10050" horiz-adv-x="518" unicode="&#1168;" /><glyph d="M527 178Q527 238 499.5 269Q472 300 427 300Q407 300 389.5 295Q372 290 359 282Q359 253 359 224.5Q359 196 359.5 164.5Q360 133 360.5 97Q361 61 362 16H307Q281 16 246 15.5Q211 15 169 15V153Q169 220 168.5 315.5Q168 411 167 534Q154 534 135 534Q116 534 96.5 533.5Q77 533 58 533Q39 533 26 533V575Q26 595 25.5 625.5Q25 656 24 696H205Q244 696 287.5 696Q331 696 375 696Q419 696 463 696.5Q507 697 548 697Q547 676 547 650Q546 628 546 598Q546 568 546 533Q533 533 507 533.5Q481 534 452 534Q423 534 397 534Q371 534 358 534V420Q380 431 410 438Q440 445 478 445Q526 445 569.5 430.5Q613 416 646 385Q679 354 698.5 305.5Q718 257 718 190Q718 107 699 51.5Q680 -4 644.5 -38Q609 -72 558 -86Q507 -100 443 -100Q435 -100 428.5 -99.5Q422 -99 414 -98L424 68Q429 66 430.5 66Q432 66 437 66Q483 66 505 95Q527 124 527 178Z" glyph-name="afii10051" horiz-adv-x="740" unicode="&#1026;" /><glyph d="M58 2Q58 89 57 197Q56 290 54 416Q52 542 50 694Q112 694 184 695Q246 696 326.5 696.5Q407 697 498 699V655Q498 633 498.5 602Q499 571 500 531Q463 530 422 530Q387 529 341 529Q295 529 245 528Q245 456 245.5 396.5Q246 337 246.5 278Q247 219 248.5 153.5Q250 88 252 3Q211 3 175.5 2.5Q140 2 114 2H58ZM237 737Q215 753 199.5 763.5Q184 774 174 782Q162 790 154 796Q186 838 210 869Q234 900 250 921Q268 946 281 963Q306 944 325.5 930Q345 916 359 907Q375 896 386 888Q344 847 316.5 818.5Q289 790 271 772Q250 751 237 737Z" glyph-name="afii10052" horiz-adv-x="516" unicode="&#1027;" /><glyph d="M349 -22Q276 -22 218 2.5Q160 27 119.5 74Q79 121 57.5 189.5Q36 258 36 346Q36 522 117 617Q198 712 349 712Q412 712 463 695.5Q514 679 552 648.5Q590 618 614.5 575Q639 532 648 478Q597 471 558.5 465.5Q520 460 494 456Q463 452 442 448Q437 502 411 532.5Q385 563 344 563Q305 563 281 531.5Q257 500 250 423H371Q393 423 407 424Q406 386 406 359Q406 332 406 314V279Q353 281 311.5 281Q270 281 249 281Q255 202 279.5 166Q304 130 347 130Q385 130 410 155Q435 180 440 244Q485 237 524 232Q563 227 592 222Q626 217 655 213Q645 150 619 105.5Q593 61 553 32.5Q513 4 461.5 -9Q410 -22 349 -22Z" glyph-name="afii10053" horiz-adv-x="679" unicode="&#1028;" /><glyph d="M315 -19Q255 -19 203.5 -4.5Q152 10 113 40Q74 70 49.5 116.5Q25 163 18 227Q41 227 73 229Q100 231 139 234Q178 237 230 243Q231 183 254.5 152Q278 121 324 121Q357 121 378 135.5Q399 150 399 181Q399 196 393 208.5Q387 221 371 232.5Q355 244 327 255.5Q299 267 254 279Q196 295 156 315.5Q116 336 91 363Q66 390 54.5 423.5Q43 457 43 498Q43 546 62.5 586Q82 626 117.5 654Q153 682 203.5 697.5Q254 713 316 713Q446 713 520 649Q594 585 604 464Q578 463 546 462Q519 461 483.5 459Q448 457 407 454Q411 510 388.5 541Q366 572 321 572Q286 572 266.5 554.5Q247 537 247 511Q247 493 253.5 478.5Q260 464 277 452Q294 440 323 429Q352 418 397 406Q461 389 502 368.5Q543 348 566.5 322.5Q590 297 599 266.5Q608 236 608 200Q608 93 531 37Q454 -19 315 -19Z" glyph-name="afii10054" horiz-adv-x="640" unicode="&#1029;" /><glyph d="M64 201Q64 295 63 421Q62 547 60 694H111Q136 694 172 694Q208 694 256 695Q256 597 257 483Q258 386 258.5 261Q259 136 261 -1H204H64Z" glyph-name="afii10055" horiz-adv-x="321" unicode="&#1030;" /><glyph d="M64 201Q64 295 63 421Q62 547 60 694H111Q136 694 172 694Q208 694 256 695Q256 597 257 483Q258 386 258.5 261Q259 136 261 -1H204H64ZM54 788Q12 788 -7 811Q-26 834 -26 864Q-26 896 -2.5 916Q21 936 55 936Q93 936 113.5 915.5Q134 895 134 863Q134 843 127.5 828.5Q121 814 109.5 805Q98 796 83.5 792Q69 788 54 788ZM273 790Q238 790 217 811Q196 832 196 867Q196 896 216.5 916.5Q237 937 275 937Q313 937 331.5 915.5Q350 894 350 864Q350 827 327.5 808.5Q305 790 273 790Z" glyph-name="afii10056" horiz-adv-x="321" unicode="&#1031;" /><glyph d="M302 -12Q165 -12 98 60.5Q31 133 31 294Q31 308 31.5 323.5Q32 339 33 355Q56 354 86 352Q112 350 148.5 349Q185 348 232 347Q229 315 229 289Q229 250 234 223.5Q239 197 247.5 181.5Q256 166 268.5 159.5Q281 153 296 153Q311 153 322 160.5Q333 168 341 185.5Q349 203 353 233Q357 263 357 308Q357 393 355.5 464Q354 535 352 588Q350 650 348 700Q372 700 405 701Q432 702 471 703Q510 704 559 706Q558 665 557 608Q556 559 556 487.5Q556 416 556 322Q556 232 539 168.5Q522 105 489 65Q456 25 409 6.5Q362 -12 302 -12Z" glyph-name="afii10057" horiz-adv-x="604" unicode="&#1032;" /><glyph d="M33 -10Q25 -10 18.5 -9.5Q12 -9 4 -8L14 158Q19 156 20.5 156Q22 156 27 156Q53 156 70 169Q87 182 98 206Q109 230 115 263.5Q121 297 126 338Q130 380 133 426Q136 472 137.5 518Q139 564 140 608.5Q141 653 141 692Q222 692 282.5 692.5Q343 693 396.5 693.5Q450 694 503.5 695Q557 696 625 697V452Q639 454 653.5 454.5Q668 455 679 455Q749 455 806 441.5Q863 428 903.5 399Q944 370 966 325Q988 280 988 218Q988 156 966.5 111Q945 66 904 37Q863 8 803.5 -6Q744 -20 668 -20Q628 -20 571.5 -20Q515 -20 434 -18Q434 83 434 189Q434 295 433 407Q433 440 432.5 471.5Q432 503 431 533Q416 533 389 532.5Q362 532 320 532Q319 507 318 477Q317 447 315 416.5Q313 386 311 356.5Q309 327 307 302Q299 212 279 152Q259 92 225.5 56Q192 20 144.5 5Q97 -10 33 -10ZM626 308Q626 264 626 220Q626 176 627 126Q638 125 650 124.5Q662 124 676 124Q732 124 755.5 152.5Q779 181 779 219Q779 258 754 284.5Q729 311 669 311Q648 311 626 308Z" glyph-name="afii10058" horiz-adv-x="1010" unicode="&#1033;" /><glyph d="M401 209Q393 209 381.5 209Q370 209 352 209Q334 209 308 208.5Q282 208 246 208Q246 186 246.5 168Q247 150 247 129Q247 108 247.5 82Q248 56 249 17H190Q163 17 127.5 16.5Q92 16 54 16Q53 97 53 199Q52 287 52 408Q52 529 50 678H104Q130 678 164.5 678Q199 678 242 679V594Q242 553 242.5 496.5Q243 440 244 371Q258 371 296 370.5Q334 370 400 370Q400 420 400 464Q400 508 399.5 549Q399 590 398.5 630Q398 670 397 712H453Q479 712 514.5 712Q550 712 592 713V447Q606 449 620.5 449.5Q635 450 646 450Q716 450 773 436.5Q830 423 870.5 394.5Q911 366 933.5 321.5Q956 277 956 215Q956 153 934 108Q912 63 871 34.5Q830 6 770.5 -7.5Q711 -21 635 -21Q617 -21 589.5 -20.5Q562 -20 529.5 -19.5Q497 -19 463.5 -18.5Q430 -18 401 -17ZM593 303Q593 259 593 217Q593 175 594 125Q605 124 617 123.5Q629 123 643 123Q699 123 723 150.5Q747 178 747 216Q747 255 721.5 280.5Q696 306 636 306Q615 306 593 303Z" glyph-name="afii10059" horiz-adv-x="978" unicode="&#1034;" /><glyph d="M26 575Q26 595 25.5 625.5Q25 656 24 696H205Q244 696 287.5 696Q331 696 375 696Q419 696 463 696.5Q507 697 548 697Q547 676 547 650Q546 628 546 598Q546 568 546 533Q533 533 507 533.5Q481 534 452 534Q423 534 397 534Q371 534 358 534V432Q380 440 407.5 443.5Q435 447 462 447Q511 447 550.5 434Q590 421 618 393Q646 365 661 321.5Q676 278 676 217Q676 190 676 158Q676 126 676 94.5Q676 63 675.5 33.5Q675 4 675 -18Q644 -18 611 -17Q583 -16 549.5 -16Q516 -16 485 -15V49Q485 78 485.5 112.5Q486 147 486 182Q486 210 483 232Q480 254 472 269.5Q464 285 450 293.5Q436 302 413 302Q388 302 359 291Q359 262 359 232Q359 202 359.5 169Q360 136 360.5 98.5Q361 61 362 16H307Q281 16 246 15.5Q211 15 169 15V153Q169 220 168.5 315.5Q168 411 167 534Q154 534 135 534Q116 534 96.5 533.5Q77 533 58 533Q39 533 26 533Z" glyph-name="afii10060" horiz-adv-x="716" unicode="&#1035;" /><glyph d="M440 -38Q420 1 398 45.5Q376 90 355 132.5Q334 175 315 211.5Q296 248 284 272H242Q242 244 242.5 200.5Q243 157 243 115Q243 66 244 12Q199 12 163.5 11.5Q128 11 102 11H50V682Q92 681 127.5 681Q163 681 189 681H243Q243 633 242.5 599.5Q242 566 241.5 538Q241 510 241 483.5Q241 457 241 422Q249 422 259.5 422Q270 422 281 423L425 733Q473 726 512 721Q551 716 578 713Q610 709 634 707Q563 581 514.5 493Q466 405 438 354Q485 275 525 209Q565 143 594 94Q628 37 657 -10Q581 -20 529.5 -26.5Q478 -33 440 -38ZM287 737Q265 753 249.5 763.5Q234 774 224 782Q212 790 204 796Q236 838 260 869Q284 900 300 921Q318 946 331 963Q356 944 375.5 930Q395 916 409 907Q425 896 436 888Q394 847 366.5 818.5Q339 790 321 772Q300 751 287 737Z" glyph-name="afii10061" horiz-adv-x="647" unicode="&#1036;" /><glyph d="M159 -12Q171 13 182.5 37Q194 61 204.5 85.5Q215 110 226 136.5Q237 163 249 194Q221 250 183 323Q151 386 104.5 474Q58 562 0 673Q38 678 77 683Q110 688 147.5 692Q185 696 215 701Q230 666 249 621Q266 583 288.5 530Q311 477 339 411Q355 451 374 500Q391 542 412 600Q433 658 459 727Q478 725 507 721Q532 718 570 713.5Q608 709 662 704Q621 612 578.5 514.5Q536 417 494 320Q452 223 412 129Q372 35 336 -50Q300 -42 267 -34Q238 -28 208 -21.5Q178 -15 159 -12ZM328 746Q287 746 251.5 757Q216 768 190 786.5Q164 805 149.5 831Q135 857 135 887Q135 889 135.5 892Q136 895 136 897L185 904Q206 907 230 911Q254 915 274 918Q276 886 289.5 868.5Q303 851 329 851Q351 851 366.5 869Q382 887 382 913Q382 923 381 928Q398 927 420 925Q439 923 464.5 922Q490 921 520 919Q521 914 521 909.5Q521 905 521 900Q521 861 505 832Q489 803 462 784Q435 765 400 755.5Q365 746 328 746Z" glyph-name="afii10062" horiz-adv-x="662" unicode="&#1038;" /><glyph d="M206 -17Q167 -17 134 -7Q101 3 77 21.5Q53 40 39 67Q25 94 25 128Q25 174 44 207.5Q63 241 101 264Q139 287 197.5 300.5Q256 314 334 319Q331 364 316.5 383Q302 402 274 402Q248 402 232 385.5Q216 369 211 335Q188 341 161 346Q138 351 107.5 356.5Q77 362 43 367Q72 444 130 481.5Q188 519 281 519Q345 519 390.5 504Q436 489 465 460Q494 431 507.5 389Q521 347 523 292Q525 233 525 178Q525 123 525 80Q525 30 524 -14H482Q462 -14 433 -14.5Q404 -15 369 -16Q370 -6 371 7Q372 18 372 34Q372 50 373 70Q350 23 304 3Q258 -17 206 -17ZM342 230Q212 221 212 155Q212 99 267 97Q282 97 296 102.5Q310 108 320 121.5Q330 135 336 157.5Q342 180 342 215Z" glyph-name="afii10065" horiz-adv-x="566" unicode="&#1072;" /><glyph d="M354 477Q403 477 444 460Q485 443 514 411.5Q543 380 559 335Q575 290 575 233Q575 172 554 126Q533 80 497 49.5Q461 19 413 3.5Q365 -12 310 -12Q240 -12 188 13Q136 38 102 82.5Q68 127 51.5 188.5Q35 250 35 324Q35 390 50 442.5Q65 495 89 535.5Q113 576 143.5 604Q174 632 205 650Q237 668 270 678.5Q303 689 333 698.5Q363 708 389 719Q415 730 434 750Q438 747 455.5 731.5Q473 716 494 698Q515 680 533 664.5Q551 649 556 646Q531 613 497 596.5Q463 580 426 570.5Q389 561 352 552.5Q315 544 285 528Q260 514 243 498.5Q226 483 214.5 463Q203 443 196 418Q189 393 185 360Q205 416 249.5 446.5Q294 477 354 477ZM308 107Q343 107 362 138.5Q381 170 381 234Q381 299 365 338.5Q349 378 309 378Q274 378 253.5 342Q233 306 233 238Q233 107 308 107Z" glyph-name="afii10066" horiz-adv-x="610" unicode="&#1073;" /><glyph d="M52 -7Q51 65 50 148Q49 219 48 311Q47 403 45 505Q70 508 100.5 511Q131 514 161 516Q191 518 218.5 519Q246 520 264 520Q384 520 449.5 482Q515 444 515 372Q515 328 490.5 298.5Q466 269 421 255Q480 245 510.5 214.5Q541 184 541 134Q541 94 521 65Q501 36 465 17Q429 -2 378 -11Q327 -20 265 -20Q212 -20 155 -16Q98 -12 52 -7ZM234 93Q252 90 274 90Q306 90 327.5 102Q349 114 349 145Q349 201 269 201Q260 201 250.5 200.5Q241 200 232 199Q232 148 233 124.5Q234 101 234 93ZM231 298Q239 297 246.5 297Q254 297 261 297Q298 297 317.5 310.5Q337 324 337 356Q337 410 270 410Q253 410 231 407Z" glyph-name="afii10067" horiz-adv-x="563" unicode="&#1074;" /><glyph d="M185 502Q245 502 311 502.5Q377 503 429 504Q428 482 428 458V361Q413 361 388.5 361Q364 361 336 361Q308 361 280.5 360.5Q253 360 234 360Q234 329 234 293Q234 257 234.5 213.5Q235 170 235.5 117.5Q236 65 237 2H174Q146 2 113.5 1.5Q81 1 50 1Q50 68 49 147Q48 215 47.5 305.5Q47 396 45 502Z" glyph-name="afii10068" horiz-adv-x="443" unicode="&#1075;" /><glyph d="M76 142Q96 177 104.5 216Q113 255 118 297Q123 349 124.5 397Q126 445 126 506Q190 506 247.5 506Q305 506 358 506.5Q411 507 461 508Q511 509 561 510V421Q561 375 561.5 306Q562 237 563 141Q573 140 584 140H633V20Q633 -29 633 -78.5Q633 -128 634 -156Q608 -156 579 -155Q554 -155 522.5 -154.5Q491 -154 459 -154V-1Q429 -1 392.5 -0.5Q356 0 319.5 0Q283 0 249.5 0Q216 0 192 0Q192 -20 192 -35Q192 -50 192.5 -63Q193 -76 193 -87.5Q193 -99 193 -112H138Q113 -112 81.5 -111.5Q50 -111 18 -111Q18 -48 17.5 15.5Q17 79 16 142ZM287 276Q283 236 278 205Q273 174 262 141Q269 141 283 141Q297 141 313.5 140.5Q330 140 347.5 140Q365 140 380 140Q380 176 379.5 202.5Q379 229 379 254Q379 279 378.5 306.5Q378 334 378 371Q372 371 361.5 371Q351 371 338.5 370.5Q326 370 313 370Q300 370 291 370Q291 354 290.5 342Q290 330 289.5 319.5Q289 309 288.5 298.5Q288 288 287 276Z" glyph-name="afii10069" horiz-adv-x="650" unicode="&#1076;" /><glyph d="M307 -17Q245 -17 195 0.5Q145 18 109.5 51.5Q74 85 54.5 134Q35 183 35 245Q35 301 52 350.5Q69 400 102 437.5Q135 475 184 496.5Q233 518 298 518Q374 518 427 496Q480 474 510.5 434Q541 394 551 338.5Q561 283 552 216Q519 216 472 215Q431 214 371 213.5Q311 213 229 211Q240 107 313 107Q371 107 397 176Q416 169 442 162Q464 156 494.5 147.5Q525 139 565 130Q520 51 454 17Q388 -17 307 -17ZM303 414Q241 414 229 303L373 308Q371 361 356 387.5Q341 414 303 414Z" glyph-name="afii10070" horiz-adv-x="598" unicode="&#1077;" /><glyph d="M307 -17Q245 -17 195 0.5Q145 18 109.5 51.5Q74 85 54.5 134Q35 183 35 245Q35 301 52 350.5Q69 400 102 437.5Q135 475 184 496.5Q233 518 298 518Q374 518 427 496Q480 474 510.5 434Q541 394 551 338.5Q561 283 552 216Q519 216 472 215Q431 214 371 213.5Q311 213 229 211Q240 107 313 107Q371 107 397 176Q416 169 442 162Q464 156 494.5 147.5Q525 139 565 130Q520 51 454 17Q388 -17 307 -17ZM303 414Q241 414 229 303L373 308Q371 361 356 387.5Q341 414 303 414ZM191 558Q149 558 130 581Q111 604 111 634Q111 666 134.5 686Q158 706 192 706Q230 706 250.5 685.5Q271 665 271 633Q271 613 264.5 598.5Q258 584 246.5 575Q235 566 220.5 562Q206 558 191 558ZM410 560Q375 560 354 581Q333 602 333 637Q333 666 353.5 686.5Q374 707 412 707Q450 707 468.5 685.5Q487 664 487 634Q487 597 464.5 578.5Q442 560 410 560Z" glyph-name="afii10071" horiz-adv-x="598" unicode="&#1105;" /><glyph d="M649 -25Q638 0 626 29.5Q614 59 602 89Q590 119 578 146.5Q566 174 557 195H517Q517 125 517.5 84Q518 43 519 16H492Q479 16 462.5 16.5Q446 17 427 17Q392 17 370 16.5Q348 16 336 16V63Q336 86 336.5 119Q337 152 337 195H298Q289 174 277 146.5Q265 119 253 89Q241 59 228.5 29.5Q216 0 206 -25Q192 -23 169 -19.5Q146 -16 118 -12Q90 -8 59.5 -3.5Q29 1 0 5Q22 40 48 81Q70 116 98 164Q126 212 157 266Q137 303 103.5 361Q70 419 18 514Q48 516 81 520Q110 523 146.5 526.5Q183 530 223 534Q233 509 244 478Q254 452 268 415.5Q282 379 301 336Q310 335 320 335Q330 335 337 335Q337 380 336.5 424Q336 468 336 513Q359 512 381.5 512Q404 512 427 512Q450 512 472.5 512Q495 512 519 513Q519 468 518 424Q517 380 517 335Q523 335 533.5 335Q544 335 554 336Q572 379 586.5 415.5Q601 452 611 478Q622 509 632 534Q672 530 708.5 526.5Q745 523 774 520Q807 516 837 514Q784 419 751 361Q718 303 698 266Q729 212 757 165.5Q785 119 807 83Q833 41 855 5Q826 1 795.5 -3.5Q765 -8 737 -12Q709 -16 686 -19.5Q663 -23 649 -25Z" glyph-name="afii10072" horiz-adv-x="855" unicode="&#1078;" /><glyph d="M271 -24Q222 -24 179 -14.5Q136 -5 103 16Q70 37 48 70Q26 103 20 150Q44 154 73 158Q98 162 130.5 166.5Q163 171 201 178Q206 143 223 121.5Q240 100 266 100Q292 100 309 115Q326 130 326 154Q326 179 307.5 193.5Q289 208 259 208Q249 208 235.5 208Q222 208 211 207Q210 220 210 237Q209 251 209 269.5Q209 288 208 309Q223 308 234 308Q245 308 253 308Q281 308 299 321Q317 334 317 357Q317 377 302.5 390.5Q288 404 266 404Q243 404 227 385Q211 366 205 337Q163 345 130.5 350Q98 355 76 359Q50 363 32 366Q58 440 121 483Q184 526 278 526Q320 526 359.5 517Q399 508 429 490Q459 472 477.5 445Q496 418 496 381Q496 336 467.5 304.5Q439 273 393 259Q450 248 483.5 215Q517 182 517 131Q517 95 498 66.5Q479 38 446 18Q413 -2 368 -13Q323 -24 271 -24Z" glyph-name="afii10073" horiz-adv-x="539" unicode="&#1079;" /><glyph d="M371 247Q357 225 339 196Q321 167 302 136Q283 105 264.5 74Q246 43 230 16H147Q128 16 97.5 16Q67 16 48 15V145Q48 208 47 296.5Q46 385 45 496H106Q133 496 166 496Q199 496 231 497Q230 463 229 424Q228 391 227.5 349Q227 307 226 263Q241 288 258.5 319Q276 350 294.5 383.5Q313 417 331.5 452Q350 487 368 521H428Q454 521 486 521Q518 521 549 522V365Q549 292 549.5 194Q550 96 551 -19H489Q462 -19 429 -18.5Q396 -18 365 -18Z" glyph-name="afii10074" horiz-adv-x="596" unicode="&#1080;" /><glyph d="M371 247Q357 225 339 196Q321 167 302 136Q283 105 264.5 74Q246 43 230 16H147Q128 16 97.5 16Q67 16 48 15V145Q48 208 47 296.5Q46 385 45 496H106Q133 496 166 496Q199 496 231 497Q230 463 229 424Q228 391 227.5 349Q227 307 226 263Q241 288 258.5 319Q276 350 294.5 383.5Q313 417 331.5 452Q350 487 368 521H428Q454 521 486 521Q518 521 549 522V365Q549 292 549.5 194Q550 96 551 -19H489Q462 -19 429 -18.5Q396 -18 365 -18ZM300 542Q259 542 224.5 552Q190 562 165 580Q140 598 126.5 623Q113 648 113 677Q113 679 113.5 682Q114 685 114 687Q136 690 160 694Q180 697 203 701Q226 705 246 708Q246 641 301 641Q324 641 339 656.5Q354 672 354 703Q354 713 353 718Q369 717 389 715Q406 713 431 712Q456 711 486 709Q487 704 487 699.5Q487 695 487 690Q487 651 471.5 623Q456 595 430.5 577Q405 559 371 550.5Q337 542 300 542Z" glyph-name="afii10075" horiz-adv-x="596" unicode="&#1081;" /><glyph d="M384 -25Q370 4 354.5 35.5Q339 67 324 96.5Q309 126 295.5 152Q282 178 273 195H231Q231 175 231.5 145Q232 115 232 86Q232 53 233 17Q199 17 166 16.5Q133 16 106 16H45V513Q77 512 110 512Q143 512 170 512H232Q230 470 230 428.5Q230 387 230 335Q236 335 248 335Q260 335 270 336Q289 375 306.5 411Q324 447 337 474Q352 506 365 534Q405 530 442.5 526.5Q480 523 509 520Q543 516 574 514Q521 435 479.5 371.5Q438 308 416 270Q451 216 482.5 169Q514 122 539 85Q568 42 594 5Q566 2 535 -2.5Q504 -7 475 -11.5Q446 -16 422 -19.5Q398 -23 384 -25Z" glyph-name="afii10076" horiz-adv-x="594" unicode="&#1082;" /><glyph d="M70 -8Q56 -8 38.5 -6.5Q21 -5 14 -4L21 139Q28 136 39 136Q71 136 88.5 162Q106 188 114 250Q122 313 124 379.5Q126 446 127 505Q187 505 242 505.5Q297 506 349 506.5Q401 507 451.5 507.5Q502 508 553 509V359Q553 288 553.5 191.5Q554 95 555 -20H370Q370 80 370 173.5Q370 267 368 367Q357 367 335 366.5Q313 366 296 366Q295 347 294 324.5Q293 302 291.5 279Q290 256 288 233.5Q286 211 284 193Q277 139 262 101Q247 63 221.5 39Q196 15 158.5 3.5Q121 -8 70 -8Z" glyph-name="afii10077" horiz-adv-x="600" unicode="&#1083;" /><glyph d="M38 7Q40 71 43 150Q45 217 48.5 308.5Q52 400 55 509H137Q172 509 215 509.5Q258 510 297 511Q307 480 319 436Q330 398 345.5 343Q361 288 383 214Q396 262 417.5 345Q439 428 465 537Q505 536 546 535Q581 534 623.5 533Q666 532 707 531Q708 465 712 381Q714 309 718.5 209Q723 109 728 -15Q680 -15 636 -17Q592 -19 539 -20Q538 8 538 55Q537 95 537 159.5Q537 224 535 320Q526 288 515.5 252Q505 216 494.5 178.5Q484 141 474 103.5Q464 66 455 31H411Q391 31 364.5 30.5Q338 30 310 29Q302 58 290 100Q279 136 263 189.5Q247 243 225 315Q225 286 225 257Q225 228 225 192.5Q225 157 225.5 112Q226 67 227 5Q192 5 159 6Q130 6 97.5 6.5Q65 7 38 7Z" glyph-name="afii10078" horiz-adv-x="766" unicode="&#1084;" /><glyph d="M353 139Q342 139 307.5 139.5Q273 140 234 140Q234 111 234 89Q234 67 235 50Q235 31 236 16H147Q128 16 97.5 16Q67 16 48 15V145Q48 208 47 296.5Q46 385 45 496H106Q133 496 166 496Q199 496 231 497V440Q231 412 231 372Q231 332 232 281Q243 281 273 280.5Q303 280 352 280Q351 326 350.5 369.5Q350 413 350 447V521H413Q440 521 473 521Q506 521 537 522V365Q537 292 537.5 194Q538 96 539 -19H477Q450 -19 417 -18.5Q384 -18 353 -18Z" glyph-name="afii10079" horiz-adv-x="584" unicode="&#1085;" /><glyph d="M301 -12Q173 -12 104 57.5Q35 127 35 261Q35 321 54 369Q73 417 108 450Q143 483 192 500.5Q241 518 301 518Q365 518 415 499.5Q465 481 499.5 447Q534 413 552.5 364.5Q571 316 571 255Q571 184 550 133Q529 82 493 50Q457 18 407.5 3Q358 -12 301 -12ZM304 108Q320 108 333.5 115.5Q347 123 357 140.5Q367 158 372 186.5Q377 215 377 256Q377 397 304 397Q269 397 248.5 364.5Q228 332 228 261Q228 178 246.5 143Q265 108 304 108Z" glyph-name="afii10080" horiz-adv-x="606" unicode="&#1086;" /><glyph d="M345 359Q334 359 303.5 359Q273 359 234 358Q234 344 234 321.5Q234 299 234 272.5Q234 246 234.5 216.5Q235 187 235 159Q235 92 236 16H147Q128 16 97.5 16Q67 16 48 15V147Q48 210 47 299.5Q46 389 45 500Q167 501 292.5 501.5Q418 502 529 502V355Q529 286 529.5 191Q530 96 531 -19H469Q442 -19 409 -18.5Q376 -18 345 -18Z" glyph-name="afii10081" horiz-adv-x="576" unicode="&#1087;" /><glyph d="M45 -207Q46 -73 46 53Q46 179 46 279Q46 395 45 499Q62 498 88.5 498.5Q115 499 140 499Q169 499 200 500Q199 480 199 466.5Q199 453 199 442.5Q199 432 199 424Q199 416 199 408Q225 462 270.5 490Q316 518 366 518Q417 518 456 496.5Q495 475 521.5 438.5Q548 402 562 353.5Q576 305 576 251Q576 186 560.5 137Q545 88 517.5 55Q490 22 451 5Q412 -12 366 -12Q322 -12 286 6Q250 24 228 65Q230 -9 231.5 -60.5Q233 -112 235 -144Q237 -182 239 -206Q211 -205 177.5 -205.5Q144 -206 115 -206Q81 -207 45 -207ZM308 103Q344 103 362.5 137.5Q381 172 381 253Q381 322 362.5 360Q344 398 308 398Q232 398 232 252Q232 175 250.5 139Q269 103 308 103Z" glyph-name="afii10082" horiz-adv-x="612" unicode="&#1088;" /><glyph d="M295 -16Q167 -16 101 52Q35 120 35 254Q35 314 51.5 362.5Q68 411 100 446Q132 481 179.5 500Q227 519 289 519Q345 519 387.5 504Q430 489 460.5 463.5Q491 438 510.5 403.5Q530 369 540 329Q501 326 465.5 322Q430 318 403 315Q371 311 343 308Q339 345 325.5 368Q312 391 288 391Q262 391 243.5 357Q225 323 225 251Q225 182 243.5 150.5Q262 119 288 119Q330 119 342 193Q362 190 391 186Q416 183 452 178.5Q488 174 539 168Q528 120 504.5 85Q481 50 448.5 27.5Q416 5 376.5 -5.5Q337 -16 295 -16Z" glyph-name="afii10083" horiz-adv-x="570" unicode="&#1089;" /><glyph d="M17 403Q17 423 16.5 449Q16 475 16 504H183Q218 504 255.5 504Q293 504 330.5 504Q368 504 403 504.5Q438 505 468 505Q467 482 467 458V361Q438 361 406 361.5Q374 362 335 362Q335 300 335.5 214.5Q336 129 338 2H275Q247 2 214.5 1.5Q182 1 151 1V92Q151 137 150.5 204.5Q150 272 149 362Q120 362 87.5 362Q55 362 17 361Z" glyph-name="afii10084" horiz-adv-x="484" unicode="&#1090;" /><glyph d="M340 -235Q286 -227 251.5 -222Q217 -217 197 -214Q173 -210 161 -209Q175 -157 185 -121.5Q195 -86 201 -61Q162 58 128 157.5Q94 257 69 330Q39 415 15 484Q64 485 101 486.5Q138 488 164 490Q194 492 215 494Q235 385 255 295Q275 205 286 154Q301 229 314 295.5Q327 362 336 413Q347 473 355 524Q405 521 441 519Q477 517 500 516Q527 515 546 515Q515 405 489.5 314Q464 223 444 149.5Q424 76 408.5 19Q393 -38 381 -81Q354 -181 340 -235Z" glyph-name="afii10085" horiz-adv-x="561" unicode="&#1091;" /><glyph d="M326 -130Q326 -103 326.5 -71.5Q327 -40 327 -14Q260 -10 206 9Q152 28 113.5 61.5Q75 95 54.5 142.5Q34 190 34 251Q34 377 110 445Q186 513 326 518V584Q326 612 325.5 643.5Q325 675 324 701H384Q411 701 444 701Q477 701 512 702Q511 668 511 635V518Q578 515 632 496Q686 477 724 444Q762 411 783 364Q804 317 804 258Q804 132 728 63Q652 -6 512 -13V-78Q512 -106 512.5 -137Q513 -168 514 -193H454Q427 -193 393.5 -193.5Q360 -194 326 -194ZM510 107Q536 108 555.5 121Q575 134 588 155Q601 176 607.5 203Q614 230 614 260Q614 320 586 357.5Q558 395 510 398ZM224 253Q224 193 249.5 153.5Q275 114 327 111Q327 135 327 171.5Q327 208 327.5 248Q328 288 328 327.5Q328 367 328 398Q276 395 250 354Q224 313 224 253Z" glyph-name="afii10086" horiz-adv-x="838" unicode="&#1092;" /><glyph d="M18 2Q74 101 107 164Q140 227 155 256Q94 376 60 440Q40 478 24 506Q72 505 109.5 505.5Q147 506 173 507Q203 508 226 509Q251 441 270 395Q289 349 302 320L365 473Q377 503 386 523Q437 520 473.5 519Q510 518 533 517Q560 516 579 516Q521 408 489 345Q457 282 445 256Q512 122 550 55Q571 15 588 -14Q536 -14 499 -14Q462 -14 437 -15Q408 -16 388 -17Q359 50 337.5 99Q316 148 301 181Q281 138 266.5 105Q252 72 243 49Q232 22 225 2Q168 3 129 3Q90 3 65 3Q36 3 18 2Z" glyph-name="afii10087" horiz-adv-x="606" unicode="&#1093;" /><glyph d="M434 0Q404 0 364 0.5Q324 1 284 1.5Q244 2 208.5 2.5Q173 3 152 3Q142 3 128.5 3Q115 3 100.5 3Q86 3 72 2.5Q58 2 48 2V132Q48 195 47 286.5Q46 378 45 495H104Q130 495 163 495Q196 495 230 496Q230 436 231 374Q232 321 232.5 259Q233 197 234 142Q245 142 277 141.5Q309 141 345 141Q344 211 343 281Q342 340 341.5 405.5Q341 471 341 522H529V426Q529 378 529 307Q529 236 530 141Q537 141 547.5 141Q558 141 569.5 141Q581 141 592 141.5Q603 142 610 142V26Q610 -22 610 -70Q610 -118 611 -146H434Z" glyph-name="afii10088" horiz-adv-x="627" unicode="&#1094;" /><glyph d="M322 157Q305 152 285.5 149Q266 146 240 146Q200 146 161 157.5Q122 169 91 195.5Q60 222 41 265.5Q22 309 22 373Q22 414 23.5 448Q25 482 26 499Q60 499 93 498Q121 497 151.5 496.5Q182 496 205 495Q204 479 203 461Q202 445 202 423.5Q202 402 202 377Q202 285 271 285Q286 285 297.5 287.5Q309 290 322 295Q321 338 321 381Q321 424 320 459Q319 499 319 538H382Q409 538 442 538Q475 538 506 539V373Q506 296 506.5 195.5Q507 95 508 -19H446Q419 -19 386 -18.5Q353 -18 322 -18Z" glyph-name="afii10089" horiz-adv-x="553" unicode="&#1095;" /><glyph d="M789 0Q722 0 659.5 0.5Q597 1 544.5 1.5Q492 2 452 2.5Q412 3 391 3Q322 3 236 3Q150 3 48 2V135Q48 200 47 292Q46 384 45 501H103Q129 501 161.5 501Q194 501 228 502Q228 440 229 377Q230 323 230.5 260Q231 197 232 142Q243 142 266.5 141.5Q290 141 326 141Q325 206 324 271Q323 326 322.5 388.5Q322 451 322 502H510Q511 407 511 322Q511 237 511 142Q522 142 546 141.5Q570 141 606 141Q605 219 604 294Q604 326 603.5 360Q603 394 602.5 427.5Q602 461 602 492Q602 523 602 548H788V369Q788 290 788 192.5Q788 95 789 0Z" glyph-name="afii10090" horiz-adv-x="834" unicode="&#1096;" /><glyph d="M681 0Q651 0 609 0.5Q567 1 524.5 1.5Q482 2 444.5 2.5Q407 3 386 3Q317 3 233.5 3Q150 3 48 2V157Q48 230 47 329Q46 428 45 545H103Q129 545 161.5 545Q194 545 228 546Q228 472 229 399Q229 368 229.5 334Q230 300 230.5 266.5Q231 233 231.5 201Q232 169 232 142Q243 142 264 141.5Q285 141 321 141Q320 204 319 266Q318 320 317.5 380.5Q317 441 317 492H505Q505 444 505.5 401.5Q506 359 506 317Q506 275 506 232.5Q506 190 506 142Q517 142 538.5 141.5Q560 141 596 141Q595 219 594 294Q594 326 593.5 360Q593 394 592.5 427.5Q592 461 592 492Q592 523 592 548H778V439Q778 386 778 311Q778 236 779 141Q786 141 796 141Q806 141 816.5 141Q827 141 837 141.5Q847 142 854 142V26Q854 -22 854 -70Q854 -118 855 -146H681Z" glyph-name="afii10091" horiz-adv-x="871" unicode="&#1097;" /><glyph d="M17 415Q17 435 16.5 461Q16 487 16 516Q94 517 170 516.5Q246 516 324 518Q324 490 323.5 467Q323 444 323 423.5Q323 403 323 383Q323 363 323 341Q334 343 347.5 343.5Q361 344 369 344Q421 344 465 333.5Q509 323 541 301Q573 279 591.5 246Q610 213 610 167Q610 121 591.5 87.5Q573 54 539 32.5Q505 11 458.5 0.5Q412 -10 356 -10Q338 -10 311 -9Q284 -8 255 -6.5Q226 -5 196.5 -3.5Q167 -2 144 0Q144 47 142.5 140.5Q141 234 139 374Q110 374 82.5 374Q55 374 17 373ZM325 102Q331 101 338.5 100.5Q346 100 356 100Q388 100 404 119.5Q420 139 420 168Q420 197 403.5 215Q387 233 353 233Q344 233 337 232.5Q330 232 323 231Q324 180 324.5 144.5Q325 109 325 102Z" glyph-name="afii10092" horiz-adv-x="632" unicode="&#1098;" /><glyph d="M52 0Q52 58 50 182Q48 306 45 506H116Q145 506 177 506.5Q209 507 232 508Q232 480 231.5 459Q231 438 231 419Q231 400 231 381.5Q231 363 231 341Q242 343 255.5 343.5Q269 344 277 344Q329 344 372.5 333.5Q416 323 447.5 301Q479 279 496.5 246Q514 213 514 167Q514 121 496 87.5Q478 54 445 32.5Q412 11 366 0.5Q320 -10 264 -10Q246 -10 219 -9Q192 -8 163 -6.5Q134 -5 104.5 -3.5Q75 -2 52 0ZM233 102Q239 101 246.5 100.5Q254 100 264 100Q296 100 311 119.5Q326 139 326 168Q326 197 310.5 215Q295 233 261 233Q252 233 245 232.5Q238 232 231 231Q232 180 232.5 144.5Q233 109 233 102ZM574 123Q574 194 573 297.5Q572 401 571 540H620Q644 540 678 540.5Q712 541 756 542Q755 451 756 355Q756 314 756.5 268Q757 222 757.5 174Q758 126 758.5 77Q759 28 760 -18H707Q682 -18 648 -18.5Q614 -19 574 -19Z" glyph-name="afii10093" horiz-adv-x="805" unicode="&#1099;" /><glyph d="M52 0Q52 58 50 187Q48 316 45 516H116Q145 516 177 516.5Q209 517 232 518Q232 490 231.5 467Q231 444 231 423.5Q231 403 231 383Q231 363 231 341Q242 343 255.5 343.5Q269 344 277 344Q329 344 373 333.5Q417 323 449 301Q481 279 499.5 246Q518 213 518 167Q518 121 499.5 87.5Q481 54 447 32.5Q413 11 366.5 0.5Q320 -10 264 -10Q246 -10 219 -9Q192 -8 163 -6.5Q134 -5 104.5 -3.5Q75 -2 52 0ZM233 102Q239 101 246.5 100.5Q254 100 264 100Q296 100 312 119.5Q328 139 328 168Q328 197 311.5 215Q295 233 261 233Q252 233 245 232.5Q238 232 231 231Q232 180 232.5 144.5Q233 109 233 102Z" glyph-name="afii10094" horiz-adv-x="540" unicode="&#1100;" /><glyph d="M273 -16Q231 -16 190.5 -8.5Q150 -1 117 17.5Q84 36 59.5 67Q35 98 24 144Q48 149 77 155Q102 160 134 167Q166 174 203 183Q209 159 216.5 145Q224 131 232.5 123.5Q241 116 251 114Q261 112 271 112Q295 112 313.5 133Q332 154 337 205Q321 205 292.5 205Q264 205 225 203V306Q234 305 249 305H336Q331 355 312.5 374.5Q294 394 273 394Q250 394 233.5 379.5Q217 365 206 325Q182 329 153 333Q128 337 95.5 341.5Q63 346 25 351Q35 391 59 422Q83 453 116 475Q149 497 189 508.5Q229 520 273 520Q328 520 375 503.5Q422 487 456 453.5Q490 420 509 369Q528 318 528 250Q528 182 508.5 132Q489 82 454.5 49Q420 16 373.5 0Q327 -16 273 -16Z" glyph-name="afii10095" horiz-adv-x="563" unicode="&#1101;" /><glyph d="M542 -12Q447 -12 385 26.5Q323 65 297 140H234Q234 111 234 86Q234 61 235 41Q235 18 236 -2H147Q128 -2 97.5 -2Q67 -2 48 -3V135Q48 201 47 292Q46 383 45 494H106Q133 494 166 494Q199 494 231 495V439Q231 412 231 372Q231 332 232 281Q238 281 253.5 280.5Q269 280 280 280Q283 336 302.5 380Q322 424 356 455Q390 486 437 502Q484 518 542 518Q670 518 739 447.5Q808 377 808 255Q808 184 788 133Q768 82 732 50Q696 18 647.5 3Q599 -12 542 -12ZM545 108Q561 108 574.5 115.5Q588 123 597 140.5Q606 158 611 186.5Q616 215 616 256Q616 326 599.5 361.5Q583 397 545 397Q510 397 490.5 364.5Q471 332 471 261Q471 178 488.5 143Q506 108 545 108Z" glyph-name="afii10096" horiz-adv-x="843" unicode="&#1102;" /><glyph d="M225 0Q188 2 148.5 4Q109 6 76 8Q37 11 0 13Q20 35 40.5 58.5Q61 82 79.5 104Q98 126 113.5 145.5Q129 165 140 179Q95 197 69.5 234.5Q44 272 44 334Q44 380 63.5 415Q83 450 118.5 473.5Q154 497 204 508.5Q254 520 315 520Q331 520 359.5 519Q388 518 420 516Q452 514 483 511.5Q514 509 535 506V128Q535 46 536 -18Q515 -17 493.5 -17Q472 -17 453 -17H348Q348 13 349 44Q349 70 349.5 99.5Q350 129 351 154Q344 154 332 154Q320 154 313 155Q293 119 276.5 90.5Q260 62 249 42Q236 18 225 0ZM354 403Q343 405 334.5 405.5Q326 406 314 406Q273 406 252.5 385Q232 364 232 334Q232 296 258 280Q284 264 322 264Q329 264 337 264Q345 264 351 265Z" glyph-name="afii10097" horiz-adv-x="581" unicode="&#1103;" /><glyph d="M429 600Q429 553 429 519Q429 485 428.5 458.5Q428 432 428 409Q428 386 428 361Q413 361 388.5 361Q364 361 336 361Q308 361 280.5 360.5Q253 360 234 360Q234 329 234 293Q234 257 234.5 213.5Q235 170 235.5 117.5Q236 65 237 2H174Q146 2 113.5 1.5Q81 1 50 1Q50 68 49 147Q48 215 47.5 305.5Q47 396 45 502H253Q253 532 252.5 553Q252 574 252 600H429Z" glyph-name="afii10098" horiz-adv-x="443" unicode="&#1169;" /><glyph d="M11 544Q11 557 10.5 577Q10 597 10 625Q17 624 28 624H97Q97 638 96.5 651.5Q96 665 96 679H143Q166 679 200.5 679Q235 679 281 680Q280 673 280 664V625Q319 625 357 625.5Q395 626 427 627Q426 616 426 601Q425 587 425 567.5Q425 548 425 520Q388 520 352 520.5Q316 521 279 521V371Q298 418 336.5 448.5Q375 479 427 479Q480 479 513.5 452Q547 425 565.5 381Q584 337 591 280.5Q598 224 598 166Q598 -2 546 -87Q494 -172 376 -172Q362 -172 344.5 -171Q327 -170 320 -169L327 -26Q331 -28 335.5 -28Q340 -28 345 -28Q408 -28 408 153Q408 206 404 238.5Q400 271 392.5 289Q385 307 374.5 313.5Q364 320 351 320Q334 320 322 311Q310 302 301.5 287.5Q293 273 289 254Q285 235 285 215Q284 170 284 134.5Q284 99 284 73V18H266Q257 18 245 18.5Q233 19 217 19Q193 19 162.5 18.5Q132 18 95 17Q95 62 96 119Q97 168 97.5 235.5Q98 303 98 386V519Q74 519 52 518.5Q30 518 11 518Z" glyph-name="afii10099" horiz-adv-x="633" unicode="&#1106;" /><glyph d="M185 502Q245 502 311 502.5Q377 503 429 504Q428 482 428 458V361Q413 361 388.5 361Q364 361 336 361Q308 361 280.5 360.5Q253 360 234 360Q234 329 234 293Q234 257 234.5 213.5Q235 170 235.5 117.5Q236 65 237 2H174Q146 2 113.5 1.5Q81 1 50 1Q50 68 49 147Q48 215 47.5 305.5Q47 396 45 502ZM220 537Q198 553 182.5 563.5Q167 574 157 582Q145 590 137 596Q169 638 193 669Q217 700 233 721Q251 746 264 763Q289 744 308.5 730Q328 716 342 707Q358 696 369 688Q327 647 299.5 618.5Q272 590 254 572Q233 551 220 537Z" glyph-name="afii10100" horiz-adv-x="443" unicode="&#1107;" /><glyph d="M290 -16Q236 -16 189.5 0Q143 16 108.5 49Q74 82 54.5 132Q35 182 35 250Q35 318 54 369Q73 420 107 453.5Q141 487 187.5 503.5Q234 520 290 520Q334 520 374 508.5Q414 497 447 475Q480 453 503.5 422Q527 391 538 351Q500 346 467.5 341.5Q435 337 410 333Q381 329 357 325Q346 365 329.5 379.5Q313 394 290 394Q269 394 250.5 374.5Q232 355 227 305H314Q329 305 338 306V203Q299 205 270.5 205Q242 205 226 205Q231 154 249.5 133Q268 112 292 112Q302 112 312 114Q322 116 330.5 123.5Q339 131 346.5 145Q354 159 360 183Q396 174 428.5 167Q461 160 486 155Q515 149 539 144Q528 98 503.5 67Q479 36 446 17.5Q413 -1 372.5 -8.5Q332 -16 290 -16Z" glyph-name="afii10101" horiz-adv-x="563" unicode="&#1108;" /><glyph d="M280 -24Q231 -24 187 -15.5Q143 -7 108 13Q73 33 48 65.5Q23 98 11 146Q36 149 65 153Q115 159 194 173Q204 133 227.5 114Q251 95 280 95Q303 95 318 104.5Q333 114 333 136Q333 144 329.5 152Q326 160 315 167.5Q304 175 282.5 182Q261 189 224 196Q125 215 81.5 254Q38 293 38 363Q38 400 55 430.5Q72 461 102 482Q132 503 172.5 514.5Q213 526 260 526Q317 526 359.5 512.5Q402 499 432 475.5Q462 452 480.5 421Q499 390 508 356Q488 354 463 350Q442 347 413.5 342.5Q385 338 353 331Q346 362 327 383Q308 404 273 404Q250 404 235 394.5Q220 385 220 365Q220 356 224.5 348Q229 340 241.5 332.5Q254 325 276 317.5Q298 310 333 303Q432 283 473 244.5Q514 206 514 145Q514 103 495 71Q476 39 444 18Q412 -3 369.5 -13.5Q327 -24 280 -24Z" glyph-name="afii10102" horiz-adv-x="537" unicode="&#1109;" /><glyph d="M53 113Q53 173 52.5 267Q52 361 50 500H99Q123 500 157 500.5Q191 501 235 502Q234 428 235 345Q235 274 236 185Q237 96 239 2H186Q161 2 127 2Q93 2 53 1ZM146 544Q86 544 53 569.5Q20 595 20 643Q20 689 55 714Q90 739 145 739Q202 739 234.5 713.5Q267 688 267 643Q267 593 235.5 568.5Q204 544 146 544Z" glyph-name="afii10103" horiz-adv-x="287" unicode="&#1110;" /><glyph d="M53 113Q53 173 52.5 267Q52 361 50 500H99Q123 500 157 500.5Q191 501 235 502Q234 428 235 345Q235 274 236 185Q237 96 239 2H186Q161 2 127 2Q93 2 53 1ZM37 558Q-5 558 -24 581Q-43 604 -43 634Q-43 666 -19.5 686Q4 706 38 706Q76 706 96.5 685.5Q117 665 117 633Q117 613 110.5 598.5Q104 584 92.5 575Q81 566 66.5 562Q52 558 37 558ZM256 560Q221 560 200 581Q179 602 179 637Q179 666 199.5 686.5Q220 707 258 707Q296 707 314.5 685.5Q333 664 333 634Q333 597 310.5 578.5Q288 560 256 560Z" glyph-name="afii10104" horiz-adv-x="287" unicode="&#1111;" /><glyph d="M144 543Q112 543 88.5 551.5Q65 560 49.5 573.5Q34 587 26.5 605Q19 623 19 643Q19 684 50.5 712Q82 740 142 740Q198 740 231.5 712.5Q265 685 265 644Q265 596 230.5 569.5Q196 543 144 543ZM-69 -224Q-68 -209 -67 -187Q-66 -168 -65.5 -140Q-65 -112 -65 -73Q-43 -76 -26 -76Q17 -76 33.5 -57Q50 -38 51 7Q53 79 53 164Q53 249 52 324Q51 411 50 498Q97 496 131 496Q165 496 188 497Q214 498 232 499Q234 438 235 360Q236 293 236.5 198.5Q237 104 236 -13Q235 -125 178.5 -177.5Q122 -230 8 -230Q-29 -230 -69 -224Z" glyph-name="afii10105" horiz-adv-x="285" unicode="&#1112;" /><glyph d="M70 -8Q56 -8 38.5 -6.5Q21 -5 14 -4L21 139Q28 136 39 136Q71 136 88.5 162Q106 188 114 250Q122 313 124 379.5Q126 446 127 505Q187 505 242 505.5Q297 506 349 506.5Q401 507 451.5 507.5Q502 508 553 509V331Q564 333 577 333.5Q590 334 598 334Q650 334 694 323.5Q738 313 770 291Q802 269 820.5 236Q839 203 839 157Q839 111 820.5 77.5Q802 44 768 22.5Q734 1 687.5 -9.5Q641 -20 585 -20Q531 -20 477.5 -19Q424 -18 370 -16Q370 30 370 74.5Q370 119 370 165Q370 211 369.5 260.5Q369 310 368 367Q357 367 335 366.5Q313 366 296 366Q295 347 294 324.5Q293 302 291.5 279Q290 256 288 233.5Q286 211 284 193Q277 139 262 101Q247 63 221.5 39Q196 15 158.5 3.5Q121 -8 70 -8ZM554 92Q560 91 567.5 90.5Q575 90 585 90Q617 90 633 109.5Q649 129 649 158Q649 187 632.5 205Q616 223 582 223Q573 223 566 222.5Q559 222 553 221Q553 191 553.5 159Q554 127 554 92Z" glyph-name="afii10106" horiz-adv-x="861" unicode="&#1113;" /><glyph d="M353 139Q342 139 307.5 139.5Q273 140 234 140Q234 111 234 89Q234 67 235 50Q235 31 236 16H147Q128 16 97.5 16Q67 16 48 15V145Q48 208 47 296.5Q46 385 45 496H106Q133 496 166 496Q199 496 231 497V440Q231 412 231 372Q231 332 232 281Q243 281 273 280.5Q303 280 352 280Q351 338 350.5 375.5Q350 413 350 439Q350 465 350 483Q350 501 350 521H413Q440 521 473 521Q506 521 537 522V331Q548 333 560.5 333.5Q573 334 581 334Q633 334 677 323.5Q721 313 753 291Q785 269 803.5 236Q822 203 822 157Q822 111 803.5 77.5Q785 44 751 22.5Q717 1 670.5 -9.5Q624 -20 568 -20Q562 -20 538 -19.5Q514 -19 482 -18Q450 -17 415.5 -16Q381 -15 353 -14ZM537 221Q537 191 537.5 158.5Q538 126 538 92Q544 91 551 90.5Q558 90 568 90Q600 90 616 109.5Q632 129 632 158Q632 187 615.5 205Q599 223 565 223Q557 223 550 222.5Q543 222 537 221Z" glyph-name="afii10107" horiz-adv-x="844" unicode="&#1114;" /><glyph d="M11 544Q11 557 10.5 577Q10 597 10 625Q17 624 28 624H97Q97 638 96.5 651.5Q96 665 96 679H143Q166 679 200.5 679Q235 679 281 680Q280 673 280 664V625Q319 625 357 625.5Q395 626 427 627Q426 616 426 601Q425 587 425 567.5Q425 548 425 520Q388 520 352 520.5Q316 521 279 521V371Q298 418 336.5 448.5Q375 479 427 479Q501 479 540.5 431Q580 383 582 301Q583 226 584 169.5Q585 113 585 60Q585 42 584.5 27.5Q584 13 584 3V-18H533Q509 -18 475 -17.5Q441 -17 400 -17V248Q400 283 388.5 301.5Q377 320 351 320Q318 320 301.5 293Q285 266 285 225Q284 180 284 143Q284 106 284 78V18H266Q257 18 245 18.5Q233 19 217 19Q193 19 162.5 18.5Q132 18 95 17Q95 62 96 119Q97 168 97.5 235.5Q98 303 98 386V519Q74 519 52 518.5Q30 518 11 518Z" glyph-name="afii10108" horiz-adv-x="625" unicode="&#1115;" /><glyph d="M384 -25Q370 4 354.5 35.5Q339 67 324 96.5Q309 126 295.5 152Q282 178 273 195H231Q231 175 231.5 145Q232 115 232 86Q232 53 233 17Q199 17 166 16.5Q133 16 106 16H45V513Q77 512 110 512Q143 512 170 512H232Q230 470 230 428.5Q230 387 230 335Q236 335 248 335Q260 335 270 336Q289 375 306.5 411Q324 447 337 474Q352 506 365 534Q405 530 442.5 526.5Q480 523 509 520Q543 516 574 514Q521 435 479.5 371.5Q438 308 416 270Q451 216 482.5 169Q514 122 539 85Q568 42 594 5Q566 2 535 -2.5Q504 -7 475 -11.5Q446 -16 422 -19.5Q398 -23 384 -25ZM255 537Q233 553 217.5 563.5Q202 574 192 582Q180 590 172 596Q204 638 228 669Q252 700 268 721Q286 746 299 763Q324 744 343.5 730Q363 716 377 707Q393 696 404 688Q362 647 334.5 618.5Q307 590 289 572Q268 551 255 537Z" glyph-name="afii10109" horiz-adv-x="594" unicode="&#1116;" /><glyph d="M340 -235Q286 -227 251.5 -222Q217 -217 197 -214Q173 -210 161 -209Q175 -157 185 -121.5Q195 -86 201 -61Q162 58 128 157.5Q94 257 69 330Q39 415 15 484Q64 485 101 486.5Q138 488 164 490Q194 492 215 494Q235 385 255 295Q275 205 286 154Q301 229 314 295.5Q327 362 336 413Q347 473 355 524Q405 521 441 519Q477 517 500 516Q527 515 546 515Q515 405 489.5 314Q464 223 444 149.5Q424 76 408.5 19Q393 -38 381 -81Q354 -181 340 -235ZM279 542Q238 542 203.5 552Q169 562 144 580Q119 598 105.5 623Q92 648 92 677Q92 679 92.5 682Q93 685 93 687Q115 690 139 694Q159 697 182 701Q205 705 225 708Q225 641 280 641Q303 641 318 656.5Q333 672 333 703Q333 713 332 718Q348 717 368 715Q385 713 410 712Q435 711 465 709Q466 704 466 699.5Q466 695 466 690Q466 651 450.5 623Q435 595 409.5 577Q384 559 350 550.5Q316 542 279 542Z" glyph-name="afii10110" horiz-adv-x="561" unicode="&#1118;" /><glyph d="M226 3Q194 4 169 4.5Q144 5 134 5Q108 5 86.5 4.5Q65 4 54 4Q53 88 53 193Q52 283 52 406Q52 529 50 678H103Q129 678 163.5 678Q198 678 241 679Q242 584 243 492Q243 453 243.5 410Q244 367 244.5 324Q245 281 245.5 240.5Q246 200 246 166Q260 166 297.5 165.5Q335 165 401 165Q399 273 398 374Q398 417 397.5 463Q397 509 396.5 553.5Q396 598 395.5 639Q395 680 395 712H451Q477 712 512 712Q547 712 589 713V478Q589 426 589 367.5Q589 309 589 247.5Q589 186 589.5 123Q590 60 590 0Q548 1 502 1.5Q456 2 418 2V-170Q393 -170 363 -169Q337 -169 302.5 -168.5Q268 -168 226 -168Z" glyph-name="afii10145" horiz-adv-x="640" unicode="&#1039;" /><glyph d="M201 2Q178 3 150 3Q122 3 102 3Q82 3 71.5 3Q61 3 48 2V132Q48 195 47 286.5Q46 378 45 495H104Q130 495 163 495Q196 495 230 496Q230 436 231 374Q232 321 232.5 259Q233 197 234 142Q245 142 277 141.5Q309 141 345 141Q344 211 343 281Q342 340 341.5 405.5Q341 471 341 522H529V355Q529 280 529 187Q529 94 530 -1Q519 -1 499 -0.5Q479 0 456.5 0Q434 0 412.5 0.5Q391 1 377 1V-45Q377 -66 377 -92Q377 -118 378 -146H201Z" glyph-name="afii10193" horiz-adv-x="575" unicode="&#1119;" /><glyph d="M53 192Q53 277 52 398Q51 519 50 672Q81 674 116 676Q145 678 182.5 679Q220 680 258 681Q283 619 315 548Q342 487 378.5 406.5Q415 326 460 235Q458 292 452 416Q446 540 437 713Q460 712 487 712H611Q611 629 613 520Q615 426 617.5 294Q620 162 625 -6Q599 -8 567 -10Q540 -12 504 -14.5Q468 -17 428 -19Q400 42 367 115Q338 178 298.5 260Q259 342 211 436L228 15Q205 15 178 16Q155 16 122.5 16.5Q90 17 53 17ZM887 289Q790 289 738 341.5Q686 394 686 482Q686 526 701.5 561.5Q717 597 744.5 622.5Q772 648 809 661.5Q846 675 889 675Q933 675 970 662Q1007 649 1033.5 624Q1060 599 1075 562.5Q1090 526 1090 480Q1090 427 1072.5 390.5Q1055 354 1026.5 331.5Q998 309 961.5 299Q925 289 887 289ZM888 390Q918 390 939 409.5Q960 429 960 482Q960 529 940 549.5Q920 570 888 570Q856 570 836 547.5Q816 525 816 483Q816 435 836.5 412.5Q857 390 888 390ZM1089 121Q1089 102 1090 88Q1024 90 955.5 90.5Q887 91 833 91Q801 91 774 90.5Q747 90 727 90H686Q687 124 688 148Q689 172 689 188V218Q745 217 796 217Q847 217 891 217H1033Q1064 217 1089 218Z" glyph-name="afii61352" horiz-adv-x="1140" unicode="&#8470;" /><glyph d="M206 -17Q167 -17 134 -7Q101 3 77 21.5Q53 40 39 67Q25 94 25 128Q25 174 44 207.5Q63 241 101 264Q139 287 197.5 300.5Q256 314 334 319Q331 364 316.5 383Q302 402 274 402Q248 402 232 385.5Q216 369 211 335Q188 341 161 346Q138 351 107.5 356.5Q77 362 43 367Q72 444 130 481.5Q188 519 281 519Q345 519 390.5 504Q436 489 465 460Q494 431 507.5 389Q521 347 523 292Q525 233 525 178Q525 123 525 80Q525 30 524 -14H482Q462 -14 433 -14.5Q404 -15 369 -16Q370 -6 371 7Q372 18 372 34Q372 50 373 70Q350 23 304 3Q258 -17 206 -17ZM342 230Q212 221 212 155Q212 99 267 97Q282 97 296 102.5Q310 108 320 121.5Q330 135 336 157.5Q342 180 342 215ZM278 537Q264 551 244 572Q226 590 198.5 618.5Q171 647 130 688Q132 689 157.5 708Q183 727 232 766Q245 748 263 723Q279 702 303 671Q327 640 360 598Q350 591 338 582Q327 574 312 563Q297 552 278 537Z" glyph-name="agrave" horiz-adv-x="566" unicode="&#224;" /><glyph d="M206 -17Q167 -17 134 -7Q101 3 77 21.5Q53 40 39 67Q25 94 25 128Q25 174 44 207.5Q63 241 101 264Q139 287 197.5 300.5Q256 314 334 319Q331 364 316.5 383Q302 402 274 402Q248 402 232 385.5Q216 369 211 335Q188 341 161 346Q138 351 107.5 356.5Q77 362 43 367Q72 444 130 481.5Q188 519 281 519Q345 519 390.5 504Q436 489 465 460Q494 431 507.5 389Q521 347 523 292Q525 233 525 178Q525 123 525 80Q525 30 524 -14H482Q462 -14 433 -14.5Q404 -15 369 -16Q370 -6 371 7Q372 18 372 34Q372 50 373 70Q350 23 304 3Q258 -17 206 -17ZM342 230Q212 221 212 155Q212 99 267 97Q282 97 296 102.5Q310 108 320 121.5Q330 135 336 157.5Q342 180 342 215ZM138 605Q138 618 138 637.5Q138 657 137 685Q162 684 203 684Q238 684 294 684.5Q350 685 434 687Q433 678 433 663Q432 650 432 630.5Q432 611 432 583H364Q329 583 273 583Q217 583 138 581Z" glyph-name="amacron" horiz-adv-x="566" unicode="&#257;" /><glyph d="M292 -34Q236 -34 186.5 -21Q137 -8 100 18Q63 44 41.5 82Q20 120 20 171Q20 208 31 236Q42 264 60.5 286Q79 308 104 324.5Q129 341 157 355Q117 396 95 437Q73 478 73 520Q73 568 91.5 605Q110 642 143 667Q176 692 222.5 705Q269 718 325 718Q374 718 415.5 704.5Q457 691 487 667Q517 643 534 609.5Q551 576 551 536Q551 497 537.5 466.5Q524 436 502 413Q480 390 451.5 371.5Q423 353 393 338Q417 321 444 303.5Q471 286 500 268Q508 288 515 311.5Q522 335 527 361Q562 348 590.5 339Q619 330 640 323Q665 315 684 310Q676 275 665 243.5Q654 212 641 184Q668 168 696.5 152.5Q725 137 754 120Q744 109 732 91Q721 76 705.5 52Q690 28 669 -4L559 65Q507 14 440 -10Q373 -34 292 -34ZM261 263Q242 248 231 229Q220 210 220 187Q220 148 246.5 123.5Q273 99 318 99Q377 99 427 149Q382 178 340.5 206.5Q299 235 261 263ZM387 524Q387 550 371 571Q355 592 320 592Q287 592 267 571.5Q247 551 247 517Q247 470 298 417Q336 436 361.5 460.5Q387 485 387 524Z" glyph-name="ampersand" horiz-adv-x="754" unicode="&amp;" /><glyph d="M465 -229Q441 -232 419 -232Q349 -232 309.5 -204Q270 -176 270 -127Q270 -92 293.5 -59.5Q317 -27 370 -5L373 70Q350 23 304 3Q258 -17 206 -17Q167 -17 134 -7Q101 3 77 21.5Q53 40 39 67Q25 94 25 128Q25 174 44 207.5Q63 241 101 264Q139 287 197.5 300.5Q256 314 334 319Q331 364 316.5 383Q302 402 274 402Q248 402 232 385.5Q216 369 211 335Q188 341 161 346Q138 351 107.5 356.5Q77 362 43 367Q72 444 130 481.5Q188 519 281 519Q345 519 390.5 504Q436 489 465 460Q494 431 507.5 389Q521 347 523 292Q525 233 525 178Q525 123 525 80Q525 30 524 -14H438Q406 -31 392 -51.5Q378 -72 378 -89Q378 -113 403 -123Q428 -133 473 -131L470 -155Q468 -167 467 -185.5Q466 -204 465 -229ZM342 230Q212 221 212 155Q212 99 267 97Q282 97 296 102.5Q310 108 320 121.5Q330 135 336 157.5Q342 180 342 215Z" glyph-name="aogonek" horiz-adv-x="566" unicode="&#261;" /><glyph d="M206 -17Q167 -17 134 -7Q101 3 77 21.5Q53 40 39 67Q25 94 25 128Q25 174 44 207.5Q63 241 101 264Q139 287 197.5 300.5Q256 314 334 319Q331 364 316.5 383Q302 402 274 402Q248 402 232 385.5Q216 369 211 335Q188 341 161 346Q138 351 107.5 356.5Q77 362 43 367Q72 444 130 481.5Q188 519 281 519Q345 519 390.5 504Q436 489 465 460Q494 431 507.5 389Q521 347 523 292Q525 233 525 178Q525 123 525 80Q525 30 524 -14H482Q462 -14 433 -14.5Q404 -15 369 -16Q370 -6 371 7Q372 18 372 34Q372 50 373 70Q350 23 304 3Q258 -17 206 -17ZM342 230Q212 221 212 155Q212 99 267 97Q282 97 296 102.5Q310 108 320 121.5Q330 135 336 157.5Q342 180 342 215ZM284 545Q223 545 187.5 574.5Q152 604 152 658Q152 709 189.5 739Q227 769 284 769Q317 769 342.5 760Q368 751 384.5 735.5Q401 720 409.5 700Q418 680 418 658Q418 600 380 572.5Q342 545 284 545ZM287 602Q311 602 326.5 618Q342 634 342 658Q342 679 327.5 697Q313 715 287 715Q262 715 246 700Q230 685 230 659Q230 636 245 619Q260 602 287 602Z" glyph-name="aring" horiz-adv-x="566" unicode="&#229;" /><glyph d="M499 272Q486 273 465 274Q447 275 417 275.5Q387 276 342 276Q333 310 321 354Q310 392 295.5 443.5Q281 495 261 561Q249 520 227 444.5Q205 369 180 267Q165 269 142 270Q122 271 93 271.5Q64 272 25 272Q42 317 64 379Q83 432 109.5 509Q136 586 170 687Q187 686 213 686Q257 685 355 686Q369 642 390 580Q408 527 434.5 450Q461 373 499 272Z" glyph-name="asciicircum" horiz-adv-x="524" unicode="^" /><glyph d="M137 494Q124 494 107 496Q93 497 72.5 499Q52 501 27 503Q23 554 31.5 593Q40 632 59 658.5Q78 685 105 698.5Q132 712 166 712Q198 712 223.5 699.5Q249 687 270 672.5Q291 658 309.5 645.5Q328 633 345 633Q363 633 372.5 648.5Q382 664 384 709Q395 708 412 707Q426 706 446.5 705Q467 704 493 703Q498 598 462.5 547Q427 496 361 496Q329 496 302.5 508Q276 520 253.5 534Q231 548 212 560Q193 572 176 572Q155 572 146 554.5Q137 537 137 494Z" glyph-name="asciitilde" horiz-adv-x="519" unicode="~" /><glyph d="M156 325Q103 350 75 364Q58 372 45 377Q75 422 93 450.5Q111 479 119 493Q95 495 77 497Q59 499 46 500Q31 501 20 502Q25 526 29 546Q33 566 35 581Q38 598 39 612Q77 601 104 594Q131 587 147 583Q143 612 140 633.5Q137 655 135 671Q132 689 130 703Q159 703 183.5 704Q208 705 227 706Q249 707 267 708L251 584Q276 589 296.5 594.5Q317 600 332 604Q350 608 363 613Q367 587 370.5 566.5Q374 546 377 531Q381 513 384 500Q354 497 331 495.5Q308 494 292 492Q307 466 320 445Q333 424 343 409Q354 391 364 378Q337 368 316 360Q295 352 280 346Q262 339 250 332Q235 374 223.5 402.5Q212 431 204 450Q193 423 185 400.5Q177 378 170 361Q162 342 156 325Z" glyph-name="asterisk" horiz-adv-x="404" unicode="*" /><glyph d="M501 -207Q391 -207 304.5 -178.5Q218 -150 158 -94Q98 -38 66.5 44.5Q35 127 35 235Q35 337 71 425.5Q107 514 173 579.5Q239 645 330.5 682.5Q422 720 533 720Q659 720 749.5 685.5Q840 651 898.5 594Q957 537 985 464Q1013 391 1013 313Q1013 232 989.5 170.5Q966 109 927.5 67.5Q889 26 840 4.5Q791 -17 740 -17Q678 -17 638.5 12Q599 41 590 102Q560 40 512.5 11.5Q465 -17 411 -17Q328 -17 281.5 38Q235 93 235 190Q235 261 254.5 323Q274 385 308.5 431Q343 477 389.5 503.5Q436 530 491 530Q551 530 586 492.5Q621 455 629 397Q633 418 636.5 444Q640 470 645 502Q661 501 684 500Q704 499 732 498.5Q760 498 798 499Q790 467 780 422Q772 384 760 326Q748 268 734 190Q731 175 729 160.5Q727 146 727 135Q727 106 740.5 93Q754 80 775 80Q801 80 827.5 96Q854 112 875.5 141.5Q897 171 910.5 212.5Q924 254 924 306Q924 391 895 454Q866 517 813.5 558Q761 599 689 619.5Q617 640 530 640Q437 640 361.5 609.5Q286 579 233.5 524.5Q181 470 152.5 395Q124 320 124 230Q124 146 148 80.5Q172 15 219.5 -31Q267 -77 338.5 -101Q410 -125 505 -125Q552 -125 615 -111.5Q678 -98 750 -69L782 -149Q728 -170 657.5 -188.5Q587 -207 501 -207ZM472 108Q493 108 513 128Q525 140 536 159.5Q547 179 555.5 203Q564 227 569 254Q574 281 574 308Q574 347 562 372Q550 397 524 397Q514 397 503 392.5Q492 388 480 376Q469 365 458 345Q447 325 438 300Q429 275 423.5 247Q418 219 418 191Q418 150 432 129Q446 108 472 108Z" glyph-name="at" horiz-adv-x="1048" unicode="@" /><glyph d="M420 -36Q231 -36 130.5 57.5Q30 151 30 322Q30 403 59 475.5Q88 548 142 602.5Q196 657 273 688.5Q350 720 446 720Q549 720 623.5 690.5Q698 661 746 614Q794 567 817 508.5Q840 450 840 391Q840 325 821.5 275Q803 225 772.5 191.5Q742 158 702.5 140.5Q663 123 622 123Q567 123 533.5 146.5Q500 170 492 219Q468 169 429.5 146Q391 123 346 123Q278 123 238 171Q198 219 198 299Q198 348 212.5 396Q227 444 254.5 481.5Q282 519 321.5 542.5Q361 566 411 566Q459 566 487.5 535Q516 504 523 457Q526 474 529.5 495.5Q533 517 537 544Q552 543 571 542Q588 541 611 540.5Q634 540 665 541Q659 516 651 479Q644 447 634.5 400Q625 353 614 290Q609 262 609 248Q609 225 618 216Q627 207 644 207Q663 207 682 218.5Q701 230 716 252.5Q731 275 740.5 308Q750 341 750 385Q750 510 670.5 577Q591 644 444 644Q364 644 303.5 618.5Q243 593 202 549Q161 505 140 445.5Q119 386 119 317Q119 183 196.5 112.5Q274 42 423 42Q448 42 471 45Q494 48 517 53.5Q540 59 565 67.5Q590 76 619 87L648 13Q595 -8 535 -22Q475 -36 420 -36ZM397 229Q415 229 432 246Q444 258 452.5 274.5Q461 291 467 310Q473 329 476 348.5Q479 368 479 386Q479 416 469.5 436Q460 456 440 456Q418 456 401 439Q391 429 382 412Q373 395 366.5 374.5Q360 354 356 332.5Q352 311 352 293Q352 262 364 245.5Q376 229 397 229Z" glyph-name="at.cap" horiz-adv-x="870" /><glyph d="M206 -17Q167 -17 134 -7Q101 3 77 21.5Q53 40 39 67Q25 94 25 128Q25 174 44 207.5Q63 241 101 264Q139 287 197.5 300.5Q256 314 334 319Q331 364 316.5 383Q302 402 274 402Q248 402 232 385.5Q216 369 211 335Q188 341 161 346Q138 351 107.5 356.5Q77 362 43 367Q72 444 130 481.5Q188 519 281 519Q345 519 390.5 504Q436 489 465 460Q494 431 507.5 389Q521 347 523 292Q525 233 525 178Q525 123 525 80Q525 30 524 -14H482Q462 -14 433 -14.5Q404 -15 369 -16Q370 -6 371 7Q372 18 372 34Q372 50 373 70Q350 23 304 3Q258 -17 206 -17ZM342 230Q212 221 212 155Q212 99 267 97Q282 97 296 102.5Q310 108 320 121.5Q330 135 336 157.5Q342 180 342 215ZM174 553Q151 553 103 550Q100 586 106 616.5Q112 647 125.5 669.5Q139 692 160 705Q181 718 210 718Q234 718 253.5 709Q273 700 289.5 688.5Q306 677 320.5 668Q335 659 349 659Q364 659 372 672Q380 685 377 713Q386 713 398 714Q409 715 425.5 716.5Q442 718 466 720Q477 639 452.5 595.5Q428 552 371 552Q345 552 325 560.5Q305 569 288 579.5Q271 590 256.5 598.5Q242 607 229 607Q212 607 203.5 592Q195 577 197 553Z" glyph-name="atilde" horiz-adv-x="566" unicode="&#227;" /><glyph d="M47 154Q47 241 46.5 371.5Q46 502 45 683Q61 682 87 682Q110 682 146 681.5Q182 681 235 682Q233 653 232 614Q230 581 229.5 534.5Q229 488 228 429Q252 470 289 493Q326 516 371 516Q419 516 455.5 497Q492 478 517.5 443.5Q543 409 556 360Q569 311 569 251Q569 188 553 139.5Q537 91 508 58Q479 25 439 8Q399 -9 352 -9Q298 -9 255 15.5Q212 40 190 92L195 -15H149Q128 -15 101.5 -15Q75 -15 47 -16ZM299 102Q335 102 354.5 141Q374 180 374 255Q374 317 356.5 357Q339 397 299 397Q264 397 244 359Q224 321 224 255Q224 180 242.5 141Q261 102 299 102Z" glyph-name="b" horiz-adv-x="604" unicode="b" /><glyph d="M448 -119Q425 -118 398 -118Q375 -118 343 -118Q311 -118 273 -119Q251 -41 215 80Q184 184 133.5 346Q83 508 10 740Q31 739 57 739Q80 739 112 738.5Q144 738 184 740Q220 619 262 479Q298 359 345.5 204.5Q393 50 448 -119Z" glyph-name="backslash" horiz-adv-x="458" unicode="\" /><glyph d="M425 -50Q402 -49 375 -49Q352 -49 320 -49Q288 -49 250 -50Q234 8 202 114Q175 205 127.5 357Q80 509 7 740Q28 739 54 739Q77 739 109 738.5Q141 738 181 740Q211 637 249 513Q281 407 325.5 263Q370 119 425 -50Z" glyph-name="backslash.cap" horiz-adv-x="432" /><glyph d="M83 152Q83 213 83 283Q83 353 82.5 428.5Q82 504 81.5 583Q81 662 80 741Q96 741 120 740Q140 739 171.5 738.5Q203 738 248 739Q247 630 246 495Q245 380 245 223Q245 66 247 -120H206Q186 -120 155.5 -120Q125 -120 83 -122Z" glyph-name="bar" horiz-adv-x="328" unicode="|" /><glyph d="M93 186Q93 296 92.5 439Q92 582 90 741Q106 741 132 740Q153 739 185.5 738.5Q218 738 263 739Q262 649 261 529Q260 426 260 280Q260 134 262 -52Q244 -51 219 -51Q197 -51 166 -51Q135 -51 93 -53Z" glyph-name="bar.cap" horiz-adv-x="353" /><glyph d="M408 -125Q379 -133 345.5 -137Q312 -141 285 -141Q199 -141 163 -103Q127 -65 127 21L131 144Q131 172 126 191Q121 210 108 222Q95 234 72.5 238.5Q50 243 15 242Q15 265 16 291Q16 314 16.5 343Q17 372 17 404Q81 399 106 415Q131 431 131 476Q131 508 126.5 549.5Q122 591 122 629Q122 702 162.5 734.5Q203 767 278 767Q306 767 340 763Q374 759 400 752Q399 714 399.5 688Q400 662 401 645Q402 626 403 613Q347 620 329 606Q311 592 311 558Q311 532 314 503Q317 474 317 444Q317 395 288.5 365.5Q260 336 213 323Q313 291 313 184L309 87Q309 63 313 48Q317 33 327.5 25Q338 17 357 15.5Q376 14 405 17Q405 -22 405 -49Q405 -76 406 -93Q407 -113 408 -125Z" glyph-name="braceleft" horiz-adv-x="428" unicode="{" /><glyph d="M398 -66Q370 -74 336 -78Q302 -82 275 -82Q193 -82 155 -45.5Q117 -9 117 76Q117 102 119 128.5Q121 155 121 178Q121 229 99.5 252.5Q78 276 15 271Q15 294 16 320Q16 343 16.5 372Q17 401 17 434Q74 429 97.5 444.5Q121 460 121 506Q121 532 116.5 564Q112 596 112 628Q112 700 150 733.5Q188 767 268 767Q296 767 330 763Q364 759 390 752Q389 714 389.5 688Q390 662 391 645Q392 626 393 613Q339 619 320 606Q301 593 301 559Q301 539 304 512.5Q307 486 307 463Q307 421 284.5 395Q262 369 203 352Q257 335 280 305Q303 275 303 229Q303 207 301 185Q299 163 299 143Q299 97 320 83.5Q341 70 395 76Q395 38 395 11Q395 -16 396 -33Q397 -53 398 -66Z" glyph-name="braceleft.cap" horiz-adv-x="423" /><glyph d="M381 -66Q353 -74 319 -78Q285 -82 258 -82Q176 -82 138 -45.5Q100 -9 100 76Q100 102 102 128.5Q104 155 104 178Q104 229 82.5 252.5Q61 276 -2 271Q-2 294 -1 320Q-1 343 -0.5 372Q0 401 0 434Q57 429 80.5 444.5Q104 460 104 506Q104 532 99.5 564Q95 596 95 628Q95 700 133 733.5Q171 767 251 767Q279 767 313 763Q347 759 373 752Q372 714 372.5 688Q373 662 374 645Q375 626 376 613Q322 619 303 606Q284 593 284 559Q284 539 287 512.5Q290 486 290 463Q290 421 267.5 395Q245 369 186 352Q240 335 263 305Q286 275 286 229Q286 207 284 185Q282 163 282 143Q282 97 303 83.5Q324 70 378 76Q378 38 378 11Q378 -16 379 -33Q380 -53 381 -66Z" glyph-name="braceleft.captab" horiz-adv-x="390" /><glyph d="M353 -125Q324 -133 300.5 -137Q277 -141 250 -141Q164 -141 128 -103Q92 -65 92 21L96 144Q96 193 78 217Q60 241 10 242Q10 265 11 291Q11 314 11.5 343Q12 372 12 404Q57 403 76.5 419Q96 435 96 476Q96 508 91.5 549.5Q87 591 87 629Q87 702 127.5 734.5Q168 767 243 767Q271 767 295 763Q319 759 345 752Q344 714 344.5 688Q345 662 346 645Q347 626 348 613Q308 618 292 605Q276 592 276 558Q276 532 279 503Q282 474 282 444Q282 395 253.5 365.5Q225 336 178 323Q278 291 278 184L274 87Q274 66 277 51.5Q280 37 288.5 28.5Q297 20 312 17.5Q327 15 350 17Q350 -22 350 -49Q350 -76 351 -93Q352 -113 353 -125Z" glyph-name="braceleft.tab" horiz-adv-x="360" /><glyph d="M20 -130Q21 -118 22 -99Q23 -82 23 -56Q23 -30 23 8Q79 1 100.5 14Q122 27 122 71Q122 98 118.5 127.5Q115 157 115 189Q115 231 139.5 267.5Q164 304 221 319Q164 333 138 366Q112 399 112 449Q112 480 115 505.5Q118 531 118 557Q118 591 99.5 603.5Q81 616 26 612Q27 626 28 646Q29 663 29 689.5Q29 716 29 753Q53 758 84.5 762Q116 766 142 766Q233 766 269.5 730.5Q306 695 306 626Q306 588 301.5 550Q297 512 297 480Q297 433 322.5 415.5Q348 398 411 403Q411 371 411 342.5Q411 314 412 292Q412 266 413 244Q350 249 323 226Q296 203 296 154L304 5Q304 -73 267 -110Q230 -147 145 -146Q118 -146 83.5 -142Q49 -138 20 -130Z" glyph-name="braceright" horiz-adv-x="428" unicode="}" /><glyph d="M25 -70Q26 -58 27 -39Q28 -22 28 4Q28 30 28 68Q86 60 106.5 74Q127 88 127 127Q127 150 123.5 177Q120 204 120 230Q120 276 145.5 305.5Q171 335 226 349Q167 362 142 391Q117 420 117 464Q117 488 120 512Q123 536 123 556Q123 590 105 603Q87 616 31 612Q32 626 33 646Q34 663 34 689.5Q34 716 34 753Q58 758 90.5 762Q123 766 150 766Q195 766 226 756.5Q257 747 276 729.5Q295 712 303 686.5Q311 661 311 629Q311 597 306.5 565Q302 533 302 506Q302 459 325.5 443Q349 427 406 432Q406 400 406 371.5Q406 343 407 321Q407 295 408 274Q348 279 324.5 258Q301 237 301 186Q301 157 305 125.5Q309 94 309 62Q309 -15 272 -51.5Q235 -88 150 -87Q123 -87 88.5 -82.5Q54 -78 25 -70Z" glyph-name="braceright.cap" horiz-adv-x="423" /><glyph d="M8 -70Q9 -58 10 -39Q11 -22 11 4Q11 30 11 68Q69 60 89.5 74Q110 88 110 127Q110 150 106.5 177Q103 204 103 230Q103 276 128.5 305.5Q154 335 209 349Q150 362 125 391Q100 420 100 464Q100 488 103 512Q106 536 106 556Q106 590 88 603Q70 616 14 612Q15 626 16 646Q17 663 17 689.5Q17 716 17 753Q41 758 73.5 762Q106 766 133 766Q178 766 209 756.5Q240 747 259 729.5Q278 712 286 686.5Q294 661 294 629Q294 597 289.5 565Q285 533 285 506Q285 459 308.5 443Q332 427 389 432Q389 400 389 371.5Q389 343 390 321Q390 295 391 274Q331 279 307.5 258Q284 237 284 186Q284 157 288 125.5Q292 94 292 62Q292 -15 255 -51.5Q218 -88 133 -87Q106 -87 71.5 -82.5Q37 -78 8 -70Z" glyph-name="braceright.captab" horiz-adv-x="390" /><glyph d="M7 -130Q8 -118 9 -99Q10 -82 10 -56Q10 -30 10 8Q52 3 70.5 16Q89 29 89 71Q89 98 85.5 127.5Q82 157 82 189Q82 231 106.5 267.5Q131 304 188 319Q131 333 105 366Q79 399 79 449Q79 480 82 505.5Q85 531 85 557Q85 589 70 602.5Q55 616 13 612Q14 626 15 646Q16 663 16 689.5Q16 716 16 753Q40 758 61.5 762Q83 766 109 766Q200 766 236.5 730.5Q273 695 273 626Q273 588 268.5 550Q264 512 264 480Q264 440 283 421.5Q302 403 348 403Q348 371 348 342.5Q348 314 349 292Q349 266 350 244Q302 243 282.5 218Q263 193 263 154L271 5Q271 -73 234 -110Q197 -147 112 -146Q85 -146 60.5 -142Q36 -138 7 -130Z" glyph-name="braceright.tab" horiz-adv-x="360" /><glyph d="M344 -131Q302 -130 255 -129Q214 -128 163.5 -128Q113 -128 59 -129Q60 -38 60 91Q60 202 58.5 367Q57 532 55 755H135Q173 755 224.5 755Q276 755 339 757V717Q339 677 342 617H312Q298 617 282 616Q266 615 250 614Q249 517 249 415Q249 327 249 223Q249 119 251 20Q265 19 281 19Q295 18 312.5 18Q330 18 348 18Q347 0 346 -23Q345 -43 344.5 -70Q344 -97 344 -131Z" glyph-name="bracketleft" horiz-adv-x="373" unicode="[" /><glyph d="M354 -72Q310 -71 262 -70Q220 -69 169 -69Q118 -69 64 -69Q65 5 65 121Q65 221 63.5 376.5Q62 532 60 755H143Q182 755 234 755Q286 755 349 757V717Q349 677 352 617H320Q306 617 288.5 616Q271 615 255 614Q254 534 254 445Q254 369 254 273.5Q254 178 256 79Q271 78 289 78Q303 77 321.5 77Q340 77 358 77Q357 59 356 36Q355 16 354.5 -11Q354 -38 354 -72Z" glyph-name="bracketleft.cap" horiz-adv-x="388" /><glyph d="M355 -72Q311 -71 263 -70Q221 -69 170 -69Q119 -69 65 -69Q66 5 66 121Q66 221 64.5 376.5Q63 532 61 755H144Q183 755 235 755Q287 755 350 757V717Q350 677 353 617H321Q307 617 289.5 616Q272 615 256 614Q255 534 255 445Q255 369 255 273.5Q255 178 257 79Q272 78 290 78Q304 77 322.5 77Q341 77 359 77Q358 59 357 36Q356 16 355.5 -11Q355 -38 355 -72Z" glyph-name="bracketleft.captab" horiz-adv-x="390" /><glyph d="M332 -131Q293 -130 248 -129Q210 -128 160.5 -128Q111 -128 57 -129Q58 -38 58 91Q58 202 56.5 367Q55 532 53 755H128Q164 755 214 755Q264 755 327 757V717Q327 677 330 617H305Q294 617 279 616Q264 615 248 614Q247 517 247 415Q247 327 247 223Q247 119 249 20Q260 19 274 19Q286 18 302 18Q318 18 336 18Q335 0 334 -23Q333 -43 332.5 -70Q332 -97 332 -131Z" glyph-name="bracketleft.tab" horiz-adv-x="360" /><glyph d="M30 -129Q29 -95 28.5 -68Q28 -41 27 -21Q26 2 25 19Q43 19 60.5 19Q78 19 92 20Q108 20 123 21Q124 66 124.5 116Q125 166 125 216.5Q125 267 124.5 317Q124 367 124 412Q123 518 122 622Q107 623 91 623Q75 623 61 623H31Q32 652 32 677.5Q32 703 32 723V765Q92 763 143.5 763Q195 763 233 763H315Q312 559 311.5 395.5Q311 232 311 116Q311 -20 313 -125Q268 -125 218.5 -125.5Q169 -126 127 -127Q78 -128 30 -129Z" glyph-name="bracketright" horiz-adv-x="370" unicode="]" /><glyph d="M35 -70Q34 -36 33.5 -9Q33 18 32 38Q31 61 30 79Q48 78 66 78.5Q84 79 99 79Q117 79 133 80Q134 125 134.5 172.5Q135 220 135 266.5Q135 313 134.5 357.5Q134 402 134 441Q133 533 132 622Q117 623 100 623Q83 623 69 623H36Q37 652 37 677.5Q37 703 37 723V765Q97 763 149.5 763Q202 763 241 763H325Q322 559 321.5 405.5Q321 252 321 146Q321 23 323 -66Q278 -65 228 -65.5Q178 -66 135 -67Q85 -68 35 -70Z" glyph-name="bracketright.cap" horiz-adv-x="385" /><glyph d="M38 -70Q37 -36 36.5 -9Q36 18 35 38Q34 61 33 79Q51 79 69 79Q87 79 101.5 79Q116 79 125.5 79.5Q135 80 136 80Q137 140 137.5 202Q138 264 137.5 322.5Q137 381 137 433.5Q137 486 136.5 526Q136 566 135.5 591.5Q135 617 135 622Q120 623 103.5 623.5Q87 624 73 624Q59 624 49.5 623.5Q40 623 39 623Q40 652 40 677.5Q40 703 40 723V765Q100 764 152 763.5Q204 763 242.5 763Q281 763 303.5 763Q326 763 328 763Q325 560 324.5 412.5Q324 265 324 165Q324 65 325 9Q326 -47 326 -66Q281 -65 231 -65.5Q181 -66 138 -67Q88 -68 38 -70Z" glyph-name="bracketright.captab" horiz-adv-x="390" /><glyph d="M31 -129Q30 -95 29.5 -68Q29 -41 28 -21Q27 2 26 19Q62 19 87 20Q112 21 114 21Q115 81 115.5 147.5Q116 214 115.5 279Q115 344 115 404Q115 464 114.5 510.5Q114 557 113.5 587Q113 617 113 622Q83 624 58.5 624Q34 624 32 623Q33 652 33 677.5Q33 703 33 723V765Q93 764 142.5 763.5Q192 763 227.5 763Q263 763 283.5 763Q304 763 306 763Q301 356 302 134.5Q303 -87 304 -125Q259 -125 211 -125.5Q163 -126 123 -127Q75 -128 31 -129Z" glyph-name="bracketright.tab" horiz-adv-x="360" /><glyph d="M303 552Q218 552 175 593.5Q132 635 136 703Q148 703 165 704Q179 705 200.5 705.5Q222 706 249 708Q248 675 262.5 658Q277 641 304 641Q330 641 345.5 660.5Q361 680 356 718H384Q398 718 420 718Q442 718 472 719Q475 675 464 643.5Q453 612 430.5 592Q408 572 375 562Q342 552 303 552Z" glyph-name="breve" horiz-adv-x="606" unicode="&#728;" /><glyph d="M190 179Q117 179 71 225Q25 271 25 353Q25 388 35.5 419Q46 450 67 473.5Q88 497 118.5 510.5Q149 524 188 524Q227 524 257.5 510Q288 496 309 472.5Q330 449 341 418.5Q352 388 352 355Q352 311 339.5 278.5Q327 246 305 223.5Q283 201 253.5 190Q224 179 190 179Z" glyph-name="bullet" horiz-adv-x="377" unicode="&#8226;" /><glyph d="M295 -16Q167 -16 101 52Q35 120 35 254Q35 314 51.5 362.5Q68 411 100 446Q132 481 179.5 500Q227 519 289 519Q345 519 387.5 504Q430 489 460.5 463.5Q491 438 510.5 403.5Q530 369 540 329Q501 326 465.5 322Q430 318 403 315Q371 311 343 308Q339 345 325.5 368Q312 391 288 391Q262 391 243.5 357Q225 323 225 251Q225 182 243.5 150.5Q262 119 288 119Q330 119 342 193Q362 190 391 186Q416 183 452 178.5Q488 174 539 168Q528 120 504.5 85Q481 50 448.5 27.5Q416 5 376.5 -5.5Q337 -16 295 -16Z" glyph-name="c" horiz-adv-x="570" unicode="c" /><glyph d="M295 -16Q167 -16 101 52Q35 120 35 254Q35 314 51.5 362.5Q68 411 100 446Q132 481 179.5 500Q227 519 289 519Q345 519 387.5 504Q430 489 460.5 463.5Q491 438 510.5 403.5Q530 369 540 329Q501 326 465.5 322Q430 318 403 315Q371 311 343 308Q339 345 325.5 368Q312 391 288 391Q262 391 243.5 357Q225 323 225 251Q225 182 243.5 150.5Q262 119 288 119Q330 119 342 193Q362 190 391 186Q416 183 452 178.5Q488 174 539 168Q528 120 504.5 85Q481 50 448.5 27.5Q416 5 376.5 -5.5Q337 -16 295 -16ZM294 537Q272 553 256.5 563.5Q241 574 231 582Q219 590 211 596Q243 638 267 669Q291 700 307 721Q325 746 338 763Q363 744 382.5 730Q402 716 416 707Q432 696 443 688Q401 647 373.5 618.5Q346 590 328 572Q307 551 294 537Z" glyph-name="cacute" horiz-adv-x="570" unicode="&#263;" /><glyph d="M193 743Q218 720 238.5 701.5Q259 683 273 670Q290 655 303 643Q330 666 351.5 684Q373 702 387 715Q404 730 416 742Q433 722 446 708.5Q459 695 467 686Q477 675 483 669Q451 640 427 617.5Q403 595 386 579Q367 561 353 547Q324 549 305.5 549Q287 549 276 549Q264 549 257 548Q228 575 204 598Q180 621 163 638Q143 657 126 674Q143 691 156 704Q169 717 177 726Q187 736 193 743Z" glyph-name="caron" horiz-adv-x="606" unicode="&#711;" /><glyph d="M295 -16Q167 -16 101 52Q35 120 35 254Q35 314 51.5 362.5Q68 411 100 446Q132 481 179.5 500Q227 519 289 519Q345 519 387.5 504Q430 489 460.5 463.5Q491 438 510.5 403.5Q530 369 540 329Q501 326 465.5 322Q430 318 403 315Q371 311 343 308Q339 345 325.5 368Q312 391 288 391Q262 391 243.5 357Q225 323 225 251Q225 182 243.5 150.5Q262 119 288 119Q330 119 342 193Q362 190 391 186Q416 183 452 178.5Q488 174 539 168Q528 120 504.5 85Q481 50 448.5 27.5Q416 5 376.5 -5.5Q337 -16 295 -16ZM176 743Q201 720 221.5 701.5Q242 683 256 670Q273 655 286 643Q313 666 334.5 684Q356 702 370 715Q387 730 399 742Q416 722 429 708.5Q442 695 450 686Q460 675 466 669Q434 640 410 617.5Q386 595 369 579Q350 561 336 547Q307 549 288.5 549Q270 549 259 549Q247 549 240 548Q211 575 187 598Q163 621 146 638Q126 657 109 674Q126 691 139 704Q152 717 160 726Q170 736 176 743Z" glyph-name="ccaron" horiz-adv-x="570" unicode="&#269;" /><glyph d="M539 168Q530 125 510 93Q490 61 462.5 38.5Q435 16 401.5 3Q368 -10 331 -14Q330 -28 331 -56Q390 -57 419 -78.5Q448 -100 448 -135Q448 -177 407 -203Q366 -229 288 -229Q264 -229 235.5 -224Q207 -219 182 -208Q184 -200 186 -189Q188 -180 190 -167.5Q192 -155 194 -140Q237 -160 278 -160Q300 -160 312.5 -153Q325 -146 325 -131Q325 -116 303 -107Q281 -98 230 -102Q232 -92 235 -79Q237 -68 240 -51Q243 -34 247 -13Q143 -1 89 66Q35 133 35 254Q35 314 51.5 362.5Q68 411 100 446Q132 481 179.5 500Q227 519 289 519Q345 519 387.5 504Q430 489 460.5 463.5Q491 438 510.5 403.5Q530 369 540 329Q501 326 465.5 322Q430 318 403 315Q371 311 343 308Q339 345 325.5 368Q312 391 288 391Q262 391 243.5 357Q225 323 225 251Q225 182 243.5 150.5Q262 119 288 119Q330 119 342 193Q362 190 391 186Q416 183 452 178.5Q488 174 539 168Z" glyph-name="ccedilla" horiz-adv-x="570" unicode="&#231;" /><glyph d="M295 -16Q167 -16 101 52Q35 120 35 254Q35 314 51.5 362.5Q68 411 100 446Q132 481 179.5 500Q227 519 289 519Q345 519 387.5 504Q430 489 460.5 463.5Q491 438 510.5 403.5Q530 369 540 329Q501 326 465.5 322Q430 318 403 315Q371 311 343 308Q339 345 325.5 368Q312 391 288 391Q262 391 243.5 357Q225 323 225 251Q225 182 243.5 150.5Q262 119 288 119Q330 119 342 193Q362 190 391 186Q416 183 452 178.5Q488 174 539 168Q528 120 504.5 85Q481 50 448.5 27.5Q416 5 376.5 -5.5Q337 -16 295 -16ZM176 535Q170 541 160 552Q152 560 139 573.5Q126 587 109 604Q126 621 146 640Q163 657 187 679.5Q211 702 240 730Q247 729 259 729Q270 729 288.5 729Q307 729 336 731Q350 716 369 698Q386 682 410 660Q434 638 466 609Q460 603 450 592Q442 583 429 569.5Q416 556 399 536Q387 548 370 563Q356 576 334.5 594Q313 612 286 635Q273 623 256 608Q242 595 221.5 576.5Q201 558 176 535Z" glyph-name="ccircumflex" horiz-adv-x="570" unicode="&#265;" /><glyph d="M353 -1Q352 -8 352 -17Q352 -25 351.5 -34.5Q351 -44 352 -56Q411 -57 440 -78.5Q469 -100 469 -135Q469 -177 428 -203Q387 -229 309 -229Q285 -229 256.5 -224Q228 -219 203 -208Q205 -200 207 -189Q209 -180 211 -167.5Q213 -155 215 -140Q258 -160 299 -160Q321 -160 333.5 -153Q346 -146 346 -131Q346 -116 324 -107Q302 -98 251 -102Q253 -91 257 -76Q259 -63 262.5 -44.5Q266 -26 270 -2Z" glyph-name="cedilla" horiz-adv-x="620" unicode="&#184;" /><glyph d="M230 42Q140 65 87.5 138.5Q35 212 35 336Q35 454 84 529.5Q133 605 230 626Q228 648 227.5 667.5Q227 687 225 702Q223 720 222 734Q298 732 350 734Q379 734 405 735Q402 697 399.5 669Q397 641 396 622Q478 599 524.5 542.5Q571 486 573 414Q524 410 487 407Q450 404 424 401Q394 397 373 394Q369 443 351.5 469.5Q334 496 304 496Q265 496 247.5 455Q230 414 230 344Q230 255 250.5 218Q271 181 308 181Q366 181 374 275Q395 271 424 267Q449 263 486.5 259Q524 255 575 250Q564 162 517.5 111Q471 60 396 42Q397 19 398 1Q399 -17 400 -31Q401 -47 402 -59Q362 -58 329 -58Q296 -58 273 -58Q246 -58 224 -59Z" glyph-name="cent" horiz-adv-x="605" unicode="&#162;" /><glyph d="M224 -59Q227 -17 228.5 13.5Q230 44 231 57Q140 80 87.5 153.5Q35 227 35 351Q35 469 84 544.5Q133 620 230 641Q229 665 228 687Q227 709 225 726Q223 746 222 764Q298 762 350 764Q379 764 405 765L395 637Q478 615 524.5 558Q571 501 573 429Q524 425 487 422Q450 419 424 416Q394 412 373 409Q369 458 351.5 484.5Q334 511 304 511Q265 511 247.5 470Q230 429 230 359Q230 270 250.5 233Q271 196 308 196Q366 196 374 290Q395 286 424 282Q449 278 486.5 274Q524 270 575 265Q564 177 517 125.5Q470 74 396 57Q397 31 398 9.5Q399 -12 400 -27Q401 -45 402 -59Q362 -58 329 -58Q296 -58 273 -58Q246 -58 224 -59Z" glyph-name="cent.cap" horiz-adv-x="605" /><glyph d="M247 -59Q250 -17 251.5 13.5Q253 44 254 57Q163 80 110.5 153.5Q58 227 58 351Q58 469 107 544.5Q156 620 253 641Q252 665 251 687Q250 709 248 726Q246 746 245 764Q321 762 373 764Q402 764 428 765L418 637Q501 615 547.5 558Q594 501 596 429Q547 425 510 422Q473 419 447 416Q417 412 396 409Q392 458 374.5 484.5Q357 511 327 511Q288 511 270.5 470Q253 429 253 359Q253 270 273.5 233Q294 196 331 196Q389 196 397 290Q418 286 447 282Q472 278 509.5 274Q547 270 598 265Q587 177 540 125.5Q493 74 419 57Q420 31 421 9.5Q422 -12 423 -27Q424 -45 425 -59Q385 -58 352 -58Q319 -58 296 -58Q269 -58 247 -59Z" glyph-name="cent.captab" horiz-adv-x="650" /><glyph d="M235 42Q145 65 92.5 138.5Q40 212 40 336Q40 454 89 529.5Q138 605 235 626Q233 648 232.5 667.5Q232 687 230 702Q228 720 227 734Q303 732 355 734Q384 734 410 735Q407 697 404.5 669Q402 641 401 622Q483 599 529.5 542.5Q576 486 578 414Q529 410 492 407Q455 404 429 401Q399 397 378 394Q374 443 356.5 469.5Q339 496 309 496Q270 496 252.5 455Q235 414 235 344Q235 255 255.5 218Q276 181 313 181Q371 181 379 275Q400 271 429 267Q454 263 491.5 259Q529 255 580 250Q569 162 522.5 111Q476 60 401 42Q402 19 403 1Q404 -17 405 -31Q406 -47 407 -59Q367 -58 334 -58Q301 -58 278 -58Q251 -58 229 -59Z" glyph-name="cent.tab" horiz-adv-x="615" /><glyph d="M193 535Q187 541 177 552Q169 560 156 573.5Q143 587 126 604Q143 621 163 640Q180 657 204 679.5Q228 702 257 730Q264 729 276 729Q287 729 305.5 729Q324 729 353 731Q367 716 386 698Q403 682 427 660Q451 638 483 609Q477 603 467 592Q459 583 446 569.5Q433 556 416 536Q404 548 387 563Q373 576 351.5 594Q330 612 303 635Q290 623 273 608Q259 595 238.5 576.5Q218 558 193 535Z" glyph-name="circumflex" horiz-adv-x="606" unicode="&#710;" /><glyph d="M147 -18Q99 -18 68 13.5Q37 45 37 93Q37 142 68.5 173Q100 204 149 204Q200 204 229.5 173Q259 142 259 93Q259 37 227.5 9.5Q196 -18 147 -18ZM145 296Q96 296 65.5 328Q35 360 35 411Q35 459 66.5 488.5Q98 518 146 518Q197 518 226.5 487Q256 456 256 411Q256 381 247 359.5Q238 338 222.5 324Q207 310 187 303Q167 296 145 296Z" glyph-name="colon" horiz-adv-x="294" unicode=":" /><glyph d="M163 -18Q115 -18 84 13.5Q53 45 53 93Q53 142 84.5 173Q116 204 165 204Q216 204 245.5 173Q275 142 275 93Q275 37 243.5 9.5Q212 -18 163 -18ZM161 296Q112 296 81.5 328Q51 360 51 411Q51 459 82.5 488.5Q114 518 162 518Q213 518 242.5 487Q272 456 272 411Q272 381 263 359.5Q254 338 238.5 324Q223 310 203 303Q183 296 161 296Z" glyph-name="colon.captab" horiz-adv-x="325" /><glyph d="M154 -18Q106 -18 75 13.5Q44 45 44 93Q44 142 75.5 173Q107 204 156 204Q207 204 236.5 173Q266 142 266 93Q266 37 234.5 9.5Q203 -18 154 -18ZM152 296Q103 296 72.5 328Q42 360 42 411Q42 459 73.5 488.5Q105 518 153 518Q204 518 233.5 487Q263 456 263 411Q263 381 254 359.5Q245 338 229.5 324Q214 310 194 303Q174 296 152 296Z" glyph-name="colon.tab" horiz-adv-x="307" /><glyph d="M103 -173Q83 -156 68.5 -143Q54 -130 43 -122Q31 -112 21 -105Q56 -73 74.5 -44Q93 -15 100 -1Q68 8 50 37Q32 66 32 98Q32 121 40 141.5Q48 162 62.5 177.5Q77 193 97.5 202Q118 211 143 211Q192 211 227 178Q262 145 262 83Q262 14 217.5 -50Q173 -114 103 -173Z" glyph-name="comma" horiz-adv-x="278" unicode="," /><glyph d="M127 -173Q107 -156 92.5 -143Q78 -130 67 -122Q55 -112 45 -105Q80 -73 98.5 -44Q117 -15 124 -1Q92 8 74 37Q56 66 56 98Q56 121 64 141.5Q72 162 86.5 177.5Q101 193 121.5 202Q142 211 167 211Q216 211 251 178Q286 145 286 83Q286 14 241.5 -50Q197 -114 127 -173Z" glyph-name="comma.captab" horiz-adv-x="325" /><glyph d="M118 -173Q98 -156 83.5 -143Q69 -130 58 -122Q46 -112 36 -105Q71 -73 89.5 -44Q108 -15 115 -1Q83 8 65 37Q47 66 47 98Q47 121 55 141.5Q63 162 77.5 177.5Q92 193 112.5 202Q133 211 158 211Q207 211 242 178Q277 145 277 83Q277 14 232.5 -50Q188 -114 118 -173Z" glyph-name="comma.tab" horiz-adv-x="307" /><glyph d="M381 -108Q381 -129 371 -150.5Q361 -172 344 -192.5Q327 -213 304 -232.5Q281 -252 254 -268Q243 -256 235.5 -247.5Q228 -239 223 -234L214 -225Q236 -210 253 -191.5Q270 -173 279 -161Q256 -156 243 -139.5Q230 -123 230 -101Q230 -73 250.5 -54Q271 -35 306 -35Q341 -35 361 -55Q381 -75 381 -108Z" glyph-name="commaaccent" horiz-adv-x="606" /><glyph d="M389 118Q295 118 244 170.5Q193 223 193 319Q193 360 206 397Q219 434 243.5 461.5Q268 489 304.5 505.5Q341 522 388 522Q431 522 464.5 510Q498 498 522 477.5Q546 457 560 429Q574 401 578 368Q545 365 518.5 362.5Q492 360 473 358Q451 355 435 353Q431 385 419 402Q407 419 390 419Q341 419 341 319Q341 269 355 247Q369 225 390 225Q408 225 419.5 243Q431 261 436 303Q469 299 496 296.5Q523 294 542 292Q564 290 582 289Q570 206 519 162Q468 118 389 118ZM379 -23Q295 -23 230.5 4.5Q166 32 122.5 80Q79 128 57 193Q35 258 35 332Q35 407 61.5 469Q88 531 136 575.5Q184 620 250.5 644.5Q317 669 398 669Q472 669 535 644Q598 619 644 574Q690 529 716 466Q742 403 742 327Q742 237 713 171Q684 105 634.5 62Q585 19 519 -2Q453 -23 379 -23ZM385 36Q451 36 505 56.5Q559 77 597 115Q635 153 656 206Q677 259 677 325Q677 386 657.5 438Q638 490 601.5 528Q565 566 512.5 588Q460 610 395 610Q325 610 270 589Q215 568 177.5 530Q140 492 120 439.5Q100 387 100 324Q100 264 119 211.5Q138 159 174.5 120Q211 81 264 58.5Q317 36 385 36Z" glyph-name="copyright" horiz-adv-x="777" unicode="&#169;" /><glyph d="M399 123Q354 123 316.5 135.5Q279 148 252 174.5Q225 201 210 241.5Q195 282 195 339Q195 394 211.5 435Q228 476 256.5 503Q285 530 323 543.5Q361 557 405 557Q496 557 541 517Q586 477 595 408Q562 405 535.5 402.5Q509 400 490 398Q468 395 452 393Q444 454 400 454Q368 454 355.5 422Q343 390 343 339Q343 282 357 256Q371 230 400 230Q426 230 437 246.5Q448 263 453 303Q486 299 513 296.5Q540 294 559 292Q581 290 599 289Q592 238 571 206Q550 174 522 155.5Q494 137 461.5 130Q429 123 399 123ZM389 -23Q307 -23 241.5 2.5Q176 28 130 76.5Q84 125 59.5 194.5Q35 264 35 352Q35 436 63.5 502Q92 568 142 614Q192 660 260 684.5Q328 709 408 709Q488 709 553 684.5Q618 660 664.5 613.5Q711 567 736.5 499.5Q762 432 762 347Q762 262 738.5 193.5Q715 125 668 77Q621 29 551.5 3Q482 -23 389 -23ZM395 36Q460 36 515 53Q570 70 610.5 107Q651 144 674 203Q697 262 697 345Q697 416 678 472.5Q659 529 622.5 568.5Q586 608 531.5 629Q477 650 405 650Q332 650 275 629Q218 608 179 568Q140 528 120 471.5Q100 415 100 344Q100 267 121 209.5Q142 152 180.5 113.5Q219 75 273.5 55.5Q328 36 395 36Z" glyph-name="copyright.cap" horiz-adv-x="797" /><glyph d="M303 746Q262 746 226.5 757Q191 768 165 786.5Q139 805 124.5 831Q110 857 110 887Q110 889 110.5 892Q111 895 111 897L160 904Q181 907 205 911Q229 915 249 918Q251 886 264.5 868.5Q278 851 304 851Q326 851 341.5 869Q357 887 357 913Q357 923 356 928Q373 927 395 925Q414 923 439.5 922Q465 921 495 919Q496 914 496 909.5Q496 905 496 900Q496 861 480 832Q464 803 437 784Q410 765 375 755.5Q340 746 303 746Z" glyph-name="cyrBreve" horiz-adv-x="606" unicode="&#63185;" /><glyph d="M303 542Q262 542 227.5 552Q193 562 168 580Q143 598 129.5 623Q116 648 116 677Q116 679 116.5 682Q117 685 117 687Q139 690 163 694Q183 697 206 701Q229 705 249 708Q249 641 304 641Q327 641 342 656.5Q357 672 357 703Q357 713 356 718Q372 717 392 715Q409 713 434 712Q459 711 489 709Q490 704 490 699.5Q490 695 490 690Q490 651 474.5 623Q459 595 433.5 577Q408 559 374 550.5Q340 542 303 542Z" glyph-name="cyrbreve" horiz-adv-x="606" unicode="&#63188;" /><glyph d="M559 -4Q533 -3 507 -3H408Q409 7 410 22Q411 47 413 97Q391 43 348 15.5Q305 -12 252 -12Q203 -12 163 5Q123 22 94.5 55.5Q66 89 50.5 139Q35 189 35 254Q35 313 48.5 361.5Q62 410 88 444.5Q114 479 153 498Q192 517 242 517Q285 517 319 495.5Q353 474 376 437Q375 479 373.5 541.5Q372 604 369 688Q381 687 407 687Q428 687 465 687Q502 687 560 689Q559 598 559 488Q558 394 558 268Q558 142 559 -4ZM305 104Q338 104 359.5 136.5Q381 169 381 251Q380 319 361 358.5Q342 398 304 398Q269 398 250 359.5Q231 321 231 251Q231 175 251.5 139.5Q272 104 305 104Z" glyph-name="d" horiz-adv-x="605" unicode="d" /><glyph d="M20 473Q20 483 21 500Q21 514 21.5 536.5Q22 559 22 593Q34 592 50 592Q64 592 83 591.5Q102 591 128 591L127 704Q136 703 154 703Q169 703 193 703Q217 703 254 705Q253 689 253 671V590H359Q358 578 358 561Q358 546 358 524Q358 502 360 470Q348 471 332 471Q318 471 298 471Q278 471 253 472Q253 344 256 196Q243 196 225 197Q209 198 184 198Q159 198 124 198Q125 233 125 276Q125 313 125 363Q125 413 126 473H20Z" glyph-name="dagger" horiz-adv-x="380" unicode="&#8224;" /><glyph d="M373 393Q372 367 372.5 347.5Q373 328 373 315Q373 299 374 289H268V197Q244 198 221 198Q198 198 180 198Q159 198 141 197V288Q117 287 97.5 287Q78 287 64 287H35Q37 332 36.5 361Q36 390 36 392L141 391L140 510Q116 509 97 509Q78 509 64 509H36V586Q36 601 35 613H140Q139 638 139 661Q139 684 139 704Q162 703 185.5 703.5Q209 704 228 704H271L269 614H345Q361 614 374 615Q373 592 373 573Q373 554 373 540V510H269L268 392H344Q360 392 373 393Z" glyph-name="daggerdbl" horiz-adv-x="409" unicode="&#8225;" /><glyph d="M559 -4Q533 -3 507 -3H408Q409 7 410 22Q411 47 413 97Q391 43 348 15.5Q305 -12 252 -12Q203 -12 163 5Q123 22 94.5 55.5Q66 89 50.5 139Q35 189 35 254Q35 313 48.5 361.5Q62 410 88 444.5Q114 479 153 498Q192 517 242 517Q285 517 319 495.5Q353 474 376 437Q375 479 373.5 541.5Q372 604 369 688Q381 687 407 687Q428 687 465 687Q502 687 560 689Q559 598 559 488Q558 394 558 268Q558 142 559 -4ZM305 104Q338 104 359.5 136.5Q381 169 381 251Q380 319 361 358.5Q342 398 304 398Q269 398 250 359.5Q231 321 231 251Q231 175 251.5 139.5Q272 104 305 104ZM767 616Q767 595 757 573.5Q747 552 730 531.5Q713 511 690 491.5Q667 472 640 456Q629 468 621.5 476.5Q614 485 609 490L600 499Q622 514 639 532.5Q656 551 665 563Q642 568 629 584.5Q616 601 616 623Q616 651 636.5 670Q657 689 692 689Q727 689 747 669Q767 649 767 616Z" glyph-name="dcaron" horiz-adv-x="605" unicode="&#271;" /><glyph d="M559 -4Q533 -3 507 -3H408Q409 7 410 22Q411 47 413 97Q391 43 348 15.5Q305 -12 252 -12Q203 -12 163 5Q123 22 94.5 55.5Q66 89 50.5 139Q35 189 35 254Q35 313 48.5 361.5Q62 410 88 444.5Q114 479 153 498Q192 517 242 517Q285 517 319 495.5Q353 474 376 437Q376 456 375.5 479Q375 502 374 531Q357 531 344.5 531.5Q332 532 322 532Q311 532 302 533Q302 556 301.5 575Q301 594 301 608Q300 624 300 635L371 636L369 688Q381 687 407 687Q428 687 465 687Q502 687 560 689Q559 683 559 676V643Q578 644 594 644.5Q610 645 621 646Q634 647 645 647Q643 615 642.5 591.5Q642 568 641 552Q640 534 640 520L558 524Q558 429 558 294Q558 159 559 -4ZM305 104Q338 104 359.5 136.5Q381 169 381 251Q380 319 361 358.5Q342 398 304 398Q269 398 250 359.5Q231 321 231 251Q231 175 251.5 139.5Q272 104 305 104Z" glyph-name="dcroat" horiz-adv-x="605" unicode="&#273;" /><glyph d="M187 399Q154 399 125 409Q96 419 73.5 439Q51 459 38 489Q25 519 25 560Q25 592 35 619.5Q45 647 65 667.5Q85 688 114.5 699.5Q144 711 183 711Q263 711 304 669.5Q345 628 345 560Q345 488 303.5 443.5Q262 399 187 399ZM186 479Q215 479 232.5 499Q250 519 250 558Q250 590 233.5 612Q217 634 185 634Q153 634 137 611Q121 588 121 558Q121 524 137.5 501.5Q154 479 186 479Z" glyph-name="degree" horiz-adv-x="370" unicode="&#176;" /><glyph d="M191 558Q149 558 130 581Q111 604 111 634Q111 666 134.5 686Q158 706 192 706Q230 706 250.5 685.5Q271 665 271 633Q271 613 264.5 598.5Q258 584 246.5 575Q235 566 220.5 562Q206 558 191 558ZM410 560Q375 560 354 581Q333 602 333 637Q333 666 353.5 686.5Q374 707 412 707Q450 707 468.5 685.5Q487 664 487 634Q487 597 464.5 578.5Q442 560 410 560Z" glyph-name="dieresis" horiz-adv-x="606" unicode="&#168;" /><glyph d="M35 402Q105 400 177.5 400Q250 400 310 400Q380 400 446 401Q444 367 444 340.5Q444 314 444 294V254Q363 256 289.5 255.5Q216 255 159 255Q93 254 36 254Q36 286 35.5 312.5Q35 339 35 359ZM238 617Q277 617 300 594Q323 571 323 533Q323 493 299 470.5Q275 448 236 448Q196 448 174 470.5Q152 493 152 533Q152 577 175 597Q198 617 238 617ZM240 211Q280 211 302.5 189.5Q325 168 325 123Q325 86 301 64.5Q277 43 239 43Q197 43 175.5 65Q154 87 154 123Q154 169 178 190Q202 211 240 211Z" glyph-name="divide" horiz-adv-x="481" unicode="&#247;" /><glyph d="M110 402Q156 401 205.5 400.5Q255 400 302.5 400Q350 400 392.5 400Q435 400 467 400.5Q499 401 519 401Q539 401 541 401Q539 367 539 340.5Q539 314 539 294V254Q458 255 382.5 255.5Q307 256 247.5 255.5Q188 255 151 254.5Q114 254 111 254Q111 286 110.5 312.5Q110 339 110 359ZM323 617Q362 617 385 594Q408 571 408 533Q408 493 384 470.5Q360 448 321 448Q281 448 259 470.5Q237 493 237 533Q237 577 260 597Q283 617 323 617ZM325 211Q365 211 387.5 189.5Q410 168 410 123Q410 86 386 64.5Q362 43 324 43Q282 43 260.5 65Q239 87 239 123Q239 169 263 190Q287 211 325 211Z" glyph-name="divide.captab" horiz-adv-x="650" /><glyph d="M92 402Q138 401 187.5 400.5Q237 400 284.5 400Q332 400 374.5 400Q417 400 449 400.5Q481 401 501 401Q521 401 523 401Q521 367 521 340.5Q521 314 521 294V254Q440 255 364.5 255.5Q289 256 229.5 255.5Q170 255 133 254.5Q96 254 93 254Q93 286 92.5 312.5Q92 339 92 359ZM305 617Q344 617 367 594Q390 571 390 533Q390 493 366 470.5Q342 448 303 448Q263 448 241 470.5Q219 493 219 533Q219 577 242 597Q265 617 305 617ZM307 211Q347 211 369.5 189.5Q392 168 392 123Q392 86 368 64.5Q344 43 306 43Q264 43 242.5 65Q221 87 221 123Q221 169 245 190Q269 211 307 211Z" glyph-name="divide.tab" horiz-adv-x="615" /><glyph d="M390 -122Q351 -120 318.5 -120Q286 -120 263 -120H213Q216 -78 217.5 -49.5Q219 -21 220 -7Q135 10 80.5 61Q26 112 25 196Q49 199 78 203Q103 207 137 211.5Q171 216 212 223Q212 169 240.5 144.5Q269 120 308 120Q340 120 360 137Q380 154 380 180Q380 190 375.5 199.5Q371 209 356.5 218Q342 227 314 237Q286 247 239 258Q131 284 83.5 333.5Q36 383 36 462Q36 497 48.5 528.5Q61 560 84 585.5Q107 611 141 629Q175 647 217 656Q216 680 215 699.5Q214 719 213 733Q212 750 211 763Q257 762 291 762.5Q325 763 348 764Q374 765 394 765Q390 729 388.5 701.5Q387 674 385 654Q471 635 517.5 584Q564 533 569 458Q545 456 516 453Q491 451 457 447Q423 443 384 438Q382 481 357.5 504Q333 527 296 527Q264 527 248 509.5Q232 492 232 466Q232 451 238.5 439.5Q245 428 261.5 417.5Q278 407 307 397.5Q336 388 381 377Q436 364 473.5 345Q511 326 533.5 302Q556 278 566 249Q576 220 576 186Q576 146 562 114Q548 82 522.5 57.5Q497 33 462.5 16.5Q428 0 387 -8Q386 -32 386.5 -53Q387 -74 388 -89Q389 -107 390 -122Z" glyph-name="dollar" horiz-adv-x="611" unicode="$" /><glyph d="M397 -123Q358 -121 325.5 -121Q293 -121 270 -121H220Q223 -81 224.5 -53Q226 -25 227 -11Q140 5 84.5 63.5Q29 122 18 227Q41 227 73 229Q100 231 139 234Q178 237 230 243Q231 183 252 152Q273 121 319 121Q352 121 370.5 135.5Q389 150 389 181Q389 194 383.5 207Q378 220 364 231.5Q350 243 326 253.5Q302 264 265 274Q205 290 163 310Q121 330 94.5 357Q68 384 55.5 418.5Q43 453 43 498Q43 576 90.5 630.5Q138 685 224 704Q222 728 221 748.5Q220 769 219 783Q218 800 217 813Q263 812 297 812.5Q331 813 354 814Q380 815 400 815Q396 780 394.5 752.5Q393 725 391 705Q483 687 534.5 626Q586 565 594 464Q568 463 536 462Q509 461 473.5 459Q438 457 397 454Q401 510 381 541Q361 572 316 572Q281 572 264 554.5Q247 537 247 511Q247 474 278 450.5Q309 427 386 408Q451 392 492 371Q533 350 556.5 323.5Q580 297 589 266.5Q598 236 598 200Q598 110 545.5 56.5Q493 3 394 -13Q394 -36 394 -56Q394 -76 395 -91Q396 -109 397 -123Z" glyph-name="dollar.cap" horiz-adv-x="630" /><glyph d="M407 -123Q368 -121 335.5 -121Q303 -121 280 -121H230Q233 -81 234.5 -53Q236 -25 237 -11Q150 5 94.5 63.5Q39 122 28 227Q51 227 83 229Q110 231 149 234Q188 237 240 243Q241 183 262 152Q283 121 329 121Q362 121 380.5 135.5Q399 150 399 181Q399 194 393.5 207Q388 220 374 231.5Q360 243 336 253.5Q312 264 275 274Q215 290 173 310Q131 330 104.5 357Q78 384 65.5 418.5Q53 453 53 498Q53 576 100.5 630.5Q148 685 234 704Q232 728 231 748.5Q230 769 229 783Q228 800 227 813Q273 812 307 812.5Q341 813 364 814Q390 815 410 815Q406 780 404.5 752.5Q403 725 401 705Q493 687 544.5 626Q596 565 604 464Q578 463 546 462Q519 461 483.5 459Q448 457 407 454Q411 510 391 541Q371 572 326 572Q291 572 274 554.5Q257 537 257 511Q257 474 288 450.5Q319 427 396 408Q461 392 502 371Q543 350 566.5 323.5Q590 297 599 266.5Q608 236 608 200Q608 110 555.5 56.5Q503 3 404 -13Q404 -36 404 -56Q404 -76 405 -91Q406 -109 407 -123Z" glyph-name="dollar.captab" horiz-adv-x="650" /><glyph d="M392 -122Q353 -120 320.5 -120Q288 -120 265 -120H215Q218 -78 219.5 -49.5Q221 -21 222 -7Q180 2 145.5 19Q111 36 86 61.5Q61 87 46.5 120.5Q32 154 32 196Q56 199 85 203Q110 207 144 211.5Q178 216 219 223Q219 169 245 144.5Q271 120 310 120Q342 120 359.5 137Q377 154 377 180Q377 191 372.5 200Q368 209 354.5 218Q341 227 317 235.5Q293 244 253 254Q201 267 162 284.5Q123 302 96.5 326.5Q70 351 56.5 384.5Q43 418 43 462Q43 534 89 587Q135 640 219 657Q218 680 217 700Q216 720 215 734Q214 751 213 763Q259 762 293 762.5Q327 763 350 764Q376 765 396 765Q392 729 390.5 701.5Q389 674 387 654Q472 635 516.5 584Q561 533 566 458Q542 456 513 453Q488 451 454 447Q420 443 381 438Q379 481 357 504Q335 527 298 527Q266 527 252.5 509.5Q239 492 239 466Q239 438 266.5 418.5Q294 399 368 381Q431 366 471 345.5Q511 325 533.5 300.5Q556 276 564.5 247.5Q573 219 573 186Q573 146 559.5 114Q546 82 521.5 57.5Q497 33 463 16.5Q429 0 389 -8Q388 -32 388.5 -53Q389 -74 390 -89Q391 -107 392 -122Z" glyph-name="dollar.tab" horiz-adv-x="615" /><glyph d="M304 555Q257 555 233.5 581.5Q210 608 210 643Q210 677 234.5 701.5Q259 726 304 726Q328 726 345.5 718.5Q363 711 375 699Q387 687 392.5 671.5Q398 656 398 641Q398 599 371.5 577Q345 555 304 555Z" glyph-name="dotaccent" horiz-adv-x="606" unicode="&#729;" /><glyph d="M53 113Q53 173 52.5 267Q52 361 50 500H99Q123 500 157 500.5Q191 501 235 502Q234 428 235 345Q235 274 236 185Q237 96 239 2H186Q161 2 127 2Q93 2 53 1Z" glyph-name="dotlessi" horiz-adv-x="287" unicode="&#305;" /><glyph d="M307 -17Q245 -17 195 0.5Q145 18 109.5 51.5Q74 85 54.5 134Q35 183 35 245Q35 301 52 350.5Q69 400 102 437.5Q135 475 184 496.5Q233 518 298 518Q374 518 427 496Q480 474 510.5 434Q541 394 551 338.5Q561 283 552 216Q519 216 472 215Q431 214 371 213.5Q311 213 229 211Q240 107 313 107Q371 107 397 176Q416 169 442 162Q464 156 494.5 147.5Q525 139 565 130Q520 51 454 17Q388 -17 307 -17ZM303 414Q241 414 229 303L373 308Q371 361 356 387.5Q341 414 303 414Z" glyph-name="e" horiz-adv-x="598" unicode="e" /><glyph d="M307 -17Q245 -17 195 0.5Q145 18 109.5 51.5Q74 85 54.5 134Q35 183 35 245Q35 301 52 350.5Q69 400 102 437.5Q135 475 184 496.5Q233 518 298 518Q374 518 427 496Q480 474 510.5 434Q541 394 551 338.5Q561 283 552 216Q519 216 472 215Q431 214 371 213.5Q311 213 229 211Q240 107 313 107Q371 107 397 176Q416 169 442 162Q464 156 494.5 147.5Q525 139 565 130Q520 51 454 17Q388 -17 307 -17ZM303 414Q241 414 229 303L373 308Q371 361 356 387.5Q341 414 303 414ZM307 537Q285 553 269.5 563.5Q254 574 244 582Q232 590 224 596Q256 638 280 669Q304 700 320 721Q338 746 351 763Q376 744 395.5 730Q415 716 429 707Q445 696 456 688Q414 647 386.5 618.5Q359 590 341 572Q320 551 307 537Z" glyph-name="eacute" horiz-adv-x="598" unicode="&#233;" /><glyph d="M307 -17Q245 -17 195 0.5Q145 18 109.5 51.5Q74 85 54.5 134Q35 183 35 245Q35 301 52 350.5Q69 400 102 437.5Q135 475 184 496.5Q233 518 298 518Q374 518 427 496Q480 474 510.5 434Q541 394 551 338.5Q561 283 552 216Q519 216 472 215Q431 214 371 213.5Q311 213 229 211Q240 107 313 107Q371 107 397 176Q416 169 442 162Q464 156 494.5 147.5Q525 139 565 130Q520 51 454 17Q388 -17 307 -17ZM303 414Q241 414 229 303L373 308Q371 361 356 387.5Q341 414 303 414ZM189 743Q214 720 234.5 701.5Q255 683 269 670Q286 655 299 643Q326 666 347.5 684Q369 702 383 715Q400 730 412 742Q429 722 442 708.5Q455 695 463 686Q473 675 479 669Q447 640 423 617.5Q399 595 382 579Q363 561 349 547Q320 549 301.5 549Q283 549 272 549Q260 549 253 548Q224 575 200 598Q176 621 159 638Q139 657 122 674Q139 691 152 704Q165 717 173 726Q183 736 189 743Z" glyph-name="ecaron" horiz-adv-x="598" unicode="&#283;" /><glyph d="M307 -17Q245 -17 195 0.5Q145 18 109.5 51.5Q74 85 54.5 134Q35 183 35 245Q35 301 52 350.5Q69 400 102 437.5Q135 475 184 496.5Q233 518 298 518Q374 518 427 496Q480 474 510.5 434Q541 394 551 338.5Q561 283 552 216Q519 216 472 215Q431 214 371 213.5Q311 213 229 211Q240 107 313 107Q371 107 397 176Q416 169 442 162Q464 156 494.5 147.5Q525 139 565 130Q520 51 454 17Q388 -17 307 -17ZM303 414Q241 414 229 303L373 308Q371 361 356 387.5Q341 414 303 414ZM189 535Q183 541 173 552Q165 560 152 573.5Q139 587 122 604Q139 621 159 640Q176 657 200 679.5Q224 702 253 730Q260 729 272 729Q283 729 301.5 729Q320 729 349 731Q363 716 382 698Q399 682 423 660Q447 638 479 609Q473 603 463 592Q455 583 442 569.5Q429 556 412 536Q400 548 383 563Q369 576 347.5 594Q326 612 299 635Q286 623 269 608Q255 595 234.5 576.5Q214 558 189 535Z" glyph-name="ecircumflex" horiz-adv-x="598" unicode="&#234;" /><glyph d="M307 -17Q245 -17 195 0.5Q145 18 109.5 51.5Q74 85 54.5 134Q35 183 35 245Q35 301 52 350.5Q69 400 102 437.5Q135 475 184 496.5Q233 518 298 518Q374 518 427 496Q480 474 510.5 434Q541 394 551 338.5Q561 283 552 216Q519 216 472 215Q431 214 371 213.5Q311 213 229 211Q240 107 313 107Q371 107 397 176Q416 169 442 162Q464 156 494.5 147.5Q525 139 565 130Q520 51 454 17Q388 -17 307 -17ZM303 414Q241 414 229 303L373 308Q371 361 356 387.5Q341 414 303 414ZM192 558Q150 558 131 581Q112 604 112 634Q112 666 135.5 686Q159 706 193 706Q231 706 251.5 685.5Q272 665 272 633Q272 613 265.5 598.5Q259 584 247.5 575Q236 566 221.5 562Q207 558 192 558ZM411 560Q376 560 355 581Q334 602 334 637Q334 666 354.5 686.5Q375 707 413 707Q451 707 469.5 685.5Q488 664 488 634Q488 597 465.5 578.5Q443 560 411 560Z" glyph-name="edieresis" horiz-adv-x="598" unicode="&#235;" /><glyph d="M307 -17Q245 -17 195 0.5Q145 18 109.5 51.5Q74 85 54.5 134Q35 183 35 245Q35 301 52 350.5Q69 400 102 437.5Q135 475 184 496.5Q233 518 298 518Q374 518 427 496Q480 474 510.5 434Q541 394 551 338.5Q561 283 552 216Q519 216 472 215Q431 214 371 213.5Q311 213 229 211Q240 107 313 107Q371 107 397 176Q416 169 442 162Q464 156 494.5 147.5Q525 139 565 130Q520 51 454 17Q388 -17 307 -17ZM303 414Q241 414 229 303L373 308Q371 361 356 387.5Q341 414 303 414ZM300 555Q253 555 229.5 581.5Q206 608 206 643Q206 677 230.5 701.5Q255 726 300 726Q324 726 341.5 718.5Q359 711 371 699Q383 687 388.5 671.5Q394 656 394 641Q394 599 367.5 577Q341 555 300 555Z" glyph-name="edotaccent" horiz-adv-x="598" unicode="&#279;" /><glyph d="M307 -17Q245 -17 195 0.5Q145 18 109.5 51.5Q74 85 54.5 134Q35 183 35 245Q35 301 52 350.5Q69 400 102 437.5Q135 475 184 496.5Q233 518 298 518Q374 518 427 496Q480 474 510.5 434Q541 394 551 338.5Q561 283 552 216Q519 216 472 215Q431 214 371 213.5Q311 213 229 211Q240 107 313 107Q371 107 397 176Q416 169 442 162Q464 156 494.5 147.5Q525 139 565 130Q520 51 454 17Q388 -17 307 -17ZM303 414Q241 414 229 303L373 308Q371 361 356 387.5Q341 414 303 414ZM293 537Q279 551 259 572Q241 590 213.5 618.5Q186 647 145 688Q147 689 172.5 708Q198 727 247 766Q260 748 278 723Q294 702 318 671Q342 640 375 598Q365 591 353 582Q342 574 327 563Q312 552 293 537Z" glyph-name="egrave" horiz-adv-x="598" unicode="&#232;" /><glyph d="M336 -22Q177 -22 101 31.5Q25 85 25 180Q25 235 58 274Q91 313 156 330Q105 353 74 395.5Q43 438 43 492Q43 532 60 565.5Q77 599 112 624Q147 649 201 663Q255 677 329 677Q402 677 456 662.5Q510 648 545.5 623Q581 598 598.5 564Q616 530 616 491Q616 435 584.5 396.5Q553 358 496 336Q558 316 592.5 277Q627 238 627 182Q627 127 603 88Q579 49 539 24.5Q499 0 446.5 -11Q394 -22 336 -22ZM329 110Q367 110 393.5 129Q420 148 420 183Q420 220 392 246.5Q364 273 319 282Q273 272 250.5 245Q228 218 228 188Q228 153 254.5 131.5Q281 110 329 110ZM340 381Q373 392 394.5 417Q416 442 416 474Q416 508 392.5 527Q369 546 326 546Q278 546 257.5 526Q237 506 237 477Q237 445 263.5 418.5Q290 392 340 381Z" glyph-name="eight" horiz-adv-x="652" unicode="8" /></font>
</defs>
</svg>
